<svg id="loc_svg" xmlns="http://www.w3.org/2000/svg" version="1.1" xmlns:xlink="http://www.w3.org/1999/xlink" x="0" y="0" viewBox="0 0 682.667 682.667" style="enable-background:new 0 0 512 512" xml:space="preserve" class="hovered-paths">
<g>
<defs>
<clipPath id="a" clipPathUnits="userSpaceOnUse">
<path d="M0 512h512V0H0Z" fill="#eb212e" opacity="1" data-original="#eb212e"></path>
</clipPath>
</defs>
<g clip-path="url(#a)" transform="matrix(1.33333 0 0 -1.33333 0 682.667)">
<path d="M0 0c-60 90-165 212-165 317 0 90.981 74.019 165 165 165s165-74.019 165-165C165 212 60 90 0 0Z" style="stroke-width:30;stroke-linecap:round;stroke-linejoin:round;stroke-miterlimit:10;stroke-dasharray:none;stroke-opacity:1" transform="translate(256 15)" fill="none" stroke="#eb212e" stroke-width="30" stroke-linecap="round" stroke-linejoin="round" stroke-miterlimit="10" stroke-dasharray="none" stroke-opacity="" data-original="#eb212e" class="hovered-path"></path>
<path d="M0 0c-41.353 0-75 33.647-75 75s33.647 75 75 75 75-33.647 75-75S41.353 0 0 0Z" style="stroke-width:30;stroke-linecap:round;stroke-linejoin:round;stroke-miterlimit:10;stroke-dasharray:none;stroke-opacity:1" transform="translate(256 257)" fill="none" stroke="#eb212e" stroke-width="30" stroke-linecap="round" stroke-linejoin="round" stroke-miterlimit="10" stroke-dasharray="none" stroke-opacity="" data-original="#eb212e" class="hovered-path"></path>
</g>
</g>
</svg>