<?xml version="1.0" encoding="utf-8"?>
<!-- Generator: Adobe Illustrator 16.0.0, SVG Export Plug-In . SVG Version: 6.00 Build 0)  -->
<!DOCTYPE svg PUBLIC "-//W3C//DTD SVG 1.1//EN" "http://www.w3.org/Graphics/SVG/1.1/DTD/svg11.dtd">
<svg version="1.1" id="Layer_1" xmlns="http://www.w3.org/2000/svg" xmlns:xlink="http://www.w3.org/1999/xlink" x="0px" y="0px"
	 width="1812px" height="508px" viewBox="0 0 1812 508" enable-background="new 0 0 1812 508" xml:space="preserve">
<rect width="1812" height="508"/>
<path fill-rule="evenodd" clip-rule="evenodd" fill="#F2F2F2" d="M291.478,445.57V212.598l14.559,6.241L306,406l8-9l0.355-113.679
	l14.559,4.16L329,382l133-134L253,40L44,247l135,138l0.165-93.358l14.559-8.32L194,399l8,9l0.044-187.082l14.559-8.32v235.051
	L19.016,247.96L251.96,14.989L486.983,247.96L291.478,445.57z M239,445l9,10l-0.2-352.647l12.479-4.16L260,452l8-8l0.6-316.687
	l14.559,6.241V453.89L253,484l-28-28l-0.079-318.285l14.56-10.401L239,445z"/>
<path fill-rule="evenodd" clip-rule="evenodd" fill="#F2F2F2" d="M1787.571,198.479v20.396h-76.75V114.643h76.75v20.396h-54.645
	v20.687h52.107v20.033h-52.107v22.72H1787.571z M1666.612,218.874h-22.105v-83.835h-29.715v-20.396h81.535v20.396h-29.715V218.874z
	 M1596.669,198.333h-40.222l-8.19,20.541h-22.828l40.657-104.231h21.018l40.73,104.231h-22.9L1596.669,198.333z M1576.595,144.692
	l-12.9,34.043h25.799L1576.595,144.692z M1504.576,218.874h-22.104v-83.835h-29.715v-20.396h81.533v20.396h-29.715V218.874z
	 M1407.358,156.064c23.317,3.692,35.02,14.526,35.108,32.501c0,9.518-3.828,17.239-11.48,23.164
	c-7.605,5.877-17.608,8.814-30.009,8.814c-8.891,0-17.103-1.815-24.639-5.447c-7.538-3.63-13.722-8.516-18.553-14.657l15.147-15.278
	c7.728,9.991,17.508,14.986,29.344,14.986c5.546,0,9.946-1.048,13.201-3.144c3.256-2.097,4.884-4.808,4.884-8.133
	c0-5.445-4.853-9.084-14.557-10.915l-12.767-2.197c-10.389-1.742-18.457-5.264-24.206-10.565c-5.75-5.299-8.625-12.184-8.625-20.655
	c0-9.579,3.771-17.198,11.319-22.858c7.496-5.757,16.564-8.635,27.206-8.635c16.314,0,29.7,5.501,40.158,16.502l-14.955,15.725
	c-7.87-8.129-16.682-12.194-26.433-12.194c-4.63,0-8.319,0.955-11.066,2.865c-2.751,1.909-4.124,4.432-4.124,7.565
	c0,5.498,4.907,9.137,14.723,10.921L1407.358,156.064z M1269.469,114.643h76.75v20.396h-54.646v20.687h52.11v20.033h-52.11v22.72
	h54.646v20.396h-76.75V114.643z M1167.024,112.32h22.105v83.835h47.543v20.396h-69.648V112.32z M1123.48,196.011h-40.222
	l-8.19,20.541h-22.829l40.658-104.232h21.017l40.73,104.232h-22.901L1123.48,196.011z M1103.405,142.369l-12.899,34.043h25.8
	L1103.405,142.369z M964.823,112.32h76.75v20.395h-54.645v20.688h52.108v20.033h-52.108v22.719h54.645v20.396h-76.75V112.32z
	 M925.023,216.552l-20.51-33.606H886.83v33.606h-22.105V112.32h43.125c11.664,0,21.175,3.024,28.531,9.074
	c7.551,6.096,11.326,14.42,11.326,24.968c0,7.234-1.848,13.706-5.544,19.421c-3.696,5.713-8.73,10.064-15.103,13.055l23.048,37.715
	H925.023z M920.312,136.345c-3.527-2.419-8.986-3.63-16.378-3.63H886.83v30.197h17.104c14.446,0,21.669-5.105,21.669-15.316
	C925.603,142.515,923.838,138.766,920.312,136.345z M816.337,220.688l-11.274-11.104c-8.986,5.759-19.037,8.637-30.149,8.637
	c-15.075,0-27.734-5.056-37.977-15.17c-10.292-10.308-15.437-23.202-15.437-38.688c0-15.389,5.145-28.163,15.437-38.325
	c10.194-10.209,22.854-15.315,37.977-15.315c15.199,0,27.961,5.106,38.287,15.315c10.373,10.114,15.562,22.889,15.562,38.325
	c0,11.663-3.155,22.065-9.463,31.21l11.088,11.18L816.337,220.688z M797.67,141.208c-4.74-5.216-10.496-8.318-17.268-9.306
	c-1.711-0.316-3.467-0.489-5.261-0.489c-2.382,0-4.698,0.299-6.924,0.847c-6.173,1.251-11.361,4.181-15.554,8.803
	c-5.653,6.388-8.479,14.155-8.479,23.3c0,9.29,2.826,17.13,8.479,23.517c5.604,6.341,13.214,9.509,22.829,9.509
	c5.556,0,10.315-1.04,14.278-3.12l0.244-0.099c5.844-3.222,9.822-7.521,12.749-13.828l0.488-0.808
	c2.077-4.502,3.116-9.557,3.116-15.171C806.367,155.314,803.468,147.595,797.67,141.208z M677.175,153.742
	c23.318,3.693,35.021,14.525,35.108,32.5c0,9.52-3.828,17.24-11.48,23.165c-7.605,5.877-17.609,8.814-30.01,8.814
	c-8.89,0-17.102-1.814-24.638-5.446c-7.538-3.631-13.721-8.516-18.553-14.657l15.147-15.278c7.728,9.99,17.51,14.986,29.344,14.986
	c5.545,0,9.946-1.049,13.202-3.145c3.254-2.096,4.882-4.807,4.882-8.133c0-5.445-4.852-9.083-14.557-10.915l-12.766-2.196
	c-10.389-1.742-18.457-5.264-24.207-10.565c-5.75-5.3-8.624-12.185-8.624-20.655c0-9.579,3.771-17.197,11.318-22.857
	c7.496-5.757,16.564-8.635,27.206-8.635c16.314,0,29.701,5.501,40.158,16.502l-14.954,15.724
	c-7.87-8.129-16.681-12.193-26.433-12.193c-4.63,0-8.32,0.955-11.067,2.865c-2.75,1.91-4.123,4.433-4.123,7.565
	c0,5.497,4.907,9.137,14.723,10.921L677.175,153.742z M601.313,204.502c-11.5,8.034-24.666,12.05-39.499,12.05h-34.28V112.32h34.28
	c14.978,0,28.096,3.823,39.354,11.467c5.846,3.92,10.424,9.353,13.734,16.296c3.309,6.944,4.964,14.844,4.964,23.699
	c0,8.953-1.644,16.926-4.929,23.917C611.652,194.692,607.112,200.293,601.313,204.502z M558.409,132.715h-8.77v63.44h8.915
	c25.945,0,38.919-10.79,38.919-32.373C597.473,143.071,584.451,132.715,558.409,132.715z"/>
<g>
	<g>
		<path fill="#F2F2F2" d="M859.943,316.865c1.856-2.734,3.663-5.469,5.42-8.203s3.467-5.533,5.127-8.398l0.146-0.293
			c0.846-1.399,1.269-2.393,1.269-2.979c0-0.748-0.261-1.448-0.781-2.1c-0.391-0.586-0.814-0.879-1.27-0.879
			c-0.326,0-0.667,0.146-1.025,0.439l-2.149,1.855c-4.948,4.558-10.051,8.879-15.307,12.964
			c-5.258,4.086-10.686,7.968-16.285,11.646c-1.237,0.814-2.832,1.84-4.785,3.076c-1.953,1.237-4.086,2.531-6.396,3.882
			c-2.312,1.352-4.736,2.702-7.275,4.053c-2.54,1.352-5.014,2.572-7.422,3.662c-2.41,1.091-4.68,1.97-6.812,2.637
			c-2.132,0.668-3.964,1.001-5.494,1.001c-0.488,0-0.976-0.049-1.464-0.146s-0.928-0.26-1.319-0.488
			c-0.39-0.228-0.716-0.528-0.976-0.903c-0.261-0.374-0.408-0.838-0.439-1.392c0-1.334,0.203-2.75,0.61-4.248
			c0.406-1.497,0.911-2.994,1.513-4.492c0.602-1.497,1.27-2.938,2.002-4.321c0.732-1.383,1.423-2.628,2.075-3.735
			c1.204-2.051,2.498-4.207,3.881-6.47c1.383-2.262,2.873-4.63,4.468-7.104c1.432-2.181,2.791-4.378,4.077-6.592
			c1.285-2.213,2.515-4.492,3.687-6.836c0.586-1.236,0.879-2.522,0.879-3.857c0-0.521-0.09-1.05-0.269-1.587
			c-0.18-0.537-0.439-1.033-0.781-1.489c-0.342-0.455-0.75-0.83-1.221-1.123c-0.473-0.293-1.001-0.439-1.587-0.439l-0.391,0.049
			c-0.847,0.131-1.742,0.342-2.685,0.635c-0.945,0.293-1.937,0.7-2.979,1.221c-4.883,2.441-9.383,5.339-13.501,8.691
			c-4.119,3.354-7.935,7.129-11.45,11.328c-0.945,1.107-1.929,2.393-2.954,3.857s-1.978,3.003-2.856,4.614
			c-0.879,1.611-1.628,3.247-2.246,4.907c-0.619,1.66-0.994,3.239-1.123,4.736c-0.098,0.586-0.146,1.172-0.146,1.758
			c0,1.758,0.357,3.451,1.074,5.078c0.521,1.367,1.399,2.475,2.637,3.32c0.195,0.098,0.374,0.146,0.537,0.146h0.195
			c0.293,0,0.439-0.228,0.439-0.684c0-0.488-0.31-0.992-0.927-1.514c-1.205-0.977-1.807-2.262-1.807-3.857
			c0-2.278,0.504-4.646,1.513-7.104c1.009-2.457,2.336-4.907,3.98-7.349c1.643-2.441,3.532-4.834,5.664-7.178
			c2.131-2.344,4.337-4.524,6.616-6.543c2.278-2.018,4.532-3.824,6.763-5.42c2.229-1.595,4.255-2.864,6.079-3.809
			c4.069-2.148,6.641-3.223,7.714-3.223c0.456,0,0.684,0.261,0.684,0.781c0,0.424-0.212,1.099-0.634,2.026
			c-0.424,0.928-0.912,1.889-1.465,2.881c-0.554,0.993-1.107,1.945-1.66,2.856c-0.554,0.912-0.977,1.579-1.27,2.002l-9.179,14.697
			c-0.781,1.237-1.66,2.734-2.637,4.492c-0.976,1.758-1.896,3.589-2.759,5.493s-1.587,3.793-2.172,5.664
			c-0.586,1.872-0.879,3.573-0.879,5.103c0,1.726,0.357,3.32,1.074,4.785c1.269,2.865,3.792,4.297,7.568,4.297
			c3.157,0,6.982-1.041,11.475-3.125c8.691-4.036,17.017-8.707,24.976-14.014c7.958-5.306,15.681-10.904,23.169-16.797
			c2.018-1.627,3.108-2.441,3.271-2.441c0.097,0,0.146,0.065,0.146,0.195c0,0.326-1.14,2.165-3.418,5.518
			c-3.548,5.339-7.219,10.539-11.011,15.601c-3.792,5.063-7.756,10.051-11.89,14.966c-1.172,1.367-2.605,2.197-4.297,2.49
			c-0.195,0.065-0.39,0.106-0.585,0.122c-0.195,0.017-0.375,0.041-0.537,0.073c-5.371,1.237-10.393,2.588-15.063,4.053
			c-4.672,1.465-9.042,3.027-13.11,4.688c-1.238,0.488-2.719,1.131-4.443,1.929c-1.726,0.798-3.516,1.709-5.371,2.734
			c-1.856,1.025-3.687,2.156-5.494,3.394c-1.806,1.237-3.435,2.563-4.883,3.979c-1.449,1.416-2.612,2.905-3.491,4.468
			c-0.879,1.563-1.318,3.19-1.318,4.883c0,1.953,0.748,3.825,2.246,5.615c1.432,1.628,3.775,2.441,7.031,2.441
			c0.488,0,0.977-0.024,1.465-0.073c0.488-0.049,0.959-0.105,1.416-0.171c2.864-0.554,5.745-1.481,8.642-2.783
			c2.897-1.302,5.754-2.864,8.57-4.688c2.815-1.823,5.574-3.85,8.276-6.079c2.702-2.229,5.281-4.517,7.74-6.86
			c2.457-2.344,4.777-4.688,6.958-7.031c2.18-2.344,4.15-4.573,5.908-6.689c0.846-1.074,1.953-1.725,3.32-1.953l5.176-0.977
			c2.832-0.553,5.64-1.05,8.423-1.489s5.606-0.838,8.471-1.196c0.325-0.032,0.489-0.276,0.489-0.732
			c0-1.204-1.009-1.807-3.027-1.807c-0.521,0-4.428,0.488-11.719,1.465c-1.042,0.131-1.904,0.229-2.588,0.293
			c-0.684,0.065-1.204,0.098-1.563,0.098c-0.618,0-0.927-0.13-0.927-0.391c0-0.195,0.39-0.797,1.172-1.807
			C848.647,333.027,854.475,325.102,859.943,316.865z M827.619,351.533c-2.376,2.571-4.834,5.103-7.373,7.593
			c-2.539,2.49-5.176,4.851-7.91,7.08s-5.591,4.305-8.569,6.226s-6.079,3.597-9.302,5.029c-3.288,1.497-6.755,2.344-10.4,2.539
			h-0.439c-1.531-0.13-2.581-0.383-3.149-0.757c-0.57-0.374-0.854-0.952-0.854-1.733c0-2.051,1.008-4.265,3.027-6.641
			c1.465-1.692,3.271-3.288,5.419-4.785c2.149-1.497,4.476-2.905,6.983-4.224c2.506-1.318,5.134-2.556,7.886-3.711
			c2.75-1.155,5.476-2.214,8.179-3.174c2.702-0.96,5.314-1.823,7.836-2.588s4.793-1.44,6.812-2.026
			c0.65-0.195,1.285-0.342,1.904-0.439c0.358-0.032,0.553,0.081,0.586,0.342C828.286,350.524,828.075,350.947,827.619,351.533z
			 M908.684,337.861c0.422-0.521,0.456-0.781,0.097-0.781s-1.107,0.244-2.246,0.732c-2.05,0.879-4.175,1.53-6.372,1.953
			c-2.197,0.424-4.241,0.635-6.128,0.635c-0.228,0-0.439-0.008-0.634-0.024c-0.195-0.016-0.391-0.024-0.586-0.024
			c-0.163-0.032-0.292-0.13-0.39-0.293c-0.098-0.162-0.13-0.342-0.098-0.537l0.146-0.732c0.13-0.684,0.228-1.351,0.293-2.002
			c0-0.943-0.301-1.79-0.903-2.539c-0.603-0.748-1.424-1.123-2.466-1.123c-0.359,0-0.732,0.049-1.124,0.146
			c-0.13,0.065-0.261,0.114-0.39,0.146c-0.131,0.033-0.261,0.082-0.391,0.146c-0.131,0.065-0.245,0.114-0.342,0.146
			c-0.098,0.033-0.212,0.065-0.342,0.098c-0.066,0.033-0.164,0.049-0.293,0.049c-0.326,0-0.619-0.244-0.879-0.732
			c-0.033-0.032-0.049-0.098-0.049-0.195c-0.033-0.032-0.049-0.081-0.049-0.146c-0.196-0.455-0.439-0.789-0.733-1.001
			c-0.292-0.211-0.618-0.317-0.976-0.317c-0.164,0-0.31,0.017-0.439,0.049c-0.13,0.033-0.277,0.082-0.439,0.146
			c-1.27,0.424-2.563,1.099-3.882,2.026s-2.556,1.994-3.711,3.198c-1.155,1.205-2.189,2.466-3.101,3.784
			c-0.911,1.318-1.579,2.58-2.002,3.784c-0.846,2.441-0.439,4.655,1.221,6.641c0.977,1.14,2.132,1.709,3.466,1.709
			c0.358,0,0.733-0.049,1.124-0.146c1.139-0.261,2.262-0.651,3.369-1.172c1.106-0.521,2.181-1.123,3.223-1.807
			c1.041-0.684,2.034-1.424,2.979-2.222c0.944-0.797,1.806-1.603,2.588-2.417c0.553-0.618,1.236-0.943,2.051-0.977
			c1.367-0.13,2.921-0.317,4.663-0.562c1.741-0.244,3.474-0.602,5.2-1.074c1.725-0.472,3.345-1.082,4.858-1.831
			C906.511,339.848,907.739,338.936,908.684,337.861z M882.854,344.99c-1.238,0.977-2.523,1.855-3.857,2.637
			c-1.335,0.781-2.783,1.384-4.346,1.807c-0.163,0.032-0.317,0.057-0.464,0.073c-0.147,0.017-0.301,0.041-0.464,0.073
			c-0.129,0-0.211,0.017-0.244,0.049c-0.293,0-0.569-0.139-0.831-0.415c-0.26-0.276-0.374-0.577-0.342-0.903
			c0.229-1.497,0.798-2.93,1.709-4.297c0.553-0.748,1.139-1.514,1.757-2.295s1.286-1.529,2.002-2.246
			c0.715-0.716,1.448-1.392,2.197-2.026s1.514-1.196,2.295-1.685c0.195-0.064,0.325-0.098,0.391-0.098
			c0.032,0.033,0.081,0.073,0.146,0.122c0.064,0.049,0.114,0.073,0.146,0.073c0.032,0.033,0.056,0.09,0.073,0.171
			c0.016,0.082,0.024,0.139,0.024,0.171l-0.439,0.732c-0.098,0.163-0.195,0.317-0.293,0.464c-0.098,0.146-0.195,0.302-0.293,0.464
			c-0.39,0.749-0.423,1.514-0.097,2.295c0.26,0.684,0.634,1.367,1.123,2.051c0.52,0.749,0.773,1.286,0.757,1.611
			C883.789,344.145,883.472,344.535,882.854,344.99z M888.762,338.618c-0.164,0.342-0.366,0.659-0.61,0.952
			s-0.505,0.546-0.781,0.757c-0.277,0.212-0.579,0.317-0.903,0.317c-0.391,0-0.765-0.113-1.124-0.342
			c-0.097-0.064-0.154-0.171-0.171-0.317s0.008-0.252,0.074-0.317c0.879-1.139,2.018-1.92,3.418-2.344
			c0.032,0,0.081,0.009,0.146,0.024c0.065,0.017,0.114,0.058,0.147,0.122l0.146,0.146c0,0.033,0.016,0.065,0.048,0.098
			C889.055,337.976,888.924,338.276,888.762,338.618z M945.559,340.449c0.195-0.098,0.391-0.211,0.586-0.342
			c0.032-0.032,0.057-0.049,0.073-0.049s0.041-0.016,0.073-0.049c0.098-0.064,0.244-0.203,0.439-0.415
			c0.195-0.211,0.366-0.439,0.513-0.684s0.22-0.455,0.22-0.635c0-0.179-0.146-0.269-0.439-0.269c-0.261,0-0.569,0.065-0.928,0.195
			c-2.604,0.749-5.225,1.636-7.861,2.661s-5.208,2.06-7.715,3.101h-0.098c-0.195,0.131-0.513,0.277-0.952,0.439
			c-0.439,0.163-0.806,0.244-1.099,0.244c-0.423,0-0.472-0.244-0.146-0.732c0.781-1.074,1.563-2.246,2.344-3.516
			c0.358-0.618,0.732-1.204,1.123-1.758c0.391-0.553,0.765-1.106,1.123-1.66c0.651-0.943,0.603-1.92-0.146-2.93
			c-0.423-0.521-0.862-0.781-1.318-0.781c-0.325,0-0.667,0.131-1.025,0.391c-0.651,0.488-1.253,0.993-1.807,1.514
			c-2.278,1.921-4.671,3.711-7.178,5.371s-5.144,3.061-7.91,4.199c-0.228,0.065-0.439,0.146-0.635,0.244s-0.391,0.195-0.586,0.293
			c-0.391,0.163-0.781,0.244-1.172,0.244c-0.358,0-0.716-0.064-1.074-0.195c-0.195-0.13-0.293-0.293-0.293-0.488
			s0.048-0.374,0.146-0.537c0.064-0.162,0.138-0.317,0.22-0.464c0.081-0.146,0.154-0.301,0.219-0.464
			c0.749-1.758,1.79-3.45,3.125-5.078c1.335-1.627,2.718-3.06,4.15-4.297c0.391-0.293,0.651-0.569,0.781-0.83
			c0.065-0.162,0.098-0.35,0.098-0.562c0-0.211-0.049-0.382-0.146-0.513c-0.488-0.879-1.025-1.318-1.611-1.318
			c-0.358,0-0.765,0.18-1.221,0.537c-0.813,0.651-1.709,1.465-2.686,2.441s-1.888,2.043-2.734,3.198
			c-0.847,1.156-1.547,2.344-2.1,3.564c-0.553,1.221-0.83,2.401-0.83,3.54c-0.065,1.14,0.375,2.246,1.318,3.32
			c0.684,0.912,1.578,1.384,2.685,1.416c0.651,0,1.229-0.032,1.733-0.098c0.505-0.064,1.082-0.228,1.733-0.488
			c1.009-0.488,1.985-0.984,2.93-1.489c0.944-0.504,1.839-1.033,2.686-1.587c1.465-0.943,2.93-1.773,4.395-2.49
			c0.098-0.098,0.179-0.098,0.244,0c0.032,0.131-0.017,0.326-0.146,0.586c-0.13,0.261-0.342,0.749-0.635,1.465
			c-0.065,0.163-0.146,0.317-0.244,0.464s-0.179,0.285-0.244,0.415c-0.293,0.488-0.447,0.92-0.464,1.294
			c-0.017,0.375,0.236,0.903,0.757,1.587c0.423,0.554,0.928,0.83,1.514,0.83c0.228,0,0.407-0.017,0.537-0.049
			c0.456-0.13,0.896-0.276,1.318-0.439c0.423-0.162,0.847-0.325,1.27-0.488c2.8-1.139,5.559-2.335,8.276-3.589
			c2.718-1.253,5.444-2.563,8.179-3.931C945.151,340.661,945.363,340.547,945.559,340.449z M966.516,330.635
			c-0.293,0-0.651,0.082-1.074,0.244c-0.032,0.033-0.098,0.049-0.195,0.049c-0.358,0.163-0.708,0.334-1.05,0.513
			c-0.342,0.18-0.691,0.366-1.05,0.562c-1.204,0.781-2.409,1.571-3.613,2.368c-1.204,0.798-2.409,1.604-3.613,2.417
			c-0.325,0.229-0.651,0.456-0.977,0.684c-0.325,0.229-0.651,0.473-0.977,0.732c-0.228,0.163-0.439,0.31-0.635,0.439
			c-0.195,0.131-0.407,0.277-0.635,0.439c0,0.033-0.065,0.049-0.195,0.049h-0.146h-0.146c-0.13,0-0.146-0.098-0.049-0.293
			c0.195-0.357,0.432-0.757,0.708-1.196s0.545-0.838,0.806-1.196c0.163-0.26,0.317-0.504,0.464-0.732
			c0.146-0.228,0.301-0.455,0.464-0.684l2.344-3.809c0.261-0.455,0.31-0.919,0.146-1.392c-0.163-0.472-0.505-0.87-1.025-1.196
			c-0.13-0.098-0.276-0.146-0.439-0.146c-0.065,0-0.114,0.009-0.146,0.024c-0.032,0.017-0.065,0.024-0.098,0.024
			c-0.293,0.163-0.569,0.407-0.83,0.732c-2.376,3.256-4.736,6.511-7.08,9.766c-2.344,3.256-4.703,6.527-7.08,9.814
			c-0.228,0.261-0.439,0.545-0.635,0.854s-0.374,0.627-0.537,0.952c-0.391,0.847-0.244,1.66,0.439,2.441
			c0.391,0.488,0.83,0.732,1.318,0.732c0.229,0,0.456-0.081,0.684-0.244c0.488-0.456,0.977-0.903,1.465-1.343
			s0.961-0.887,1.416-1.343c2.539-2.441,5.159-4.744,7.861-6.909c2.702-2.164,5.518-4.239,8.447-6.226
			c0.261-0.162,0.569-0.325,0.928-0.488c0.098-0.032,0.212-0.081,0.342-0.146c0.032-0.032,0.081-0.049,0.146-0.049
			c0.163,0,0.212,0.098,0.146,0.293c-0.065,0.131-0.114,0.261-0.146,0.391c-0.032,0.131-0.081,0.261-0.146,0.391
			c-0.065,0.229-0.13,0.439-0.195,0.635s-0.13,0.407-0.195,0.635c-0.13,0.358-0.146,0.732-0.049,1.123
			c0.163,0.619,0.415,1.196,0.757,1.733s0.822,0.985,1.44,1.343c0.391,0.131,0.798,0.195,1.221,0.195h0.195
			c0.195,0,0.342-0.089,0.439-0.269c0.098-0.179,0.114-0.35,0.049-0.513c-0.032-0.032-0.049-0.064-0.049-0.098
			c0-0.032-0.017-0.064-0.049-0.098c-0.065-0.195-0.163-0.357-0.293-0.488c-0.781-0.716-0.879-1.48-0.293-2.295
			c0.358-0.521,0.725-1.041,1.099-1.563c0.374-0.521,0.74-1.058,1.099-1.611c0.13-0.162,0.244-0.325,0.342-0.488
			c0.098-0.162,0.212-0.325,0.342-0.488c0.13-0.13,0.212-0.244,0.244-0.342c0.13-0.162,0.261-0.342,0.391-0.537
			s0.261-0.406,0.391-0.635c0.261-0.586,0.276-1.188,0.049-1.807C968.534,331.286,967.688,330.635,966.516,330.635z
			 M1057.063,302.07c1.595-2.051,3.206-4.117,4.834-6.201c0.261-0.357,0.513-0.708,0.757-1.05s0.48-0.691,0.708-1.05
			c0.488-0.943,0.569-1.839,0.244-2.686c-0.228-0.488-0.586-0.732-1.074-0.732c-0.423,0-0.798,0.212-1.123,0.635
			c-0.293,0.326-0.578,0.651-0.854,0.977c-0.276,0.326-0.545,0.668-0.806,1.025c-1.563,1.921-3.117,3.833-4.663,5.737
			s-3.101,3.833-4.663,5.786c-0.325,0.424-0.651,0.847-0.977,1.27c-0.325,0.424-0.667,0.847-1.025,1.27
			c-2.344,2.963-4.655,5.908-6.934,8.838s-4.558,5.876-6.836,8.838c-5.339,7.064-10.53,14.177-15.576,21.338
			s-10.059,14.388-15.039,21.68c0,0.032-0.017,0.065-0.049,0.098c-0.261,0.358-0.472,0.684-0.635,0.977
			c-0.261,0.391-0.35,0.813-0.269,1.27s0.301,0.83,0.659,1.123h0.244h0.098c0.325,0,0.537-0.146,0.635-0.439
			c0.261-0.261,0.496-0.537,0.708-0.83s0.432-0.569,0.659-0.83c0.651-0.911,1.302-1.823,1.953-2.734s1.302-1.823,1.953-2.734
			c6.706-9.505,13.606-18.848,20.703-28.027s14.274-18.311,21.533-27.393C1053.856,306.172,1055.468,304.121,1057.063,302.07z
			 M1102.229,277.949c0.195,0,0.391-0.016,0.586-0.049c4.329-0.391,8.659-0.684,12.988-0.879c0.944-0.064,1.872-0.113,2.783-0.146
			c0.911-0.032,1.823-0.081,2.734-0.146c0.261,0,0.529,0.009,0.806,0.024c0.276,0.017,0.545,0.024,0.806,0.024
			c0.911,0,1.807-0.049,2.686-0.146c0.391-0.032,0.781-0.056,1.172-0.073c0.391-0.016,0.781-0.024,1.172-0.024
			c0.879,0,1.758,0.049,2.637,0.146c0.13,0,0.276-0.129,0.439-0.391c0.163-0.26,0.244-0.455,0.244-0.586
			c-0.195-0.943-0.765-1.497-1.709-1.66c-0.651-0.064-1.302-0.105-1.953-0.122c-0.651-0.016-1.302-0.024-1.953-0.024
			c-2.344,0.066-4.671,0.146-6.982,0.244s-4.639,0.195-6.982,0.293c-0.651,0.033-1.302,0.058-1.953,0.073
			c-0.651,0.017-1.302,0.042-1.953,0.073c-2.409,0-4.785,0.098-7.129,0.293c-1.399,0.131-2.791,0.253-4.175,0.366
			c-1.384,0.115-2.775,0.22-4.175,0.317c-5.957,0.457-11.865,1.018-17.725,1.685c-5.859,0.668-11.735,1.458-17.627,2.368
			c-6.348,0.977-12.688,2.068-19.019,3.271c-6.331,1.205-12.605,2.653-18.823,4.346h-0.098c-2.637,0.749-5.168,1.53-7.593,2.344
			c-2.425,0.814-4.858,1.889-7.3,3.223c-0.879,0.521-1.677,1.172-2.393,1.953c-0.618,0.619-0.896,1.352-0.83,2.197
			c0.163,2.019,1.091,3.467,2.783,4.346c2.116,1.107,4.46,1.855,7.031,2.246c0.228,0,0.472-0.098,0.732-0.293
			c0.098-0.098,0.163-0.22,0.195-0.366s0.032-0.269,0-0.366c-0.032-0.65-0.374-1.106-1.025-1.367
			c-1.27-0.488-2.539-0.928-3.809-1.318c-0.065-0.032-0.122-0.049-0.171-0.049s-0.105-0.016-0.171-0.049
			c-1.53-0.488-2.522-1.058-2.979-1.709c-0.423-0.618,0.391-1.399,2.441-2.344c1.009-0.455,2.019-0.87,3.027-1.245
			c1.009-0.374,2.019-0.708,3.027-1.001c0.325-0.098,0.635-0.195,0.928-0.293s0.586-0.195,0.879-0.293
			c7.292-2.246,14.648-4.102,22.07-5.566s14.893-2.767,22.412-3.906c7.259-1.139,14.478-2.156,21.655-3.052
			c7.178-0.895,14.412-1.667,21.704-2.319C1101.838,277.966,1102.033,277.949,1102.229,277.949z M1075.383,330.635
			c-0.293,0-0.651,0.082-1.074,0.244c-0.032,0.033-0.098,0.049-0.195,0.049c-0.358,0.163-0.708,0.334-1.05,0.513
			c-0.342,0.18-0.691,0.366-1.05,0.562c-1.204,0.781-2.409,1.571-3.613,2.368c-1.204,0.798-2.409,1.604-3.613,2.417
			c-0.325,0.229-0.651,0.456-0.977,0.684c-0.325,0.229-0.651,0.473-0.977,0.732c-0.228,0.163-0.439,0.31-0.635,0.439
			c-0.195,0.131-0.407,0.277-0.635,0.439c0,0.033-0.065,0.049-0.195,0.049h-0.146h-0.146c-0.13,0-0.146-0.098-0.049-0.293
			c0.195-0.357,0.432-0.757,0.708-1.196s0.545-0.838,0.806-1.196c0.163-0.26,0.317-0.504,0.464-0.732
			c0.146-0.228,0.301-0.455,0.464-0.684l2.344-3.809c0.261-0.455,0.31-0.919,0.146-1.392c-0.163-0.472-0.505-0.87-1.025-1.196
			c-0.13-0.098-0.276-0.146-0.439-0.146c-0.065,0-0.114,0.009-0.146,0.024c-0.032,0.017-0.065,0.024-0.098,0.024
			c-0.293,0.163-0.569,0.407-0.83,0.732c-2.376,3.256-4.736,6.511-7.08,9.766c-2.344,3.256-4.703,6.527-7.08,9.814
			c-0.228,0.261-0.439,0.545-0.635,0.854s-0.374,0.627-0.537,0.952c-0.391,0.847-0.244,1.66,0.439,2.441
			c0.391,0.488,0.83,0.732,1.318,0.732c0.229,0,0.456-0.081,0.684-0.244c0.488-0.456,0.977-0.903,1.465-1.343
			s0.961-0.887,1.416-1.343c2.539-2.441,5.159-4.744,7.861-6.909c2.702-2.164,5.518-4.239,8.447-6.226
			c0.261-0.162,0.569-0.325,0.928-0.488c0.098-0.032,0.212-0.081,0.342-0.146c0.032-0.032,0.081-0.049,0.146-0.049
			c0.163,0,0.212,0.098,0.146,0.293c-0.065,0.131-0.114,0.261-0.146,0.391c-0.032,0.131-0.081,0.261-0.146,0.391
			c-0.065,0.229-0.13,0.439-0.195,0.635s-0.13,0.407-0.195,0.635c-0.13,0.358-0.146,0.732-0.049,1.123
			c0.163,0.619,0.415,1.196,0.757,1.733s0.822,0.985,1.44,1.343c0.391,0.131,0.798,0.195,1.221,0.195h0.195
			c0.195,0,0.342-0.089,0.439-0.269c0.098-0.179,0.114-0.35,0.049-0.513c-0.032-0.032-0.049-0.064-0.049-0.098
			c0-0.032-0.017-0.064-0.049-0.098c-0.065-0.195-0.163-0.357-0.293-0.488c-0.781-0.716-0.879-1.48-0.293-2.295
			c0.358-0.521,0.725-1.041,1.099-1.563c0.374-0.521,0.74-1.058,1.099-1.611c0.13-0.162,0.244-0.325,0.342-0.488
			c0.098-0.162,0.212-0.325,0.342-0.488c0.13-0.13,0.212-0.244,0.244-0.342c0.13-0.162,0.261-0.342,0.391-0.537
			s0.261-0.406,0.391-0.635c0.261-0.586,0.276-1.188,0.049-1.807C1077.401,331.286,1076.555,330.635,1075.383,330.635z
			 M1119.045,340.791c0.228-0.13,0.439-0.244,0.635-0.342s0.391-0.211,0.586-0.342c0.032-0.032,0.057-0.049,0.073-0.049
			s0.041-0.016,0.073-0.049c0.098-0.064,0.244-0.203,0.439-0.415c0.195-0.211,0.366-0.439,0.513-0.684s0.22-0.455,0.22-0.635
			c0-0.179-0.146-0.269-0.439-0.269c-0.261,0-0.569,0.065-0.928,0.195c-2.604,0.749-5.225,1.636-7.861,2.661
			s-5.208,2.06-7.715,3.101h-0.098c-0.195,0.131-0.513,0.277-0.952,0.439c-0.439,0.163-0.806,0.244-1.099,0.244
			c-0.423,0-0.472-0.244-0.146-0.732c0.781-1.074,1.563-2.246,2.344-3.516c0.358-0.618,0.732-1.204,1.123-1.758
			c0.391-0.553,0.765-1.106,1.123-1.66c0.651-0.943,0.603-1.92-0.146-2.93c-0.423-0.521-0.862-0.781-1.318-0.781
			c-0.325,0-0.667,0.131-1.025,0.391c-0.651,0.488-1.253,0.993-1.807,1.514c-2.278,1.921-4.671,3.711-7.178,5.371
			s-5.144,3.061-7.91,4.199c-0.228,0.065-0.439,0.146-0.635,0.244s-0.391,0.195-0.586,0.293c-0.391,0.163-0.781,0.244-1.172,0.244
			c-0.358,0-0.716-0.064-1.074-0.195c-0.195-0.13-0.293-0.293-0.293-0.488s0.049-0.374,0.146-0.537
			c0.065-0.162,0.139-0.317,0.22-0.464s0.154-0.301,0.22-0.464c0.749-1.758,1.79-3.45,3.125-5.078
			c1.335-1.627,2.718-3.06,4.15-4.297c0.391-0.293,0.651-0.569,0.781-0.83c0.065-0.162,0.098-0.35,0.098-0.562
			c0-0.211-0.049-0.382-0.146-0.513c-0.488-0.879-1.025-1.318-1.611-1.318c-0.358,0-0.765,0.18-1.221,0.537
			c-0.813,0.651-1.709,1.465-2.686,2.441s-1.888,2.043-2.734,3.198c-0.847,1.156-1.546,2.344-2.1,3.564
			c-0.553,1.221-0.83,2.401-0.83,3.54c-0.064,1.14,0.375,2.246,1.318,3.32c0.684,0.912,1.579,1.384,2.686,1.416
			c0.651,0,1.229-0.032,1.733-0.098c0.505-0.064,1.082-0.228,1.733-0.488c1.009-0.488,1.985-0.984,2.93-1.489
			c0.944-0.504,1.839-1.033,2.686-1.587c1.465-0.943,2.93-1.773,4.395-2.49c0.098-0.098,0.179-0.098,0.244,0
			c0.032,0.131-0.017,0.326-0.146,0.586c-0.13,0.261-0.342,0.749-0.635,1.465c-0.065,0.163-0.146,0.317-0.244,0.464
			s-0.179,0.285-0.244,0.415c-0.293,0.488-0.447,0.92-0.464,1.294c-0.017,0.375,0.236,0.903,0.757,1.587
			c0.423,0.554,0.928,0.83,1.514,0.83c0.228,0,0.407-0.017,0.537-0.049c0.456-0.13,0.896-0.276,1.318-0.439
			c0.423-0.162,0.847-0.325,1.27-0.488c2.8-1.139,5.559-2.335,8.276-3.589C1113.584,343.469,1116.311,342.158,1119.045,340.791z
			 M1143.615,337.129c-0.293,0-0.813,0.139-1.563,0.415c-0.749,0.277-1.538,0.603-2.368,0.977c-0.83,0.375-1.619,0.741-2.368,1.099
			c-0.749,0.358-1.27,0.619-1.563,0.781c-1.042,0.521-2.075,1.01-3.101,1.465c-1.025,0.456-2.026,0.896-3.003,1.318
			c-0.716,0.293-1.514,0.586-2.393,0.879s-1.709,0.439-2.49,0.439c-0.977,0-1.318-0.569-1.025-1.709
			c0.032-0.064,0.049-0.179,0.049-0.342c0.358-1.367,0.74-2.669,1.147-3.906c0.407-1.236,0.928-2.368,1.563-3.394
			s1.44-1.944,2.417-2.759c0.977-0.813,2.214-1.497,3.711-2.051c0.391-0.162,0.781-0.26,1.172-0.293
			c0.13-0.032,0.252-0.064,0.366-0.098c0.114-0.032,0.236-0.064,0.366-0.098c0.228-0.064,0.383-0.235,0.464-0.513
			c0.081-0.276,0.073-0.545-0.024-0.806c-0.261-0.488-0.618-0.838-1.074-1.05c-0.456-0.211-0.944-0.317-1.465-0.317
			c-0.163,0-0.31,0-0.439,0s-0.276,0.033-0.439,0.098c-3.386,0.781-5.957,2.67-7.715,5.664c-0.977,1.726-1.741,3.662-2.295,5.811
			c-0.553,2.148-1.025,4.199-1.416,6.152c-0.162,0.684-0.406,1.278-0.732,1.782c-0.325,0.505-0.83,0.92-1.514,1.245
			c-0.553,0.261-1.106,0.546-1.66,0.854c-0.553,0.31-1.106,0.627-1.66,0.952c-0.064,0-0.113,0.017-0.146,0.049
			c-1.236,0.716-2.474,1.448-3.711,2.197c-1.236,0.749-2.474,1.497-3.711,2.246c-1.139,0.781-2.164,1.579-3.076,2.393
			c-0.488,0.488-0.65,1.106-0.488,1.855c0.163,0.651,0.375,1.172,0.635,1.563c0.261,0.391,0.579,0.691,0.952,0.903
			c0.375,0.212,0.806,0.366,1.294,0.464s1.025,0.179,1.611,0.244h0.586c3.418,0,6.194-0.896,8.325-2.686
			c2.133-1.79,3.671-4.297,4.614-7.52c0.033-0.098,0.065-0.195,0.098-0.293s0.081-0.212,0.146-0.342
			c0.13-0.521,0.456-0.911,0.977-1.172c0.13-0.065,0.252-0.122,0.366-0.171s0.236-0.105,0.366-0.171
			c0.456-0.261,0.911-0.513,1.367-0.757s0.911-0.479,1.367-0.708c2.246-1.041,4.476-2.115,6.689-3.223
			c2.214-1.106,4.427-2.229,6.641-3.369c2.734-1.399,4.395-2.344,4.98-2.832C1144.511,337.553,1144.233,337.129,1143.615,337.129z
			 M1116.613,353.73c-0.032,0.13-0.064,0.244-0.098,0.342c-1.106,1.595-2.604,2.767-4.492,3.516
			c-0.455,0.228-0.935,0.423-1.44,0.586c-0.504,0.163-1.001,0.244-1.489,0.244c-0.064,0-0.138-0.008-0.22-0.024
			c-0.08-0.017-0.187-0.041-0.317-0.073c-0.098-0.032-0.179-0.081-0.244-0.146c0-0.032,0-0.081,0-0.146s0.017-0.114,0.049-0.146
			c0.195-0.228,0.391-0.407,0.586-0.537c1.172-0.684,2.344-1.367,3.516-2.051s2.328-1.367,3.467-2.051
			c0.131-0.065,0.229-0.098,0.293-0.098c0.163,0,0.293,0.081,0.391,0.244C1116.646,353.486,1116.646,353.601,1116.613,353.73z
			 M1250.358,337.495c-0.244-0.113-0.496-0.171-0.757-0.171c-0.293,0-0.603,0.082-0.928,0.244c-2.083,1.498-5.257,3.549-9.521,6.152
			c-2.148,1.303-4.216,2.548-6.201,3.735c-1.985,1.188-3.938,2.319-5.859,3.394c-0.813,0.456-1.636,0.879-2.466,1.27
			s-1.668,0.765-2.515,1.123c-0.032,0.032-0.122,0.081-0.269,0.146s-0.301,0.122-0.464,0.171s-0.31,0.09-0.439,0.122
			s-0.228,0.049-0.293,0.049c-0.228,0-0.472-0.081-0.732-0.244c-0.293-0.261-0.407-0.545-0.342-0.854s0.179-0.61,0.342-0.903
			c0.032-0.065,0.065-0.13,0.098-0.195s0.065-0.13,0.098-0.195c0.261-0.618,0.529-1.221,0.806-1.807s0.578-1.155,0.903-1.709
			l0.146-0.293c3.646-6.348,7.707-12.402,12.183-18.164s9.27-11.263,14.38-16.504c0.261-0.26,0.496-0.504,0.708-0.732
			c0.212-0.228,0.415-0.472,0.61-0.732c0.554-0.748,0.603-1.48,0.146-2.197c-0.228-0.391-0.537-0.748-0.928-1.074
			c-0.032-0.032-0.049-0.064-0.049-0.098c-0.163-0.162-0.407-0.244-0.732-0.244s-0.569,0.065-0.732,0.195
			c-0.13,0.131-0.228,0.212-0.293,0.244c-0.586,0.488-1.074,0.944-1.465,1.367c-3.353,3.354-6.706,6.698-10.059,10.034
			c-3.353,3.337-6.722,6.682-10.107,10.034c-0.618,0.619-1.221,1.213-1.807,1.782c-0.586,0.57-1.204,1.132-1.855,1.685
			c-0.325,0.326-0.667,0.488-1.025,0.488c-0.228,0-0.472-0.081-0.732-0.244c-0.065-0.064-0.13-0.113-0.195-0.146
			c-0.065-0.032-0.13-0.081-0.195-0.146c-0.065-0.032-0.146-0.098-0.244-0.195c-1.302-0.879-2.669-1.318-4.102-1.318
			c-0.781,0-1.53,0.114-2.246,0.342c-1.367,0.391-2.727,0.952-4.077,1.685s-2.629,1.596-3.833,2.588
			c-0.7,0.577-1.357,1.194-1.992,1.832c-0.008-0.034-0.006-0.06-0.02-0.099c-0.13-0.293-0.407-0.439-0.83-0.439
			c-0.261,0-0.439,0.017-0.537,0.049c-0.228,0-1.888,0.781-4.98,2.344c-1.758,0.814-3.662,1.596-5.713,2.344
			c-2.051,0.749-4.297,1.449-6.738,2.1c-5.144,1.237-8.626,1.855-10.449,1.855c-0.813,0-1.497-0.064-2.051-0.195
			c-0.684-0.26-1.025-0.684-1.025-1.27c0-0.293,0.09-0.626,0.269-1.001c0.179-0.374,0.391-0.748,0.635-1.123
			c0.244-0.374,0.505-0.732,0.781-1.074s0.513-0.626,0.708-0.854c1.302-1.204,2.132-1.871,2.49-2.002h0.146
			c0.651,0.358,1.465,0.537,2.441,0.537c1.009,0,2.229-0.162,3.662-0.488c1.106-0.325,2.148-0.691,3.125-1.099
			c0.977-0.406,1.953-0.919,2.93-1.538c0.716-0.521,1.074-1.155,1.074-1.904v-0.195c0-0.65-0.293-1.367-0.879-2.148
			c-0.488-0.553-0.928-0.895-1.318-1.025c-0.488-0.228-0.977-0.342-1.465-0.342c-1.27,0-2.588,0.22-3.955,0.659
			s-2.71,1.01-4.028,1.709c-1.318,0.7-2.556,1.498-3.711,2.393c-1.155,0.896-2.156,1.815-3.003,2.759
			c-0.148,0.143-0.282,0.287-0.417,0.432c0.012-0.029,0.032-0.06,0.041-0.09c0.049-0.162,0.008-0.309-0.122-0.439
			c-0.065-0.064-0.179-0.098-0.342-0.098c-0.261,0-0.578,0.058-0.952,0.171c-0.374,0.114-0.789,0.302-1.245,0.562
			c-1.465,0.879-3.182,1.799-5.151,2.759c-1.97,0.961-4.004,1.864-6.104,2.71c-2.1,0.847-4.158,1.587-6.177,2.222
			s-3.841,1.066-5.469,1.294c-0.293,0-0.528-0.105-0.708-0.317c-0.178-0.211-0.22-0.431-0.122-0.659
			c0.813-1.92,1.782-3.702,2.905-5.347c1.123-1.644,2.352-3.263,3.687-4.858c1.563-1.79,3.108-3.556,4.639-5.298
			c1.53-1.741,3.076-3.491,4.639-5.249c0.879-1.074,1.814-2.124,2.808-3.149s1.978-2.026,2.954-3.003
			c0.618-0.716,1.433-1.074,2.441-1.074c0.358-0.032,0.732-0.049,1.123-0.049s0.765-0.016,1.123-0.049
			c0.261-0.032,0.537-0.049,0.83-0.049s0.569-0.016,0.83-0.049c0.618-0.032,1.221-0.049,1.807-0.049s1.188-0.016,1.807-0.049
			l5.859-0.146c0.195-0.032,0.391-0.064,0.586-0.098c0.195-0.032,0.374-0.081,0.537-0.146c0.065-0.064,0.122-0.171,0.171-0.317
			s0.073-0.269,0.073-0.366c-0.358-0.943-1.025-1.514-2.002-1.709c-0.325-0.032-0.643-0.057-0.952-0.073
			c-0.31-0.016-0.643-0.024-1.001-0.024c-0.554,0.033-1.123,0.058-1.709,0.073c-0.586,0.017-1.155,0.041-1.709,0.073
			c-0.358,0.033-0.708,0.049-1.05,0.049s-0.691,0.017-1.05,0.049h-0.146h-2.197c-0.163,0-0.342-0.13-0.537-0.391
			c-0.032-0.098-0.017-0.228,0.049-0.391c0.032-0.064,0.114-0.162,0.244-0.293c0.293-0.455,0.635-0.846,1.025-1.172
			c1.399-1.334,2.8-2.652,4.199-3.955c1.399-1.302,2.8-2.604,4.199-3.906c0.358-0.357,0.732-0.708,1.123-1.05
			s0.765-0.691,1.123-1.05c0.13-0.098,0.244-0.195,0.342-0.293s0.212-0.195,0.342-0.293c0.228-0.228,0.447-0.439,0.659-0.635
			s0.432-0.406,0.659-0.635c0.391-0.455,0.472-0.943,0.244-1.465c-0.293-0.716-0.749-1.074-1.367-1.074
			c-0.293,0-0.569,0.098-0.83,0.293c-0.325,0.229-0.643,0.456-0.952,0.684c-0.31,0.229-0.627,0.473-0.952,0.732
			c-2.441,2.051-4.826,4.126-7.153,6.226s-4.614,4.272-6.86,6.519c-0.261,0.261-0.537,0.529-0.83,0.806
			c-0.293,0.277-0.569,0.546-0.83,0.806c-0.456,0.456-1.042,0.717-1.758,0.781c-0.163,0.033-0.391,0.049-0.684,0.049h-0.879
			c-0.456,0.033-0.928,0.058-1.416,0.073c-0.488,0.017-0.96,0.041-1.416,0.073c-1.692,0.065-3.386,0.139-5.078,0.22
			c-1.692,0.082-3.386,0.155-5.078,0.22c-0.488,0.033-1.009,0.131-1.563,0.293c-0.065,0.033-0.122,0.049-0.171,0.049
			s-0.105,0.017-0.171,0.049c-0.261,0.065-0.358,0.277-0.293,0.635c0.195,0.912,0.716,1.416,1.563,1.514
			c1.042,0.065,2.092,0.114,3.149,0.146c1.058,0.033,2.107,0.049,3.149,0.049c0.13-0.032,0.261-0.049,0.391-0.049s0.276,0,0.439,0
			h4.688c0.065,0,0.13,0.009,0.195,0.024c0.065,0.017,0.098,0.058,0.098,0.122c0,0.033,0.017,0.065,0.049,0.098
			c0,0.326-0.017,0.537-0.049,0.635l-1.465,1.758c-0.032,0-0.065,0.017-0.098,0.049c-0.456,0.521-0.92,1.042-1.392,1.563
			c-0.472,0.521-0.936,1.059-1.392,1.611c-1.074,1.14-2.238,2.401-3.491,3.784c-1.253,1.384-2.49,2.816-3.711,4.297
			c-1.221,1.481-2.368,2.971-3.442,4.468c-1.074,1.498-1.937,2.914-2.588,4.248c-0.064,0.163-0.146,0.326-0.244,0.488
			c-0.098,0.163-0.179,0.326-0.244,0.488c-0.488,1.01-0.716,2.035-0.684,3.076c-0.032,1.303,0.424,2.49,1.367,3.564
			c0.619,0.716,1.416,1.106,2.393,1.172c0.163,0.032,0.334,0.049,0.513,0.049s0.35,0,0.513,0c0.944,0,1.904-0.13,2.881-0.391
			c7.324-2.246,14.014-5.777,20.068-10.596c0.032-0.032,0.057-0.049,0.073-0.049s0.041-0.016,0.073-0.049
			c0.127-0.063,0.271-0.168,0.431-0.311c-0.896,1.229-1.349,2.537-1.349,3.924v0.098c0,1.042,0.326,2.116,0.977,3.223
			c0.651,1.107,1.521,1.855,2.612,2.246s2.238,0.586,3.442,0.586c1.237,0,2.637-0.146,4.199-0.439c0.423,0,1.872-0.357,4.346-1.074
			c1.66-0.488,3.361-1.05,5.103-1.685s3.459-1.351,5.151-2.148c1.692-0.797,3.32-1.676,4.883-2.637
			c1.213-0.745,2.311-1.562,3.347-2.415c-0.149,0.165-0.312,0.317-0.457,0.486c-1.009,1.172-1.839,2.377-2.49,3.613
			c-0.553,1.107-0.748,2.189-0.586,3.247c0.163,1.059,0.619,2.06,1.367,3.003c0.456,0.554,1.01,0.896,1.66,1.025
			c0.424,0.13,0.928,0.195,1.514,0.195c0.749,0,1.521-0.139,2.319-0.415s1.521-0.627,2.173-1.05c1.79-1.139,3.54-2.327,5.249-3.564
			c1.709-1.236,3.377-2.539,5.005-3.906c1.042-0.977,2.197-1.904,3.467-2.783l0.098-0.098c0.065-0.032,0.114-0.049,0.146-0.049
			s0.081-0.016,0.146-0.049c0.032,0,0.065-0.016,0.098-0.049c0.032,0.065,0.049,0.114,0.049,0.146c0,0.033,0.017,0.065,0.049,0.098
			c0.065,0.261,0.098,0.407,0.098,0.439c-0.618,1.107-1.229,2.206-1.831,3.296c-0.603,1.091-1.229,2.157-1.88,3.198
			c-0.847,1.563-1.497,3.271-1.953,5.127c-0.228,0.977-0.203,1.896,0.073,2.759s0.708,1.652,1.294,2.368
			c0.618,0.879,1.726,1.335,3.32,1.367c0.065-0.032,0.122-0.049,0.171-0.049s0.105-0.017,0.171-0.049
			c0.261-0.032,0.537-0.073,0.83-0.122s0.618-0.139,0.977-0.269c0.944-0.423,1.888-0.854,2.832-1.294s1.888-0.903,2.832-1.392
			c0.13-0.065,0.432-0.228,0.903-0.488s1.115-0.618,1.929-1.074c1.433-0.813,2.93-1.685,4.492-2.612s3.101-1.888,4.614-2.881
			c1.514-0.992,2.986-2.018,4.419-3.076c1.433-1.058,2.751-2.14,3.955-3.247c1.27-1.204,1.758-2.115,1.465-2.734
			C1250.806,337.797,1250.603,337.609,1250.358,337.495z M1180.5,335.176c2.734-1.106,4.573-1.692,5.518-1.758
			c0.228,0.033,0.342,0.082,0.342,0.146c0,0.195-0.261,0.505-0.781,0.928c-0.261,0.163-0.578,0.334-0.952,0.513
			c-0.374,0.18-0.838,0.383-1.392,0.61c-2.246,0.749-3.776,1.123-4.59,1.123c-0.195,0-0.293-0.049-0.293-0.146
			C1178.352,336.332,1179.067,335.859,1180.5,335.176z M1218.84,335.713c-0.065,0.131-0.114,0.212-0.146,0.244
			c-0.977,0.912-2.026,1.855-3.149,2.832s-2.287,1.921-3.491,2.832c-1.204,0.912-2.425,1.774-3.662,2.588
			c-1.237,0.814-2.474,1.514-3.711,2.1c-0.13,0.065-0.261,0.139-0.391,0.22c-0.13,0.082-0.261,0.155-0.391,0.22
			c-0.325,0.131-0.699,0.229-1.123,0.293c-0.064,0.033-0.146,0.049-0.244,0.049c-0.228,0-0.391-0.098-0.488-0.293
			s-0.146-0.406-0.146-0.635c0.229-0.684,0.546-1.318,0.952-1.904c0.407-0.586,0.854-1.155,1.343-1.709
			c0.847-0.943,1.758-1.855,2.734-2.734s2.019-1.676,3.125-2.393c1.106-0.716,2.271-1.31,3.491-1.782
			c1.221-0.472,2.482-0.772,3.784-0.903c0.293,0,0.554,0.033,0.781,0.098c0.228,0.065,0.439,0.212,0.635,0.439
			c0.032,0.033,0.049,0.065,0.049,0.098c0,0.033,0.017,0.082,0.049,0.146l0.098,0.098L1218.84,335.713z M1376.574,319.063
			c2.148-2.246,4.036-4.654,5.664-7.227c1.628-2.571,2.767-5.225,3.418-7.959c1.204-5.664-0.163-10.318-4.102-13.965
			c-1.367-1.27-2.889-2.213-4.565-2.832c-1.677-0.618-3.459-0.928-5.347-0.928c-2.571,0-5.241,0.439-8.008,1.318
			s-5.55,2.043-8.35,3.491c-2.8,1.449-5.574,3.117-8.325,5.005c-2.751,1.889-5.388,3.842-7.91,5.859
			c-2.522,2.019-4.891,4.045-7.104,6.079c-2.214,2.035-4.183,3.915-5.908,5.64c-0.554,0.521-1.091,1.025-1.611,1.514
			s-1.042,0.993-1.563,1.514c-0.684,0.684-1.14,1.025-1.367,1.025c-0.13,0-0.195-0.081-0.195-0.244
			c0.032-0.064,0.049-0.113,0.049-0.146c0-0.032,0.017-0.064,0.049-0.098c0.13-0.325,0.269-0.65,0.415-0.977
			c0.146-0.325,0.301-0.65,0.464-0.977c0.944-2.051,1.863-4.102,2.759-6.152s1.701-4.117,2.417-6.201
			c0.977-2.93,1.448-5.811,1.416-8.643c0-0.943-0.163-1.839-0.488-2.686c-0.325-0.846-0.773-1.587-1.343-2.222
			s-1.253-1.147-2.051-1.538s-1.685-0.586-2.661-0.586c-0.163,0-0.342,0.009-0.537,0.024c-0.195,0.017-0.391,0.041-0.586,0.073
			c-1.204,0.229-2.385,0.546-3.54,0.952c-1.155,0.407-2.287,0.888-3.394,1.44c-1.855,0.944-3.914,2.092-6.177,3.442
			c-2.263,1.352-4.509,2.824-6.738,4.419c-2.229,1.596-4.321,3.256-6.274,4.98c-1.953,1.726-3.548,3.451-4.785,5.176
			c-0.521,0.717-0.618,1.465-0.293,2.246c0.293,0.651,0.635,0.977,1.025,0.977c0.325,0,0.651-0.195,0.977-0.586
			c1.563-1.855,3.361-3.67,5.396-5.444c2.034-1.773,4.167-3.45,6.396-5.029c2.229-1.578,4.5-3.043,6.812-4.395
			c2.312-1.351,4.558-2.515,6.738-3.491c0.098-0.032,0.212-0.081,0.342-0.146c0.749-0.325,1.514-0.602,2.295-0.83
			c0.781-0.228,1.563-0.406,2.344-0.537c0.195-0.064,0.383-0.098,0.562-0.098s0.35,0,0.513,0s0.31,0,0.439,0
			s0.276,0.017,0.439,0.049c1.692,0.229,2.49,1.172,2.393,2.832c-0.065,2.116-0.472,4.224-1.221,6.323s-1.53,4.11-2.344,6.03
			c-1.563,3.679-3.239,7.309-5.029,10.889c-1.79,3.581-3.76,7.064-5.908,10.449c-1.009,1.628-1.904,3.012-2.686,4.15
			c-0.781,1.14-1.465,2.051-2.051,2.734c-0.163,0.229-0.342,0.439-0.537,0.635s-0.374,0.407-0.537,0.635
			c-0.391,0.424-0.847,0.635-1.367,0.635c-0.195,0-0.342-0.016-0.439-0.049c-0.261-0.032-0.513-0.049-0.757-0.049
			s-0.496-0.016-0.757-0.049c-0.163,0-0.317,0.114-0.464,0.342c-0.146,0.229-0.188,0.424-0.122,0.586
			c0.944,1.303,1.091,2.328,0.439,3.076c-0.228,0.261-0.447,0.529-0.659,0.806c-0.212,0.277-0.415,0.562-0.61,0.854
			c-0.065,0.131-0.146,0.244-0.244,0.342s-0.179,0.195-0.244,0.293c-2.441,3.223-4.777,6.47-7.007,9.741s-4.419,6.6-6.567,9.985
			c-1.758,2.767-3.369,5.566-4.834,8.398s-2.815,5.729-4.053,8.691c-0.228,0.554-0.432,1.123-0.61,1.709s-0.334,1.172-0.464,1.758
			c-0.162,0.944,0.017,1.79,0.537,2.539c0.325,0.521,0.765,0.781,1.318,0.781c0.488,0,0.944-0.195,1.367-0.586
			c0.813-0.847,1.579-1.726,2.295-2.637s1.399-1.872,2.051-2.881c3.809-5.729,7.495-11.482,11.06-17.261s7.023-11.662,10.376-17.651
			l2.344-4.102c0.228-0.391,0.488-0.667,0.781-0.83c0.098-0.064,0.374-0.098,0.83-0.098c0.195,0,0.415,0,0.659,0
			s0.529,0.033,0.854,0.098c0.651,0.065,1.277,0.146,1.88,0.244s1.196,0.18,1.782,0.244c1.14,0.163,2.214,0.285,3.223,0.366
			c1.009,0.082,1.937,0.122,2.783,0.122c3.679,0,7.259-0.195,10.742-0.586s6.893-1.009,10.229-1.855
			c3.337-0.846,6.633-1.929,9.888-3.247s6.511-2.905,9.766-4.761c2.344-1.334,4.761-2.93,7.251-4.785
			S1374.426,321.309,1376.574,319.063z M1294.787,357.588c-0.098,0.293-0.212,0.586-0.342,0.879s-0.276,0.569-0.439,0.83
			s-0.342,0.537-0.537,0.83s-0.374,0.603-0.537,0.928c-0.651,1.042-1.311,2.067-1.978,3.076s-1.326,2.019-1.978,3.027
			c-0.749,1.042-1.253,1.563-1.514,1.563c-0.163,0-0.244-0.163-0.244-0.488c1.14-1.953,2.246-3.743,3.32-5.371
			s2.116-3.142,3.125-4.541c0.065-0.065,0.163-0.179,0.293-0.342s0.293-0.358,0.488-0.586c0.195-0.195,0.31-0.293,0.342-0.293
			C1294.885,357.1,1294.885,357.263,1294.787,357.588z M1361.901,325.654c-4.085,2.539-8.374,4.688-12.866,6.445
			s-9.106,3.093-13.843,4.004c-4.736,0.912-9.448,1.4-14.136,1.465c-0.293-0.032-0.586-0.049-0.879-0.049s-0.569-0.016-0.83-0.049
			c-2.051-0.098-3.728-0.187-5.029-0.269c-1.302-0.081-2.132-0.203-2.49-0.366c-0.358-0.162-0.261-0.928,0.293-2.295
			c0.521-1.27,1.579-2.832,3.174-4.688c7.878-9.017,16.406-17.285,25.586-24.805c2.116-1.725,4.443-3.491,6.982-5.298
			s5.192-3.458,7.959-4.956c2.767-1.497,5.583-2.734,8.447-3.711s5.681-1.497,8.447-1.563c1.433,0,2.759,0.155,3.979,0.464
			c1.221,0.31,2.434,0.871,3.638,1.685c2.409,1.693,3.499,4.102,3.271,7.227c-0.195,1.791-0.61,3.508-1.245,5.151
			c-0.635,1.645-1.424,3.223-2.368,4.736s-2.002,2.946-3.174,4.297c-1.172,1.352-2.393,2.629-3.662,3.833
			C1369.738,320.202,1365.986,323.115,1361.901,325.654z M1402.219,338.887c0.163-0.65,0.212-1.09,0.146-1.318
			c-0.065-0.228-0.276-0.342-0.635-0.342c-0.098,0-0.212,0.009-0.342,0.024c-0.13,0.017-0.276,0.041-0.439,0.073
			c-0.684,0.163-2.62,1.498-5.811,4.004c-1.66,1.303-3.597,2.597-5.811,3.882c-2.214,1.286-4.753,2.58-7.617,3.882h-0.098
			c-0.358,0-0.505-0.163-0.439-0.488c0.13-0.521,0.317-1.017,0.562-1.489c0.244-0.472,0.513-0.919,0.806-1.343
			c0.032-0.032,0.049-0.057,0.049-0.073c0-0.016,0.017-0.04,0.049-0.073c0.293-0.423,0.725-1.033,1.294-1.831
			c0.569-0.797,1.18-1.619,1.831-2.466c0.651-0.846,1.294-1.627,1.929-2.344c0.635-0.716,1.147-1.204,1.538-1.465
			c0.358-0.325,0.651-0.635,0.879-0.928c0.261-0.357,0.31-0.748,0.146-1.172c-0.163-0.293-0.391-0.635-0.684-1.025
			s-0.618-0.586-0.977-0.586c-0.195,0-0.374,0.065-0.537,0.195c-0.391,0.293-0.765,0.619-1.123,0.977
			c-1.204,1.107-2.531,2.197-3.979,3.271s-2.962,2.075-4.541,3.003s-3.19,1.758-4.834,2.49s-3.264,1.311-4.858,1.733
			c-0.195,0.065-0.537,0.098-1.025,0.098c-0.357,0-0.684-0.049-0.977-0.146s-0.357-0.276-0.195-0.537
			c0.586-1.106,1.335-2.091,2.246-2.954c0.911-0.862,1.912-1.627,3.003-2.295c1.091-0.667,2.238-1.245,3.442-1.733
			s2.393-0.895,3.564-1.221c0.618-0.162,1.164-0.276,1.636-0.342c0.472-0.064,0.887-0.098,1.245-0.098
			c0.261,0,0.496,0.009,0.708,0.024c0.212,0.017,0.415,0.041,0.61,0.073c0.228,0.033,0.472,0.058,0.732,0.073
			c0.261,0.017,0.521,0.041,0.781,0.073c0.098-0.064,0.188-0.179,0.269-0.342c0.081-0.162,0.122-0.357,0.122-0.586
			c0-0.228-0.065-0.464-0.195-0.708s-0.374-0.479-0.732-0.708c-0.554-0.423-1.147-0.724-1.782-0.903
			c-0.635-0.179-1.277-0.269-1.929-0.269c-0.521,0-1.058,0.049-1.611,0.146c-1.074,0.098-2.173,0.31-3.296,0.635
			c-1.123,0.326-2.214,0.749-3.271,1.27c-1.058,0.521-2.059,1.123-3.003,1.807s-1.773,1.433-2.49,2.246
			c-1.236,1.433-1.871,2.523-1.904,3.271c-0.293,0.619-0.415,1.262-0.366,1.929c0.049,0.668,0.236,1.278,0.562,1.831
			c0.326,0.554,0.766,1.018,1.318,1.392c0.554,0.375,1.172,0.578,1.855,0.61c1.237,0,2.441-0.162,3.613-0.488
			c1.823-0.65,3.581-1.383,5.273-2.197c0.293-0.162,0.586-0.309,0.879-0.439c0.293-0.13,0.603-0.26,0.928-0.391
			c0.032,0,0.065-0.016,0.098-0.049c0.098,0,0.195,0.033,0.293,0.098c0.098,0.065,0.146,0.146,0.146,0.244
			c-0.13,0.391-0.252,0.773-0.366,1.147c-0.114,0.375-0.236,0.757-0.366,1.147c-0.195,0.814-0.13,1.644,0.195,2.49
			s0.847,1.514,1.563,2.002c0.586,0.358,1.237,0.537,1.953,0.537c0.456,0,0.896-0.057,1.318-0.171s0.862-0.236,1.318-0.366
			c0.032-0.032,0.065-0.049,0.098-0.049c0.488-0.13,1.953-1.058,4.395-2.783c1.204-0.879,2.873-2.14,5.005-3.784
			C1396.514,343.42,1399.126,341.361,1402.219,338.887z M1421.564,330.635c-0.293,0-0.651,0.082-1.074,0.244
			c-0.032,0.033-0.098,0.049-0.195,0.049c-0.358,0.163-0.708,0.334-1.05,0.513c-0.342,0.18-0.691,0.366-1.05,0.562
			c-1.204,0.781-2.409,1.571-3.613,2.368c-1.204,0.798-2.409,1.604-3.613,2.417c-0.325,0.229-0.651,0.456-0.977,0.684
			c-0.325,0.229-0.651,0.473-0.977,0.732c-0.228,0.163-0.439,0.31-0.635,0.439c-0.195,0.131-0.407,0.277-0.635,0.439
			c0,0.033-0.065,0.049-0.195,0.049h-0.146h-0.146c-0.13,0-0.146-0.098-0.049-0.293c0.195-0.357,0.432-0.757,0.708-1.196
			s0.545-0.838,0.806-1.196c0.163-0.26,0.317-0.504,0.464-0.732c0.146-0.228,0.301-0.455,0.464-0.684l2.344-3.809
			c0.261-0.455,0.31-0.919,0.146-1.392c-0.163-0.472-0.505-0.87-1.025-1.196c-0.13-0.098-0.276-0.146-0.439-0.146
			c-0.065,0-0.114,0.009-0.146,0.024c-0.032,0.017-0.065,0.024-0.098,0.024c-0.293,0.163-0.569,0.407-0.83,0.732
			c-2.376,3.256-4.736,6.511-7.08,9.766c-2.344,3.256-4.703,6.527-7.08,9.814c-0.228,0.261-0.439,0.545-0.635,0.854
			s-0.374,0.627-0.537,0.952c-0.391,0.847-0.244,1.66,0.439,2.441c0.391,0.488,0.83,0.732,1.318,0.732
			c0.229,0,0.456-0.081,0.684-0.244c0.488-0.456,0.977-0.903,1.465-1.343s0.961-0.887,1.416-1.343
			c2.539-2.441,5.159-4.744,7.861-6.909c2.702-2.164,5.518-4.239,8.447-6.226c0.261-0.162,0.569-0.325,0.928-0.488
			c0.098-0.032,0.212-0.081,0.342-0.146c0.032-0.032,0.081-0.049,0.146-0.049c0.163,0,0.212,0.098,0.146,0.293
			c-0.065,0.131-0.114,0.261-0.146,0.391c-0.032,0.131-0.081,0.261-0.146,0.391c-0.065,0.229-0.13,0.439-0.195,0.635
			s-0.13,0.407-0.195,0.635c-0.13,0.358-0.146,0.732-0.049,1.123c0.163,0.619,0.415,1.196,0.757,1.733s0.822,0.985,1.44,1.343
			c0.391,0.131,0.798,0.195,1.221,0.195h0.195c0.195,0,0.342-0.089,0.439-0.269c0.098-0.179,0.114-0.35,0.049-0.513
			c-0.032-0.032-0.049-0.064-0.049-0.098c0-0.032-0.017-0.064-0.049-0.098c-0.065-0.195-0.163-0.357-0.293-0.488
			c-0.781-0.716-0.879-1.48-0.293-2.295c0.358-0.521,0.725-1.041,1.099-1.563c0.374-0.521,0.74-1.058,1.099-1.611
			c0.13-0.162,0.244-0.325,0.342-0.488c0.098-0.162,0.212-0.325,0.342-0.488c0.13-0.13,0.212-0.244,0.244-0.342
			c0.13-0.162,0.261-0.342,0.391-0.537s0.261-0.406,0.391-0.635c0.261-0.586,0.276-1.188,0.049-1.807
			C1423.583,331.286,1422.736,330.635,1421.564,330.635z M1453.142,339.619c0.017,0,0.041-0.016,0.073-0.049
			c0.13-0.064,0.276-0.171,0.439-0.317s0.317-0.301,0.464-0.464c0.146-0.162,0.244-0.325,0.293-0.488
			c0.049-0.162,0.008-0.309-0.122-0.439c-0.065-0.064-0.179-0.098-0.342-0.098c-0.261,0-0.578,0.058-0.952,0.171
			c-0.374,0.114-0.789,0.302-1.245,0.562c-1.465,0.879-3.182,1.799-5.151,2.759c-1.97,0.961-4.004,1.864-6.104,2.71
			c-2.1,0.847-4.158,1.587-6.177,2.222s-3.841,1.066-5.469,1.294c-0.293,0-0.528-0.105-0.708-0.317
			c-0.178-0.211-0.22-0.431-0.122-0.659c0.813-1.92,1.782-3.702,2.905-5.347c1.123-1.644,2.352-3.263,3.687-4.858
			c1.563-1.79,3.108-3.556,4.639-5.298c1.53-1.741,3.076-3.491,4.639-5.249c0.879-1.074,1.814-2.124,2.808-3.149
			s1.978-2.026,2.954-3.003c0.618-0.716,1.433-1.074,2.441-1.074c0.358-0.032,0.732-0.049,1.123-0.049s0.765-0.016,1.123-0.049
			c0.261-0.032,0.537-0.049,0.83-0.049s0.569-0.016,0.83-0.049c0.618-0.032,1.221-0.049,1.807-0.049s1.188-0.016,1.807-0.049
			l5.859-0.146c0.195-0.032,0.391-0.064,0.586-0.098c0.195-0.032,0.374-0.081,0.537-0.146c0.065-0.064,0.122-0.171,0.171-0.317
			s0.073-0.269,0.073-0.366c-0.358-0.943-1.025-1.514-2.002-1.709c-0.325-0.032-0.643-0.057-0.952-0.073
			c-0.31-0.016-0.643-0.024-1.001-0.024c-0.554,0.033-1.123,0.058-1.709,0.073c-0.586,0.017-1.155,0.041-1.709,0.073
			c-0.358,0.033-0.708,0.049-1.05,0.049s-0.691,0.017-1.05,0.049h-0.146h-2.197c-0.163,0-0.342-0.13-0.537-0.391
			c-0.032-0.098-0.017-0.228,0.049-0.391c0.032-0.064,0.114-0.162,0.244-0.293c0.293-0.455,0.635-0.846,1.025-1.172
			c1.399-1.334,2.8-2.652,4.199-3.955c1.399-1.302,2.8-2.604,4.199-3.906c0.358-0.357,0.732-0.708,1.123-1.05
			s0.765-0.691,1.123-1.05c0.13-0.098,0.244-0.195,0.342-0.293s0.212-0.195,0.342-0.293c0.228-0.228,0.447-0.439,0.659-0.635
			s0.432-0.406,0.659-0.635c0.391-0.455,0.472-0.943,0.244-1.465c-0.293-0.716-0.749-1.074-1.367-1.074
			c-0.293,0-0.569,0.098-0.83,0.293c-0.325,0.229-0.643,0.456-0.952,0.684c-0.31,0.229-0.627,0.473-0.952,0.732
			c-2.441,2.051-4.826,4.126-7.153,6.226s-4.614,4.272-6.86,6.519c-0.261,0.261-0.537,0.529-0.83,0.806
			c-0.293,0.277-0.569,0.546-0.83,0.806c-0.456,0.456-1.042,0.717-1.758,0.781c-0.163,0.033-0.391,0.049-0.684,0.049h-0.879
			c-0.456,0.033-0.928,0.058-1.416,0.073c-0.488,0.017-0.96,0.041-1.416,0.073c-1.692,0.065-3.386,0.139-5.078,0.22
			c-1.692,0.082-3.386,0.155-5.078,0.22c-0.488,0.033-1.009,0.131-1.563,0.293c-0.065,0.033-0.122,0.049-0.171,0.049
			s-0.105,0.017-0.171,0.049c-0.261,0.065-0.358,0.277-0.293,0.635c0.195,0.912,0.716,1.416,1.563,1.514
			c1.042,0.065,2.092,0.114,3.149,0.146c1.058,0.033,2.107,0.049,3.149,0.049c0.13-0.032,0.261-0.049,0.391-0.049s0.276,0,0.439,0
			h4.688c0.065,0,0.13,0.009,0.195,0.024c0.065,0.017,0.098,0.058,0.098,0.122c0,0.033,0.017,0.065,0.049,0.098
			c0,0.326-0.017,0.537-0.049,0.635l-1.465,1.758c-0.032,0-0.065,0.017-0.098,0.049c-0.456,0.521-0.92,1.042-1.392,1.563
			c-0.472,0.521-0.936,1.059-1.392,1.611c-1.074,1.14-2.238,2.401-3.491,3.784c-1.253,1.384-2.49,2.816-3.711,4.297
			c-1.221,1.481-2.368,2.971-3.442,4.468c-1.074,1.498-1.937,2.914-2.588,4.248c-0.064,0.163-0.146,0.326-0.244,0.488
			c-0.098,0.163-0.179,0.326-0.244,0.488c-0.488,1.01-0.716,2.035-0.684,3.076c-0.032,1.303,0.424,2.49,1.367,3.564
			c0.619,0.716,1.416,1.106,2.393,1.172c0.163,0.032,0.334,0.049,0.513,0.049s0.35,0,0.513,0c0.944,0,1.904-0.13,2.881-0.391
			c7.324-2.246,14.014-5.777,20.068-10.596C1453.101,339.636,1453.125,339.619,1453.142,339.619z M1488.625,336.592h-0.195
			c-0.554,0.098-1.229,0.317-2.026,0.659s-1.619,0.732-2.466,1.172s-1.66,0.879-2.441,1.318s-1.416,0.806-1.904,1.099
			c-1.953,1.14-3.401,1.921-4.346,2.344c-0.195,0-0.366-0.032-0.513-0.098c-0.146-0.064-0.22-0.228-0.22-0.488
			c0-0.26,0.017-0.455,0.049-0.586v-0.244c0.228-0.943,0.163-1.953-0.195-3.027c-0.358-1.041-0.92-1.839-1.685-2.393
			c-0.765-0.553-1.619-0.83-2.563-0.83c-0.391,0-0.813,0.049-1.27,0.146c-1.302,0.358-2.515,0.847-3.638,1.465
			c-1.123,0.619-2.254,1.286-3.394,2.002c-0.456,0.261-0.903,0.537-1.343,0.83s-0.887,0.57-1.343,0.83
			c-0.488,0.293-0.96,0.521-1.416,0.684c-0.098,0-0.195-0.049-0.293-0.146c-0.032,0-0.081-0.049-0.146-0.146
			c0-0.032-0.017-0.064-0.049-0.098c0.032-0.064,0.065-0.122,0.098-0.171s0.065-0.105,0.098-0.171
			c0.261-0.521,0.521-0.977,0.781-1.367c0.554-0.716,1.018-1.326,1.392-1.831c0.374-0.504,0.74-1.001,1.099-1.489
			c0.488-0.65,1.074-1.432,1.758-2.344c0.065-0.098,0.163-0.211,0.293-0.342c0.423-0.521,0.74-1.05,0.952-1.587
			s0.073-1.131-0.415-1.782c-0.261-0.26-0.586-0.439-0.977-0.537h-0.244c-0.358,0-0.635,0.098-0.83,0.293s-0.342,0.342-0.439,0.439
			c-0.163,0.163-0.252,0.269-0.269,0.317s-0.105,0.171-0.269,0.366c-0.032,0.033-0.146,0.18-0.342,0.439
			c-1.79,2.377-3.572,4.736-5.347,7.08c-1.773,2.344-3.54,4.704-5.298,7.08c-0.357,0.456-0.699,0.937-1.025,1.44
			c-0.325,0.505-0.635,1.018-0.928,1.538c-0.716,1.204-0.553,2.393,0.488,3.564c0.261,0.358,0.651,0.537,1.172,0.537
			c0.229,0,0.424-0.049,0.586-0.146c0.065-0.065,0.131-0.114,0.195-0.146c0.065-0.032,0.131-0.065,0.195-0.098
			c0.456-0.325,0.921-0.667,1.392-1.025c0.473-0.358,0.937-0.716,1.392-1.074c2.051-1.66,4.143-3.23,6.274-4.712
			c2.132-1.48,4.338-2.905,6.616-4.272c1.465-1.009,3.125-1.758,4.98-2.246c0.325-0.064,0.586-0.098,0.781-0.098
			c0.098,0.065,0.203,0.139,0.317,0.22c0.114,0.082,0.171,0.171,0.171,0.269c0.098,0.391,0.098,0.781,0,1.172
			c-0.13,0.521-0.325,1.059-0.586,1.611c-0.13,0.358-0.252,0.708-0.366,1.05s-0.22,0.692-0.317,1.05
			c-0.391,1.172-0.228,2.295,0.488,3.369c0.423,0.651,0.944,0.977,1.563,0.977c0.293,0,0.554-0.049,0.781-0.146l2.051-1.025
			c6.152-4.297,10.075-7.193,11.768-8.691C1488.853,337.26,1489.309,336.592,1488.625,336.592z M1521.74,338.203v-0.049
			c0-0.064-0.017-0.146-0.049-0.244c-0.13-0.293-0.407-0.439-0.83-0.439c-0.261,0-0.439,0.017-0.537,0.049
			c-0.228,0-1.888,0.781-4.98,2.344c-1.758,0.814-3.662,1.596-5.713,2.344c-2.051,0.749-4.297,1.449-6.738,2.1
			c-5.144,1.237-8.626,1.855-10.449,1.855c-0.813,0-1.497-0.064-2.051-0.195c-0.684-0.26-1.025-0.684-1.025-1.27
			c0-0.293,0.09-0.626,0.269-1.001c0.179-0.374,0.391-0.748,0.635-1.123c0.244-0.374,0.505-0.732,0.781-1.074
			s0.513-0.626,0.708-0.854c1.302-1.204,2.132-1.871,2.49-2.002h0.146c0.651,0.358,1.465,0.537,2.441,0.537
			c1.009,0,2.229-0.162,3.662-0.488c1.106-0.325,2.148-0.691,3.125-1.099c0.977-0.406,1.953-0.919,2.93-1.538
			c0.716-0.521,1.074-1.155,1.074-1.904v-0.195c0-0.65-0.293-1.367-0.879-2.148c-0.488-0.553-0.928-0.895-1.318-1.025
			c-0.488-0.228-0.977-0.342-1.465-0.342c-1.27,0-2.588,0.22-3.955,0.659s-2.71,1.01-4.028,1.709
			c-1.318,0.7-2.556,1.498-3.711,2.393c-1.155,0.896-2.156,1.815-3.003,2.759c-1.66,1.596-2.49,3.337-2.49,5.225v0.098
			c0,1.042,0.326,2.116,0.977,3.223c0.651,1.107,1.521,1.855,2.612,2.246s2.238,0.586,3.442,0.586c1.237,0,2.637-0.146,4.199-0.439
			c0.423,0,1.872-0.357,4.346-1.074c1.66-0.488,3.361-1.05,5.103-1.685s3.459-1.351,5.151-2.148c1.692-0.797,3.32-1.676,4.883-2.637
			C1519.055,340.393,1520.471,339.343,1521.74,338.203z M1498.889,335.176c2.734-1.106,4.573-1.692,5.518-1.758
			c0.228,0.033,0.342,0.082,0.342,0.146c0,0.195-0.261,0.505-0.781,0.928c-0.261,0.163-0.578,0.334-0.952,0.513
			c-0.374,0.18-0.838,0.383-1.392,0.61c-2.246,0.749-3.776,1.123-4.59,1.123c-0.195,0-0.293-0.049-0.293-0.146
			C1496.74,336.332,1497.456,335.859,1498.889,335.176z M1543.234,332.588c-0.521-1.302-1.367-1.953-2.539-1.953
			c-0.293,0-0.651,0.082-1.074,0.244c-0.032,0.033-0.098,0.049-0.195,0.049c-0.358,0.163-0.708,0.334-1.05,0.513
			c-0.342,0.18-0.691,0.366-1.05,0.562c-1.204,0.781-2.409,1.571-3.613,2.368c-1.204,0.798-2.409,1.604-3.613,2.417
			c-0.325,0.229-0.651,0.456-0.977,0.684c-0.325,0.229-0.651,0.473-0.977,0.732c-0.228,0.163-0.439,0.31-0.635,0.439
			c-0.195,0.131-0.407,0.277-0.635,0.439c0,0.033-0.065,0.049-0.195,0.049h-0.146h-0.146c-0.13,0-0.146-0.098-0.049-0.293
			c0.195-0.357,0.432-0.757,0.708-1.196s0.545-0.838,0.806-1.196c0.163-0.26,0.317-0.504,0.464-0.732
			c0.146-0.228,0.301-0.455,0.464-0.684l2.344-3.809c0.261-0.455,0.31-0.919,0.146-1.392c-0.163-0.472-0.505-0.87-1.025-1.196
			c-0.13-0.098-0.276-0.146-0.439-0.146c-0.065,0-0.114,0.009-0.146,0.024c-0.032,0.017-0.065,0.024-0.098,0.024
			c-0.293,0.163-0.569,0.407-0.83,0.732c-2.376,3.256-4.736,6.511-7.08,9.766c-2.344,3.256-4.703,6.527-7.08,9.814
			c-0.228,0.261-0.439,0.545-0.635,0.854s-0.374,0.627-0.537,0.952c-0.391,0.847-0.244,1.66,0.439,2.441
			c0.391,0.488,0.83,0.732,1.318,0.732c0.229,0,0.456-0.081,0.684-0.244c0.488-0.456,0.977-0.903,1.465-1.343
			s0.961-0.887,1.416-1.343c2.539-2.441,5.159-4.744,7.861-6.909c2.702-2.164,5.518-4.239,8.447-6.226
			c0.261-0.162,0.569-0.325,0.928-0.488c0.098-0.032,0.212-0.081,0.342-0.146c0.032-0.032,0.081-0.049,0.146-0.049
			c0.163,0,0.212,0.098,0.146,0.293c-0.065,0.131-0.114,0.261-0.146,0.391c-0.032,0.131-0.081,0.261-0.146,0.391
			c-0.065,0.229-0.13,0.439-0.195,0.635s-0.13,0.407-0.195,0.635c-0.13,0.358-0.146,0.732-0.049,1.123
			c0.163,0.619,0.415,1.196,0.757,1.733s0.822,0.985,1.44,1.343c0.391,0.131,0.798,0.195,1.221,0.195h0.195
			c0.195,0,0.342-0.089,0.439-0.269c0.098-0.179,0.114-0.35,0.049-0.513c-0.032-0.032-0.049-0.064-0.049-0.098
			c0-0.032-0.017-0.064-0.049-0.098c-0.065-0.195-0.163-0.357-0.293-0.488c-0.781-0.716-0.879-1.48-0.293-2.295
			c0.358-0.521,0.725-1.041,1.099-1.563c0.374-0.521,0.74-1.058,1.099-1.611c0.13-0.162,0.244-0.325,0.342-0.488
			c0.098-0.162,0.212-0.325,0.342-0.488c0.13-0.13,0.212-0.244,0.244-0.342c0.13-0.162,0.261-0.342,0.391-0.537
			s0.261-0.406,0.391-0.635C1543.446,333.809,1543.462,333.207,1543.234,332.588z"/>
	</g>
</g>
<path fill-rule="evenodd" clip-rule="evenodd" fill="#F2F2F2" d="M532.535,337.654h218c2.761,0,5,2.238,5,5s-2.239,5-5,5h-218
	c-2.762,0-5-2.238-5-5S529.773,337.654,532.535,337.654z"/>
<path fill-rule="evenodd" clip-rule="evenodd" fill="#F2F2F2" d="M1564.571,337.654h218c2.761,0,5,2.238,5,5s-2.239,5-5,5h-218
	c-2.762,0-5-2.238-5-5S1561.81,337.654,1564.571,337.654z"/>
</svg>
