<?xml version="1.0" encoding="utf-8"?>
<!-- Generator: Adobe Illustrator 16.0.0, SVG Export Plug-In . SVG Version: 6.00 Build 0)  -->
<!DOCTYPE svg PUBLIC "-//W3C//DTD SVG 1.1//EN" "http://www.w3.org/Graphics/SVG/1.1/DTD/svg11.dtd">
<svg version="1.1" id="Layer_1" xmlns="http://www.w3.org/2000/svg" xmlns:xlink="http://www.w3.org/1999/xlink" x="0px" y="0px"
	 width="1954.665px" height="1345.283px" viewBox="0 0 1954.665 1345.283" enable-background="new 0 0 1954.665 1345.283"
	 xml:space="preserve">
<g>
	<path fill-rule="evenodd" clip-rule="evenodd" fill="#093082" d="M1954.665,608.166v16.086h-67.103v-86.663h65.49v16.095h-45.551
		v18.819h40.232v15.595h-40.232v20.068H1954.665z M1779.365,1060.737c-32.851,33.962-71.722,60.511-116.604,79.66
		c-44.907,19.132-93.61,28.739-146.166,28.739c-28.481,0-56.126-3.563-82.939-10.671c-26.837-7.14-52.015-16.166-75.549-27.111
		c-23.55-10.93-44.907-22.986-64.048-36.122c-19.165-13.139-35.309-25.711-48.444-37.768l-59.124,85.398
		c-7.673,10.928-14.781,16.425-21.351,16.425c-9.856,0-14.779-7.142-14.779-21.358V843.955c0-15.313,3.819-22.984,11.491-22.984
		c8.752,0,14.782,7.124,18.07,21.341c12.032,45.987,29.279,87.604,51.733,124.824c22.429,37.234,48.985,68.44,79.651,93.602
		c30.641,25.21,64.047,44.634,100.178,58.302c36.13,13.7,73.905,20.535,113.323,20.535c33.923,0,67.337-6.012,100.179-18.068
		c32.851-12.025,61.848-28.999,87.042-50.903c25.177-21.891,45.422-49.001,60.768-81.304c15.321-32.285,22.993-68.15,22.993-107.561
		c0-31.754-6.567-63.234-19.706-94.439c-8.444-20.053-21.944-37.236-40.336-51.646h146.938c2.265,17.312,3.425,35.333,3.425,54.11
		c0,53.66-9.589,103.741-28.738,150.276C1838.207,986.575,1812.215,1026.824,1779.365,1060.737z M1816.14,624.252l-16.707-24.146
		h-0.991h-17.457v24.146h-20.06v-86.663h37.517c23.146,0,37.638,12.009,37.638,31.448c0,13-6.562,22.526-17.828,27.362
		l19.431,27.854H1816.14z M1797.328,553.93h-16.344v30.211h16.344c12.251,0,18.44-5.694,18.44-15.104
		C1815.769,559.502,1809.579,553.93,1797.328,553.93z M1705.476,537.589v48.526c0,25.516-14.612,39.62-39.249,39.62
		c-24.63,0-39.242-14.104-39.242-39.62v-48.526h20.053v47.785c0,16.473,7.181,23.275,19.317,23.275
		c12.259,0,19.312-6.802,19.312-23.275v-47.785H1705.476z M1535.012,624.252V553.93h-27.733v-16.341h75.517v16.341h-27.731v70.322
		H1535.012z M1476.709,624.252h-21.052l-7.672-18.569h-40.24l-7.673,18.569h-20.552l38.63-86.663h19.809L1476.709,624.252z
		 M1414.184,590.451h27.482l-13.739-33.176L1414.184,590.451z M1255.236,624.252v-86.663h16.586l43.086,52.62v-52.62h19.81v86.663
		h-16.465l-43.207-52.616v52.616H1255.236z M1815.495,334.834c-8.777,0-13.701-5.464-14.781-16.421
		c-4.384-35.03-13.42-68.976-27.096-101.827c-13.701-32.846-32.028-61.84-55.021-87.042c-22.994-25.173-51.476-45.419-85.397-60.764
		c-33.955-15.321-73.365-22.994-118.248-22.994c-29.562,0-58.865,4.106-87.864,12.319c-29.021,8.208-54.764,20.527-77.185,36.952
		c-22.453,16.421-40.805,37.517-55.021,63.227c-14.24,25.737-21.349,55.582-21.349,89.508c0,36.13,8.752,67.9,26.273,95.254
		c17.505,27.382,43.238,47.627,77.192,60.764c30.643,12.061,58.561,22.171,83.762,30.384c18.674,6.093,36.558,11.582,54.038,16.768
		h-315.14c-17.408-35.764-26.305-73.885-26.305-114.484c0-42.703,7.641-83.193,22.984-121.532
		c15.322-38.311,37.775-72.261,67.337-101.823s65.41-53.096,107.577-70.621c42.134-17.501,90.04-26.277,143.699-26.277
		c26.273,0,49.524,1.386,69.803,4.106c20.245,2.744,39.41,6.851,57.48,12.318c18.061,5.489,35.847,12.597,53.368,21.35
		c17.505,8.777,36.131,18.629,55.845,29.562l47.622-60.768c6.576-8.749,12.573-13.137,18.07-13.137
		c6.567,0,9.856,5.493,9.856,16.421v292.335C1826.996,329.37,1823.144,334.834,1815.495,334.834z M1202.634,551.084l-12.881,11.884
		c-6.31-6.686-13.619-9.78-22.404-9.78c-16.836,0-28.353,11.267-28.353,27.736c0,16.216,11.517,27.725,28.103,27.725
		c5.448,0,10.525-0.983,15.604-3.708v-25.383h18.319v35.167c-9.535,7.173-22.656,11.009-35.035,11.009
		c-27.241,0-47.292-18.698-47.292-44.811c0-26.125,20.051-44.822,47.663-44.822C1181.582,536.102,1194.211,541.305,1202.634,551.084
		z M1058.086,1329.793l-12.249-17.699h-0.726h-12.798v17.699h-14.701v-63.54h27.499c16.973,0,27.587,8.817,27.587,23.05
		c0,9.542-4.811,16.522-13.063,20.068l14.24,20.422H1058.086z M1044.297,1278.244h-11.983v22.133h11.983
		c8.979,0,13.516-4.176,13.516-11.074C1057.813,1282.323,1053.275,1278.244,1044.297,1278.244z M1047.884,537.589h20.052v86.663
		h-20.052V537.589z M806.315,308.557c-18.065-60.2-42.703-108.649-73.905-145.343c-31.207-36.67-67.079-62.948-107.573-78.829
		c-40.519-15.861-83.218-23.816-128.101-23.816H319.369v390.394H160.063V60.568H15.538V34.291h484.484
		c75.549,0,144.783,12.883,207.755,38.596c62.944,25.738,117.144,62.408,162.587,110.035
		c45.422,47.627,80.731,104.567,105.928,170.799c11.742,30.908,20.633,63.363,26.902,97.241H830.61
		C826.673,396.94,818.582,349.458,806.315,308.557z M22.771,624.252v-86.663h39.371c28.353,0,47.788,17.086,47.788,43.335
		c0,26.242-19.435,43.328-47.788,43.328H22.771z M89.624,580.924c0-16.594-11.263-26.87-28.474-26.87H42.827v53.724H61.15
		C78.361,607.778,89.624,597.511,89.624,580.924z M227.778,608.166v16.086h-67.103v-86.663h65.491v16.095h-45.56v18.819h40.237
		v15.595h-40.237v20.068H227.778z M334.606,624.252l-16.711-24.146h-0.992h-17.457v24.146h-20.056v-86.663h37.512
		c23.15,0,37.638,12.009,37.638,31.448c0,13-6.564,22.526-17.827,27.362l19.435,27.854H334.606z M315.791,553.93h-16.344v30.211
		h16.344c12.254,0,18.444-5.694,18.444-15.104C334.235,559.502,328.045,553.93,315.791,553.93z M461.248,624.252l-16.715-24.146
		h-0.991h-17.457v24.146h-20.056v-86.663h37.513c23.151,0,37.637,12.009,37.637,31.448c0,13-6.56,22.526-17.827,27.362
		l19.436,27.854H461.248z M442.429,553.93h-16.345v30.211h16.345c12.254,0,18.444-5.694,18.444-15.104
		C460.873,559.502,454.683,553.93,442.429,553.93z M552.722,537.589v86.663h-20.056v-86.663H552.722z M651.51,608.649
		c8.668,0,15.97-3.466,21.789-10.268l12.875,11.88c-8.168,10.026-20.672,15.474-35.779,15.474
		c-26.862,0-46.918-18.698-46.918-44.811c0-26.125,20.056-44.822,47.043-44.822c14.982,0,27.486,5.448,35.654,15.353l-12.875,11.884
		c-5.819-6.686-13.121-10.15-21.789-10.15c-16.22,0-27.732,11.392-27.732,27.736C623.778,597.269,635.29,608.649,651.51,608.649z
		 M794.613,624.252l-27.732-34.043l-11.633,12.138v21.905h-19.935v-86.663h19.935v40.486l38.378-40.486h22.284l-35.905,38.629
		l38.009,48.034H794.613z M160.063,735.653h159.306v376.003h177.368c45.987,0,89.226-7.655,129.745-23.001
		c40.491-15.313,76.085-41.877,106.751-79.644c30.638-37.781,55.018-88.685,73.083-152.741
		c9.917-35.155,17.094-75.388,21.566-120.617H996.94c-5.383,24.033-11.896,47.325-19.826,69.714
		c-24.633,69.537-59.406,128.919-104.285,178.193c-44.907,49.259-99.107,87.316-162.591,114.137
		c-63.512,26.84-133.593,40.232-210.217,40.232H15.538v-26.273h144.526V735.653z M465.011,1289.303
		c0,14.169-10.614,22.969-27.587,22.969H424.63v17.521h-14.705v-63.54h27.499C454.397,1266.253,465.011,1275.07,465.011,1289.303z
		 M424.63,1278.244v22.051h11.976c8.986,0,13.524-4.094,13.524-10.992c0-6.979-4.538-11.059-13.524-11.059H424.63z
		 M585.024,1289.303c0,9.542-4.808,16.522-13.068,20.068l14.25,20.422h-15.793l-12.25-17.699h-0.726h-12.794v17.699h-14.704v-63.54
		h27.499C574.41,1266.253,585.024,1275.07,585.024,1289.303z M544.642,1278.244v22.133h11.977c8.986,0,13.523-4.176,13.523-11.074
		c0-6.979-4.538-11.059-13.523-11.059H544.642z M681.894,1265.173c19.967,0,34.76,13.878,34.76,32.851
		c0,18.972-14.793,32.85-34.76,32.85c-20.056,0-34.756-13.975-34.756-32.85C647.138,1279.147,661.838,1265.173,681.894,1265.173z
		 M681.894,1318.35c11.344,0,19.878-8.253,19.878-20.326s-8.535-20.326-19.878-20.326s-19.875,8.253-19.875,20.326
		S670.55,1318.35,681.894,1318.35z M837.304,1289.303c0,14.169-10.619,22.969-27.588,22.969h-12.794v17.521h-14.704v-63.54h27.498
		C826.685,1266.253,837.304,1275.07,837.304,1289.303z M796.922,1278.244v22.051h11.977c8.986,0,13.523-4.094,13.523-10.992
		c0-6.979-4.537-11.059-13.523-11.059H796.922z M950.24,1278.051h-33.398v13.799h29.494v11.444h-29.494v14.7h34.579v11.799h-49.19
		v-63.54h48.01V1278.051z M998.496,598.865c0,14.491-12.008,26.87-36.767,26.87c-13.741,0-27.608-4.078-35.285-10.026l6.811-15.104
		c7.301,5.319,18.198,9.043,28.594,9.043c11.888,0,16.715-3.965,16.715-9.285c0-16.223-50.387-5.078-50.387-37.271
		c0-14.733,11.884-26.991,36.525-26.991c10.888,0,22.035,2.604,30.077,7.677l-6.188,15.228c-8.043-4.582-16.336-6.81-24.017-6.81
		c-11.883,0-16.465,4.457-16.465,9.905C948.108,578.075,998.496,567.054,998.496,598.865z M1186.086,1278.244h-20.326v51.549
		h-14.699v-51.549h-20.333v-11.991h55.358V1278.244z M1263.167,1329.793h-14.7v-63.54h14.7V1329.793z M1380.723,1278.051h-33.399
		v13.799h29.497v11.444h-29.497v14.7h34.576v11.799h-49.188v-63.54h48.012V1278.051z M1469.061,1319.074
		c8.713,0,12.25-2.901,12.25-6.803c0-11.895-36.935-3.724-36.935-27.321c0-10.799,8.711-19.777,26.772-19.777
		c7.986,0,16.15,1.901,22.051,5.626l-4.539,11.154c-5.899-3.353-11.975-4.981-17.608-4.981c-8.713,0-12.065,3.256-12.065,7.254
		c0,11.702,36.937,3.627,36.937,26.949c0,10.623-8.802,19.698-26.959,19.698c-10.066,0-20.237-2.998-25.863-7.351l4.998-11.072
		C1453.449,1316.35,1461.436,1319.074,1469.061,1319.074z"/>
</g>
</svg>
