<?xml version="1.0" encoding="utf-8"?>
<!-- Generator: Adobe Illustrator 16.0.0, SVG Export Plug-In . SVG Version: 6.00 Build 0)  -->
<!DOCTYPE svg PUBLIC "-//W3C//DTD SVG 1.1//EN" "http://www.w3.org/Graphics/SVG/1.1/DTD/svg11.dtd">
<svg version="1.1" id="Layer_1" xmlns="http://www.w3.org/2000/svg" xmlns:xlink="http://www.w3.org/1999/xlink" x="0px" y="0px"
	 width="1773.859px" height="469.011px" viewBox="0 0 1773.859 469.011" enable-background="new 0 0 1773.859 469.011"
	 xml:space="preserve">
<path d="M277.336,430.582V197.609l14.559,6.241l-0.036,187.161l8-9l0.355-113.68l14.56,4.16l0.086,94.52l133-134l-209-208l-209,207
	l135,138l0.165-93.358l14.559-8.319l0.276,115.678l8,9l0.044-187.081l14.559-8.32v235.052L4.875,232.972L237.819,0l235.023,232.972
	L277.336,430.582z M224.858,430.011l9,10l-0.2-352.647l12.479-4.16l-0.279,353.807l8-8l0.6-316.687l14.559,6.241V438.9
	l-30.158,30.109l-28-28l-0.079-318.284l14.56-10.401L224.858,430.011z"/>
<path d="M1773.429,183.49v20.396h-76.75V99.654h76.75v20.396h-54.645v20.687h52.107v20.033h-52.107v22.72H1773.429z
	 M1652.47,203.885h-22.104V120.05h-29.715V99.654h81.533v20.396h-29.715V203.885L1652.47,203.885z M1582.527,183.344h-40.223
	l-8.189,20.541h-22.828l40.656-104.231h21.018l40.73,104.231h-22.9L1582.527,183.344z M1562.453,129.704l-12.9,34.043h25.799
	L1562.453,129.704z M1490.435,203.885h-22.104V120.05h-29.715V99.654h81.533v20.396h-29.717v83.835H1490.435z M1393.216,141.076
	c23.318,3.692,35.02,14.526,35.109,32.501c0,9.518-3.828,17.239-11.48,23.164c-7.605,5.877-17.609,8.814-30.01,8.814
	c-8.891,0-17.104-1.815-24.639-5.447c-7.537-3.63-13.723-8.516-18.555-14.657l15.148-15.278
	c7.727,9.991,17.508,14.986,29.344,14.986c5.545,0,9.945-1.048,13.201-3.144c3.256-2.097,4.883-4.808,4.883-8.133
	c0-5.445-4.852-9.084-14.557-10.915l-12.766-2.197c-10.389-1.742-18.457-5.264-24.207-10.565c-5.75-5.299-8.625-12.184-8.625-20.655
	c0-9.579,3.771-17.198,11.32-22.858c7.496-5.757,16.564-8.635,27.205-8.635c16.313,0,29.701,5.501,40.158,16.502l-14.955,15.725
	c-7.869-8.129-16.684-12.194-26.434-12.194c-4.631,0-8.318,0.955-11.064,2.865c-2.752,1.909-4.125,4.432-4.125,7.565
	c0,5.498,4.908,9.137,14.723,10.921L1393.216,141.076z M1255.328,99.654h76.75v20.396h-54.646v20.687h52.111v20.033h-52.111v22.72
	h54.646v20.396h-76.75V99.654z M1152.882,97.331h22.105v83.835h47.543v20.396h-69.648V97.331z M1109.339,181.022h-40.223
	l-8.189,20.541h-22.83l40.658-104.232h21.018l40.73,104.232h-22.902L1109.339,181.022z M1089.263,127.38l-12.898,34.043h25.799
	L1089.263,127.38z M950.681,97.331h76.75v20.395h-54.645v20.688h52.107v20.033h-52.107v22.719h54.645v20.396h-76.75V97.331z
	 M910.882,201.563l-20.512-33.606h-17.682v33.606h-22.105V97.331h43.125c11.664,0,21.176,3.024,28.531,9.074
	c7.551,6.096,11.326,14.42,11.326,24.968c0,7.234-1.85,13.706-5.543,19.421c-3.697,5.713-8.73,10.064-15.105,13.055l23.049,37.715
	L910.882,201.563L910.882,201.563z M906.171,121.356c-3.527-2.419-8.986-3.63-16.379-3.63h-17.105v30.197h17.105
	c14.445,0,21.67-5.105,21.67-15.316C911.462,127.526,909.697,123.777,906.171,121.356z M802.195,205.7l-11.274-11.104
	c-8.986,5.759-19.037,8.637-30.148,8.637c-15.075,0-27.734-5.056-37.978-15.17c-10.292-10.308-15.437-23.202-15.437-38.688
	c0-15.389,5.145-28.163,15.437-38.325c10.194-10.209,22.854-15.315,37.978-15.315c15.198,0,27.961,5.106,38.286,15.315
	c10.373,10.114,15.563,22.889,15.563,38.325c0,11.663-3.155,22.065-9.463,31.21l11.088,11.18L802.195,205.7z M783.529,126.219
	c-4.74-5.216-10.496-8.318-17.269-9.306c-1.711-0.316-3.467-0.489-5.261-0.489c-2.382,0-4.698,0.299-6.924,0.847
	c-6.173,1.251-11.361,4.181-15.555,8.803c-5.652,6.388-8.479,14.155-8.479,23.3c0,9.29,2.826,17.13,8.479,23.517
	c5.604,6.341,13.215,9.509,22.829,9.509c5.557,0,10.315-1.04,14.278-3.12l0.244-0.099c5.844-3.222,9.822-7.521,12.749-13.828
	l0.488-0.808c2.077-4.502,3.115-9.557,3.115-15.171C792.226,140.326,789.327,132.606,783.529,126.219z M663.034,138.753
	c23.317,3.693,35.021,14.525,35.107,32.5c0,9.52-3.827,17.24-11.479,23.165c-7.605,5.877-17.609,8.814-30.01,8.814
	c-8.891,0-17.103-1.814-24.639-5.446c-7.538-3.631-13.721-8.516-18.553-14.657l15.147-15.278c7.728,9.99,17.51,14.986,29.344,14.986
	c5.545,0,9.946-1.049,13.202-3.145c3.254-2.096,4.882-4.807,4.882-8.133c0-5.445-4.853-9.083-14.558-10.915l-12.766-2.196
	c-10.389-1.742-18.457-5.264-24.207-10.565c-5.75-5.3-8.624-12.185-8.624-20.655c0-9.579,3.771-17.197,11.318-22.857
	c7.496-5.757,16.563-8.635,27.206-8.635c16.313,0,29.701,5.501,40.158,16.502l-14.954,15.724
	c-7.87-8.129-16.682-12.193-26.434-12.193c-4.63,0-8.319,0.955-11.066,2.865c-2.75,1.91-4.123,4.433-4.123,7.565
	c0,5.497,4.906,9.137,14.723,10.921L663.034,138.753z M587.172,189.513c-11.5,8.034-24.666,12.05-39.499,12.05h-34.28V97.331h34.28
	c14.979,0,28.096,3.823,39.354,11.467c5.846,3.92,10.424,9.353,13.733,16.296c3.31,6.944,4.964,14.844,4.964,23.699
	c0,8.953-1.644,16.926-4.929,23.917C597.511,179.704,592.97,185.304,587.172,189.513z M544.268,117.726h-8.77v63.44h8.915
	c25.945,0,38.919-10.79,38.919-32.373C583.332,128.083,570.309,117.726,544.268,117.726z"/>
<g>
	<g>
		<path d="M757.079,291.891l-13.041,29.28l-13.04-29.28h-10.24l18.562,38.159v21.041h9.439V330.05l18.562-38.159H757.079
			L757.079,291.891z M786.199,306.292c-14.641,0-23.201,11.359-23.201,22.959v0.08c0,11.682,8.561,22.961,23.201,22.961
			c14.64,0,23.201-11.279,23.201-22.961C809.399,317.652,800.839,306.292,786.199,306.292z M786.199,344.533
			c-8.32,0-14.88-6.479-14.88-15.121v-0.08c0-8.72,6.56-15.199,14.88-15.199c8.319,0,14.88,6.479,14.88,15.199
			C801.079,338.052,794.519,344.533,786.199,344.533z M849.639,331.892c0,7.439-3.76,12.641-11.92,12.72
			c-8.561,0-11.601-5.6-11.601-13.44v-23.601h-8.32v25.521c0,9.041,3.601,19.201,17.601,19.281c7.76,0.08,12.641-3.521,14.721-8
			v6.721h7.84v-43.521h-8.32V331.892z M876.678,313.971v-6.4h-7.84v43.521h8.32v-23.521c0-8.641,4.08-12.96,11.919-12.96h0.561
			v-8.32C883.718,306.373,879.158,308.851,876.678,313.971z M931.238,300.21h13.6v50.881h9.439V300.21h13.602v-8.319h-36.641V300.21
			L931.238,300.21z M977.958,313.971v-6.4h-7.84v43.521h8.318v-23.521c0-8.641,4.08-12.96,11.922-12.96h0.561v-8.32
			C984.998,306.373,980.437,308.851,977.958,313.971z M1029.238,331.892c0,7.439-3.76,12.641-11.92,12.72
			c-8.561,0-11.602-5.6-11.602-13.44v-23.601h-8.318v25.521c0,9.041,3.6,19.201,17.6,19.281c7.762,0.08,12.641-3.521,14.721-8v6.721
			h7.84v-43.521h-8.318v24.32H1029.238z M1062.998,325.011c-4.641-1.279-7.76-2.881-7.92-6.319c-0.08-2.881,2.16-5.601,6.24-5.601
			c4.238-0.08,6.318,2.479,6.318,5.84h8.24c-0.639-9.68-8.48-12.641-14.48-12.641c-7.92,0-14.641,4.961-14.641,13.201
			c0.08,6.559,4.881,9.438,10.961,11.279c7.76,2.561,11.041,4,11.121,8.32c0,3.68-3.121,6.479-7.121,6.479
			c-3.119,0-7.359-1.76-7.68-7.04h-8.24c0.4,9.921,8.961,13.841,15.84,13.841c8.641,0,15.682-5.761,15.521-14.24
			C1076.917,328.772,1069.638,326.852,1062.998,325.011z M1097.156,291.891h-8.32v15.68h-7.84v6.479h7.84v37.041h8.32V314.05h8.4
			v-6.479h-8.4V291.891z M1129.556,306.292c-13.199,0-22.961,10.64-22.961,23.119c0,11.521,8.801,22.961,23.041,22.961
			c4.4,0,8.721-1.199,12.4-3.681c3.68-2.399,6.721-6,8.801-10.8h-8.641c-2.4,4.561-6.721,7.359-12.561,7.359
			c-6.561,0-14.24-4.479-14.641-13.28h37.201c0.719-7.279-1.441-14.08-6.563-19.28
			C1141.476,308.611,1135.796,306.292,1129.556,306.292z M1115.156,325.492c0.4-5.92,5.92-12.08,14.4-12.08
			c8.24-0.16,14,6.319,14.4,12.08H1115.156z M1196.117,307.011v7.68c-1.762-3.439-7.201-8.398-16.082-8.398
			c-12.4,0-22.16,9.438-22.16,22.959c0,12.562,8.641,23.121,22.32,23.121c8.959,0,13.842-4.399,16.24-8.881v7.602h8v-59.201h-8.318
			V307.011L1196.117,307.011z M1192.355,340.052c-2.721,2.8-6.641,4.56-10.881,4.56c-9.6,0-15.199-7.28-15.279-15.28v-0.08
			c0-8.16,6.08-15.199,15.279-15.199c4.24,0,8,1.6,10.721,4.32c2.721,2.64,4.4,6.399,4.4,10.719
			C1196.755,333.412,1195.156,337.251,1192.355,340.052z M1319.714,295.891c-3.52-2.802-7.439-4-16.641-4h-16.879v59.2h9.439v-21.68
			h8.32c8.16,0,12.16-1.281,16.16-4.4c3.68-2.961,6.158-8.881,6.158-14.561C1326.275,304.771,1323.875,299.091,1319.714,295.891z
			 M1312.996,319.091c-2.563,1.601-5.441,2-9.201,2h-8.16V300.21h7.84c3.92,0,6.801,0.319,9.441,1.92
			c2.479,1.439,4.318,4.479,4.318,8.479C1317.234,314.612,1315.394,317.731,1312.996,319.091z M1367.234,315.251
			c-2-4.16-7.52-8.961-16.16-8.961c-12.641,0-22.32,9.76-22.32,23.041c0,12.16,8.32,23.039,22.32,23.039
			c6.881,0,13.121-3.039,16.16-8.879v7.6h8.32v-43.52h-8.32V315.251z M1365.794,335.972c-2.16,4.96-6.881,8.64-13.52,8.64
			c-10.563,0-15.121-8.64-15.201-15.12v-0.08c0-8.16,5.92-15.359,15.041-15.359c6.959,0,11.84,3.92,13.92,8.96
			c0.961,2,1.359,4.239,1.279,6.479S1366.755,333.971,1365.794,335.972z M1394.353,313.971v-6.4h-7.84v43.521h8.32v-23.521
			c0-8.641,4.08-12.96,11.92-12.96h0.563v-8.32C1401.394,306.373,1396.833,308.851,1394.353,313.971z M1426.753,291.891h-8.32v15.68
			h-7.842v6.479h7.842v37.041h8.32V314.05h8.398v-6.479h-8.398V291.891z M1463.953,306.292c-7.762-0.08-12.643,3.52-14.721,8v-6.722
			h-7.842v43.521h8.32v-24.239c0-7.521,3.76-12.642,11.92-12.722c8.48-0.08,11.521,5.521,11.521,13.361v23.6h8.4v-25.521
			C1481.552,316.533,1477.873,306.451,1463.953,306.292z M1512.189,306.292c-13.199,0-22.959,10.64-22.959,23.119
			c0,11.521,8.801,22.961,23.039,22.961c4.4,0,8.723-1.199,12.4-3.681c3.682-2.399,6.721-6,8.801-10.8h-8.641
			c-2.4,4.561-6.719,7.359-12.561,7.359c-6.561,0-14.24-4.479-14.641-13.28h37.201c0.719-7.279-1.439-14.08-6.561-19.28
			C1524.111,308.611,1518.431,306.292,1512.189,306.292z M1497.791,325.492c0.4-5.92,5.92-12.08,14.4-12.08
			c8.238-0.16,14,6.319,14.398,12.08H1497.791z M1550.83,313.971v-6.4h-7.84v43.521h8.318v-23.521c0-8.641,4.08-12.96,11.92-12.96
			h0.563v-8.32C1557.869,306.373,1553.31,308.851,1550.83,313.971z"/>
	</g>
</g>
<path d="M517.358,317.511h176.5c2.762,0,5,2.238,5,5s-2.238,5-5,5h-176.5c-2.763,0-5-2.238-5-5S514.597,317.511,517.358,317.511z"/>
<path d="M1592.359,317.511h176.5c2.762,0,5,2.238,5,5s-2.238,5-5,5h-176.5c-2.764,0-5-2.238-5-5S1589.597,317.511,1592.359,317.511z
	"/>
</svg>
