<?xml version="1.0" encoding="utf-8"?>
<!-- Generator: Adobe Illustrator 15.0.0, SVG Export Plug-In . SVG Version: 6.00 Build 0)  -->
<!DOCTYPE svg PUBLIC "-//W3C//DTD SVG 1.1//EN" "http://www.w3.org/Graphics/SVG/1.1/DTD/svg11.dtd">
<svg version="1.1" id="Layer_1" xmlns="http://www.w3.org/2000/svg" xmlns:xlink="http://www.w3.org/1999/xlink" x="0px" y="0px"
	 width="409.355px" height="288.098px" viewBox="0 0 409.355 288.098" enable-background="new 0 0 409.355 288.098"
	 xml:space="preserve" fill="#ffffff">
<g>
	<defs>
		<rect id="SVGID_1_" width="409.355" height="288.098"/>
	</defs>
	<clipPath id="SVGID_2_">
		<use xlink:href="#SVGID_1_"  overflow="visible"/>
	</clipPath>
	<path clip-path="url(#SVGID_2_)" d="M399.766,288.098c-5.298,0-9.584-4.292-9.584-9.584V135.587H19.174v142.927
		c0,5.298-4.292,9.584-9.59,9.584c-5.297,0-9.584-4.292-9.584-9.584V126.003c0-5.303,4.287-9.584,9.584-9.584h390.182
		c5.304,0,9.59,4.286,9.59,9.584v152.511C409.355,283.806,405.063,288.098,399.766,288.098"/>
	<path clip-path="url(#SVGID_2_)" d="M399.766,226.737H9.583c-5.297,0-9.584-4.292-9.584-9.584c0-5.304,4.287-9.59,9.584-9.59
		h390.182c5.304,0,9.59,4.292,9.59,9.59S405.063,226.737,399.766,226.737"/>
	<path clip-path="url(#SVGID_2_)" d="M359.638,135.587H49.712c-5.305,0-9.59-4.292-9.59-9.584V9.59c0-5.298,4.285-9.59,9.59-9.59
		h309.926c5.298,0,9.584,4.292,9.584,9.59v116.413C369.228,131.295,364.936,135.587,359.638,135.587 M59.296,116.413h290.758V19.174
		H59.296V116.413z"/>
	<path clip-path="url(#SVGID_2_)" d="M316.629,129.206H96.376c-5.299,0-9.584-4.292-9.584-9.589V59.808
		c0-5.304,4.285-9.59,9.584-9.59h220.253c5.304,0,9.584,4.292,9.584,9.59v59.802C326.213,124.914,321.927,129.206,316.629,129.206
		 M105.96,110.026h201.085V69.398H105.96V110.026z"/>
	<path clip-path="url(#SVGID_2_)" d="M206.49,129.207c-5.298,0-9.584-4.292-9.584-9.59v-55.01c0-5.298,4.286-9.584,9.584-9.584
		c5.305,0,9.59,4.292,9.59,9.584v55.01C216.08,124.915,211.788,129.207,206.49,129.207"/>
</g>
</svg>
