<?xml version="1.0" encoding="utf-8"?>
<!-- Generator: Adobe Illustrator 15.0.0, SVG Export Plug-In . SVG Version: 6.00 Build 0)  -->
<!DOCTYPE svg PUBLIC "-//W3C//DTD SVG 1.1//EN" "http://www.w3.org/Graphics/SVG/1.1/DTD/svg11.dtd">
<svg version="1.1" id="Layer_1" xmlns="http://www.w3.org/2000/svg" xmlns:xlink="http://www.w3.org/1999/xlink" x="0px" y="0px"
	 width="301.995px" height="302.061px" viewBox="0 0 301.995 302.061" enable-background="new 0 0 301.995 302.061"
	 xml:space="preserve" fill="#fff">
<g>
	<defs>
		<rect id="SVGID_1_" width="301.995" height="302.061"/>
	</defs>
	<clipPath id="SVGID_2_">
		<use xlink:href="#SVGID_1_"  overflow="visible"/>
	</clipPath>
	<path clip-path="url(#SVGID_2_)" d="M117.469,0c-4.635,0-8.39,3.757-8.39,8.391v58.734c0,4.634,3.755,8.391,8.39,8.391
		c4.634,0,8.391-3.757,8.391-8.391V8.391C125.859,3.757,122.103,0,117.469,0 M36.84,29.237c-4.612,0.449-7.988,4.553-7.539,9.165
		c0.195,2.002,1.103,3.867,2.558,5.256L65.42,77.22c3.228,3.325,8.54,3.404,11.866,0.177c3.326-3.228,3.405-8.54,0.177-11.866
		c-0.08-0.082-0.161-0.162-0.244-0.241L43.658,31.728C41.879,29.907,39.372,28.991,36.84,29.237 M192.984,33.301
		c-0.353,0.022-0.703,0.065-1.049,0.131c-1.85,0.267-3.557,1.144-4.851,2.49l-33.562,33.563c-3.36,3.192-3.495,8.504-0.303,11.863
		c3.191,3.359,8.504,3.495,11.863,0.303c0.081-0.077,0.16-0.155,0.238-0.236l33.562-33.562c3.402-3.146,3.613-8.454,0.468-11.857
		C197.715,34.223,195.396,33.242,192.984,33.301 M97.541,89.414c-4.63,0.196-8.224,4.108-8.028,8.739
		c0.039,0.913,0.227,1.813,0.556,2.666l74.204,192.854c1.687,4.316,6.553,6.448,10.87,4.762c1.856-0.726,3.394-2.088,4.338-3.845
		l23.729-44.051l48.901,49.033c3.259,3.295,8.573,3.322,11.867,0.062c0.021-0.021,0.042-0.042,0.063-0.062l35.528-35.66
		c3.232-3.27,3.232-8.53,0-11.8l-48.771-48.9l43.92-23.861c4.066-2.224,5.56-7.322,3.336-11.389
		c-0.959-1.754-2.515-3.109-4.385-3.819L100.95,89.938C99.862,89.529,98.702,89.35,97.541,89.414 M8.391,109.079
		c-4.634,0-8.391,3.756-8.391,8.39c0,4.634,3.757,8.391,8.391,8.391h58.734c4.634,0,8.391-3.757,8.391-8.391
		c0-4.634-3.757-8.39-8.391-8.39H8.391z M112.487,112.356l158.241,60.963l-37.889,20.452c-4.092,2.175-5.646,7.256-3.472,11.349
		c0.396,0.746,0.904,1.429,1.505,2.024l50.999,50.868l-23.729,23.729l-50.998-50.869c-3.283-3.271-8.596-3.262-11.868,0.021
		c-0.538,0.54-1,1.151-1.374,1.816l-20.583,37.889L112.487,112.356z M75.516,150.769c-0.353,0.021-0.702,0.065-1.049,0.131
		c-1.849,0.266-3.556,1.143-4.85,2.49l-33.563,33.562c-3.359,3.192-3.495,8.505-0.302,11.863c3.193,3.359,8.504,3.495,11.864,0.302
		c0.08-0.076,0.159-0.154,0.237-0.234l33.562-33.562c3.404-3.146,3.614-8.454,0.469-11.857
		C80.246,151.691,77.927,150.709,75.516,150.769"/>
</g>
</svg>
