<?xml version="1.0" encoding="utf-8"?>
<!-- Generator: Adobe Illustrator 25.1.0, SVG Export Plug-In . SVG Version: 6.00 Build 0)  -->
<svg version="1.1" id="Layer_1" xmlns="http://www.w3.org/2000/svg" xmlns:xlink="http://www.w3.org/1999/xlink" x="0px" y="0px"
	 viewBox="0 0 438 203.6" style="enable-background:new 0 0 438 203.6;" xml:space="preserve">
<style type="text/css">
	.st0{fill:#FFFFFF;}
</style>
<polygon class="st0" points="1.8,104.2 40.9,104.2 40.9,109.9 24.5,109.9 24.5,148.3 25.3,154 17.7,154 17.7,109.9 1.8,109.9 "/>
<path class="st0" d="M83.8,154l-13.3-18.7c-0.8,0.1-1.9,0.1-6.4,0.1v12.9l0.8,5.7h-7.6v-42.8l-1-7h14.1c8.3,0,16.3,4.8,16.3,15
	c0,5.9-3.7,11.4-9.7,14.2L92.6,154H83.8z M69,129.8c5.6,0,10.5-4.8,10.5-10.6c0-6.2-4.9-9.4-10.5-9.4h-4.9v20H69z"/>
<path class="st0" d="M120,104.2l4.6-1l15.4,42.5l3.8,8.3h-8.3l-4.8-13h-18.5l-4.9,13h-6.6L120,104.2z M114.3,135.2h14.6l-6.3-17.4
	l-0.8-2.9l-0.9,3L114.3,135.2z"/>
<polygon class="st0" points="159.2,104.2 185.1,104.2 185.1,109.8 167,109.8 167,125.7 182.8,125.7 181.3,131.3 167,131.3 
	167,148.3 167.7,154 160.2,154 160.2,111.2 "/>
<path class="st0" d="M211.5,104.2l4.6-1l15.4,42.5l3.8,8.3h-8.2l-4.8-13h-18.5l-4.9,13h-6.6L211.5,104.2z M205.9,135.2h14.6
	l-6.3-17.4l-0.8-2.9l-0.9,3L205.9,135.2z"/>
<polygon class="st0" points="251.7,111.2 250.8,104.2 258.6,104.2 258.6,148.2 278.1,148.2 276.6,154 251.7,154 "/>
<path class="st0" d="M329.9,152.1c0,0-7.7,2.9-17.3,2.9c-11.7,0-23.1-8.6-23.1-24.8c0-15.5,10.4-26.9,23.7-26.9
	c6.3,0,11.8,2.1,16.3,6.2l-3.5,5.1c-3.6-3.7-7.7-5.8-12.7-5.8c-9.4,0-16.5,10-16.5,20.5c0,12.3,8.6,20.1,17.2,20.1
	c4.1,0,9.2-1.3,9.2-1.3l0.1-13.2l-1.3-5.6h7.8L329.9,152.1z"/>
<path class="st0" d="M362.5,104.2l4.6-1l15.4,42.5l3.8,8.3h-8.3l-4.8-13h-18.6l-4.9,13h-6.6L362.5,104.2z M356.9,135.2h14.6
	l-6.3-17.4l-0.8-2.9l-0.9,3L356.9,135.2z"/>
<path class="st0" d="M429.2,154l-13.3-18.7c-0.8,0.1-1.9,0.1-6.4,0.1v12.9l0.8,5.7h-7.6v-42.8l-1-7h14.1c8.3,0,16.4,4.8,16.4,15
	c0,5.9-3.7,11.4-9.7,14.2L438,154H429.2z M414.5,129.8c5.6,0,10.5-4.8,10.5-10.6c0-6.2-4.9-9.4-10.5-9.4h-4.9v20H414.5z"/>
<path class="st0" d="M97.7,189.5v11.9h-4.4V172h5c2.5,0,4.3,0.2,5.6,0.5c1.3,0.3,2.4,1,3.4,1.9c1.7,1.7,2.5,3.7,2.5,6.3
	c0,2.7-0.9,4.8-2.7,6.4c-1.8,1.6-4.2,2.4-7.3,2.4L97.7,189.5L97.7,189.5z M97.7,185.4h1.7c4.1,0,6.1-1.6,6.1-4.7
	c0-3-2.1-4.5-6.3-4.5h-1.5V185.4z"/>
<path class="st0" d="M128.2,188.9l9.1,12.5h-5.4l-8.4-12h-0.8v12h-4.4V172h5.2c3.9,0,6.7,0.7,8.4,2.2c1.9,1.6,2.9,3.8,2.9,6.4
	c0,2.1-0.6,3.9-1.8,5.4C131.7,187.6,130.1,188.5,128.2,188.9 M122.7,185.6h1.4c4.2,0,6.3-1.6,6.3-4.8c0-3-2-4.5-6.1-4.5h-1.6V185.6z
	"/>
<path class="st0" d="M143.5,186.6c0-4.2,1.5-7.7,4.6-10.7c3-3,6.7-4.5,10.9-4.5c4.2,0,7.8,1.5,10.8,4.5c3,3,4.5,6.6,4.5,10.8
	c0,4.2-1.5,7.8-4.5,10.8c-3,3-6.7,4.4-11,4.4c-3.8,0-7.2-1.3-10.2-3.9C145.2,195.2,143.5,191.3,143.5,186.6 M148,186.7
	c0,3.2,1.1,5.9,3.3,8c2.2,2.1,4.7,3.1,7.5,3.1c3.1,0,5.7-1.1,7.8-3.2c2.1-2.1,3.2-4.8,3.2-7.9c0-3.1-1-5.8-3.1-7.9
	c-2.1-2.1-4.7-3.2-7.7-3.2c-3.1,0-5.6,1.1-7.8,3.2C149,181,148,183.6,148,186.7"/>
<path class="st0" d="M188.2,189.5v11.9h-4.4V172h5c2.5,0,4.3,0.2,5.6,0.5c1.3,0.3,2.4,1,3.4,1.9c1.7,1.7,2.5,3.7,2.5,6.3
	c0,2.7-0.9,4.8-2.7,6.4c-1.8,1.6-4.2,2.4-7.3,2.4L188.2,189.5L188.2,189.5z M188.2,185.4h1.7c4.1,0,6.1-1.6,6.1-4.7
	c0-3-2.1-4.5-6.3-4.5h-1.5V185.4z"/>
<polygon class="st0" points="224.9,176.2 213.1,176.2 213.1,183.3 224.6,183.3 224.6,187.5 213.1,187.5 213.1,197.3 224.9,197.3 
	224.9,201.5 208.7,201.5 208.7,172 224.9,172 "/>
<path class="st0" d="M244.6,188.9l9.1,12.5h-5.4l-8.4-12h-0.8v12h-4.4V172h5.2c3.9,0,6.7,0.7,8.4,2.2c1.9,1.6,2.9,3.8,2.9,6.4
	c0,2.1-0.6,3.9-1.8,5.4C248.2,187.6,246.6,188.5,244.6,188.9 M239.1,185.6h1.4c4.2,0,6.3-1.6,6.3-4.8c0-3-2-4.5-6.1-4.5h-1.6V185.6z
	"/>
<polygon class="st0" points="269.8,176.2 269.8,201.5 265.4,201.5 265.4,176.2 258.6,176.2 258.6,172 276.6,172 276.6,176.2 "/>
<rect x="284.5" y="172" class="st0" width="4.4" height="29.4"/>
<polygon class="st0" points="316.1,176.2 304.3,176.2 304.3,183.3 315.8,183.3 315.8,187.5 304.3,187.5 304.3,197.3 316.1,197.3 
	316.1,201.5 299.9,201.5 299.9,172 316.1,172 "/>
<path class="st0" d="M342.5,176.4l-3.6,2.1c-0.7-1.2-1.3-1.9-1.9-2.3c-0.6-0.4-1.5-0.6-2.5-0.6c-1.2,0-2.3,0.3-3.1,1
	c-0.8,0.7-1.2,1.6-1.2,2.6c0,1.4,1.1,2.6,3.2,3.5l2.9,1.2c2.4,1,4.1,2.1,5.2,3.5c1.1,1.4,1.7,3.1,1.7,5.1c0,2.7-0.9,4.9-2.7,6.7
	c-1.8,1.8-4.1,2.7-6.8,2.7c-2.6,0-4.7-0.7-6.3-2.3c-1.6-1.5-2.7-3.7-3.1-6.4l4.5-1c0.2,1.7,0.6,2.9,1.1,3.6c0.9,1.3,2.3,1.9,4,1.9
	c1.4,0,2.5-0.5,3.4-1.4c0.9-0.9,1.4-2.1,1.4-3.5c0-0.6-0.1-1.1-0.2-1.6c-0.2-0.5-0.4-0.9-0.7-1.3c-0.3-0.4-0.8-0.8-1.3-1.1
	c-0.5-0.3-1.2-0.7-1.9-1l-2.8-1.2c-4-1.7-6-4.2-6-7.5c0-2.2,0.8-4.1,2.5-5.5c1.7-1.5,3.8-2.3,6.3-2.3
	C337.9,171.5,340.6,173.1,342.5,176.4"/>
<path class="st0" d="M277.8,42.6c-1.3-1.3-8.4-6.8-17.5-1.3c-2.2-1.8-5.9-5.8-12.1-5.3h-0.1c1.9,2.3,3.2,5.2,3.2,8.5
	c0,4.5-2.3,8.5-5.9,10.8h10.2C261.3,47.6,271.8,43.5,277.8,42.6"/>
<path class="st0" d="M187.9,65.1h64.1c0.1-1.5,0.3-3,0.7-4.4h-65.5C187.6,62.1,187.8,63.6,187.9,65.1"/>
<path class="st0" d="M188.5,44.5c0-3.2,1.3-6.2,3.2-8.5h-0.1c-6.1-0.5-9.8,3.5-12.1,5.3c-9.1-5.5-16.2,0-17.5,1.3
	c6.1,0.9,16.6,5,22.2,12.7h10.2C190.8,53,188.5,49,188.5,44.5"/>
<path class="st0" d="M195.5,75.5h48.8c3.1,0,5.7-1.8,6.9-4.4h-62.6C189.8,73.7,192.5,75.5,195.5,75.5"/>
<path class="st0" d="M232.4,54.2c-4.6,0-6.9-2.3-6.9-7l-0.1-17.4c2.2-0.8,4.2-1,5.9-0.9c4.5,0.1,8.1,1.2,10.9,2.7v-6.6
	c-25.3-2.6-44.9,0-44.9,0v6.4c2.6-1.3,5.8-2.4,10.1-2.5c2-0.3,4.2-0.1,6.8,0.8l0,17.4c0,4.6-2.3,7-7,7h-23.2v1.1h71.5v-1.1H232.4z"
	/>
<path class="st0" d="M242.3,23.5L242.3,23.5l0.2,0c0,0-5.4-10.1-16.3-6.2c0-1.4-0.2-9.2-6.2-14h0c-6,4.8-6.1,12.6-6.2,14
	c-10.8-3.8-16.2,6-16.3,6.2C198.5,23.4,217.7,21,242.3,23.5"/>
<polygon class="st0" points="197.5,23.5 197.5,23.5 197.6,23.5 "/>
</svg>
