<?xml version="1.0" encoding="utf-8"?>
<!-- Generator: Adobe Illustrator 26.0.0, SVG Export Plug-In . SVG Version: 6.00 Build 0)  -->
<svg version="1.1" id="Layer_2" xmlns="http://www.w3.org/2000/svg" xmlns:xlink="http://www.w3.org/1999/xlink" x="0px" y="0px"
	 viewBox="0 0 811.3 217.5" style="enable-background:new 0 0 811.3 217.5;" xml:space="preserve">
<style type="text/css">
	.Graphic_x0020_Style{fill:#1E71B8;}
	.st0{fill:#FFFFFF;}
</style>
<g>
	<g>
		<path class="st0" d="M226.5,93l-13,13.3v20.9h-15.2V45.4h15.2v42l40.5-42h17.1L236.7,82l36.5,45.3h-17.8L226.5,93z"/>
		<path class="st0" d="M333.2,108.3h-40.9l-8.1,18.9h-15.7l36.8-81.9h15l37,81.9h-15.9L333.2,108.3z M328.1,96.4l-15.4-35.8
			l-15.3,35.8H328.1z"/>
		<path class="st0" d="M391.1,98.4v28.9h-15.2V98.6l-32.2-53.2H360l24,39.9l24.2-39.9h15L391.1,98.4z"/>
		<path class="st0" d="M493.3,114.5v12.7h-61.4V45.4h59.8v12.7h-44.6v21.3h39.5V92h-39.5v22.6H493.3z"/>
		<path class="st0" d="M603.9,128.6l-10.3-9.9c-7.6,6.5-16.8,9.8-27.5,9.8c-5.7,0-10.8-0.9-15.3-2.8c-4.5-1.9-8.1-4.5-10.6-7.8
			c-2.6-3.3-3.9-7.1-3.9-11.3c0-5.1,1.5-9.5,4.4-13.4c3-3.9,7.8-7.7,14.5-11.4c-3.3-3.3-5.6-6.3-7-9.2c-1.4-2.8-2.1-5.8-2.1-8.8
			c0-5.8,2.2-10.4,6.5-14c4.3-3.5,10.1-5.3,17.2-5.3c6.6,0,11.9,1.6,15.9,4.9c4,3.2,6,7.6,6,13.2c0,4.2-1.3,8-3.9,11.2
			c-2.6,3.3-6.9,6.6-12.8,9.9l17.7,16.8c1.9-3.8,3.5-8.4,4.6-13.8l11.8,3.9c-1.6,7.2-4,13.5-7.4,18.7l10.3,9.8L603.9,128.6z
			 M585,110.3l-21.6-20.7c-4.7,2.6-8,5-9.9,7.4c-1.9,2.4-2.9,5-2.9,8c0,3.4,1.5,6.2,4.6,8.3c3,2.1,7.1,3.2,12,3.2
			C574,116.5,579.9,114.5,585,110.3z M562.3,57.3c-1.9,1.6-2.8,3.7-2.8,6.3c0,1.9,0.5,3.6,1.5,5.3c1,1.7,3,4,5.8,6.8
			c4.7-2.6,7.9-4.8,9.8-6.7c1.8-1.9,2.7-4,2.7-6.3c0-2.4-0.8-4.3-2.5-5.7c-1.7-1.4-4-2.1-7-2.1C566.7,54.9,564.2,55.7,562.3,57.3z"
			/>
		<path class="st0" d="M663.5,123c-6.7-3.6-11.9-8.6-15.7-15c-3.8-6.4-5.7-13.6-5.7-21.6c0-8,1.9-15.2,5.7-21.6
			c3.8-6.4,9.1-11.4,15.7-15c6.7-3.6,14.1-5.4,22.4-5.4c6.7,0,12.8,1.2,18.4,3.5c5.5,2.3,10.2,5.7,14,10.2l-9.8,9.2
			c-5.9-6.4-13.2-9.6-21.9-9.6c-5.6,0-10.6,1.2-15.1,3.7c-4.4,2.5-7.9,5.9-10.4,10.2c-2.5,4.4-3.7,9.3-3.7,14.9
			c0,5.5,1.2,10.5,3.7,14.9c2.5,4.4,6,7.8,10.4,10.2c4.4,2.5,9.5,3.7,15.1,3.7c8.7,0,15.9-3.2,21.9-9.7l9.8,9.4
			c-3.8,4.4-8.5,7.8-14.1,10.2c-5.6,2.3-11.7,3.5-18.4,3.5C677.7,128.5,670.2,126.6,663.5,123z"/>
		<path class="st0" d="M744.6,123c-6.7-3.6-12-8.7-15.8-15.1c-3.8-6.4-5.7-13.6-5.7-21.6c0-8,1.9-15.1,5.7-21.6
			c3.8-6.4,9.1-11.5,15.8-15.1s14.2-5.4,22.6-5.4c8.3,0,15.9,1.8,22.6,5.4c6.7,3.6,12,8.6,15.8,15c3.8,6.4,5.7,13.6,5.7,21.6
			c0,8-1.9,15.2-5.7,21.6c-3.8,6.4-9.1,11.4-15.8,15c-6.7,3.6-14.2,5.4-22.6,5.4C758.9,128.5,751.4,126.6,744.6,123z M782,111.4
			c4.4-2.5,7.8-5.9,10.3-10.3c2.5-4.4,3.7-9.3,3.7-14.8c0-5.5-1.2-10.4-3.7-14.8c-2.5-4.4-5.9-7.8-10.3-10.3
			c-4.4-2.5-9.3-3.7-14.7-3.7c-5.5,0-10.4,1.2-14.7,3.7c-4.4,2.5-7.8,5.9-10.3,10.3c-2.5,4.4-3.7,9.3-3.7,14.8
			c0,5.5,1.2,10.4,3.7,14.8c2.5,4.4,5.9,7.8,10.3,10.3c4.4,2.5,9.3,3.7,14.7,3.7C772.7,115.1,777.6,113.9,782,111.4z"/>
	</g>
	<g>
		<polygon class="st0" points="97.7,21.1 106,11.1 91,11.1 91,31.1 106,31.1 		"/>
		<path class="st0" d="M61,143c0-5.3-2.8-9.9-7.7-13.1l82.6-83l-7.5-7.5L86.1,81.9V4.7H75.5v87.9l-29.7,29.8
			c-3.1-4.8-7.8-7.6-13.1-7.6c-6.9,0-12.8,4.9-15.6,12.7c-7.8,2.8-12.7,8.6-12.7,15.6c0,6.9,4.9,12.8,12.7,15.6
			c2.8,7.8,8.6,12.7,15.6,12.7c6.9,0,12.8-4.9,15.6-12.7C56.1,155.8,61,149.9,61,143z M42.9,149.1l-3.2,0.7l-0.7,3.2
			c-1.2,5.2-3.9,7.5-6.1,7.5c-2.2,0-4.9-2.3-6.1-7.5l-0.7-3.2l-3.2-0.7c-5.2-1.2-7.5-3.9-7.5-6.1c0-2.2,2.3-4.9,7.5-6.1l3.2-0.7
			l0.7-3.2c1.2-5.2,3.9-7.5,6.1-7.5c2.2,0,4.9,2.3,6.1,7.5l0.7,3.2l3.2,0.7c5.2,1.2,7.5,3.9,7.5,6.1
			C50.4,145.2,48.1,147.9,42.9,149.1z"/>
		<polygon class="st0" points="120.8,69 131.4,79.6 132.6,66.6 145.5,65.4 134.9,54.8 		"/>
		<polygon class="st0" points="70.6,77.1 33,39.4 25.5,46.9 70.6,92.2 		"/>
		<path class="st0" d="M144.3,127.4c-2.8-7.8-8.6-12.7-15.6-12.7c-5.3,0-9.9,2.8-13.1,7.6L91.7,98.3l-16.2,16.3v39.9
			c-4.5,1.8-8.2,5.9-10.2,11.7c-7.8,2.8-12.7,8.6-12.7,15.6c0,4,1.6,7.7,4.6,10.6c2.1,2.1,4.9,3.8,8.1,5c2.8,7.8,8.6,12.7,15.6,12.7
			c6.9,0,12.8-4.9,15.6-12.7c7.8-2.8,12.7-8.6,12.7-15.6c0-6.9-4.9-12.8-12.7-15.6c-2-5.7-5.7-9.8-10.2-11.7v-46.7l22,22.1
			c-4.8,3.1-7.7,7.8-7.7,13.1c0,6.9,4.9,12.8,12.7,15.6c2.8,7.8,8.6,12.7,15.6,12.7c6.9,0,12.8-4.9,15.6-12.7
			c7.8-2.8,12.7-8.6,12.7-15.6C157,136.1,152.1,130.2,144.3,127.4z M87.7,174.8l3.2,0.7c5.2,1.2,7.5,3.9,7.5,6.1
			c0,2.2-2.3,4.9-7.5,6.1l-3.2,0.7l-0.7,3.2c-1.2,5.2-3.9,7.5-6.1,7.5c-2.2,0-4.9-2.3-6.1-7.5l-0.7-3.2l-3.2-0.7
			c-5.2-1.2-7.5-3.9-7.5-6.1c0-2.2,2.3-4.9,7.5-6.1l3.2-0.7l0.7-3.2c1.2-5.2,3.9-7.5,6.1-7.5c2.2,0,4.9,2.3,6.1,7.5L87.7,174.8z
			 M138.8,149.1l-3.2,0.7l-0.7,3.2c-1.2,5.2-3.9,7.5-6.1,7.5c-2.2,0-4.9-2.3-6.1-7.5l-0.7-3.2l-3.2-0.7c-5.2-1.2-7.5-3.9-7.5-6.1
			c0-2.2,2.3-4.9,7.5-6.1l3.2-0.7l0.7-3.2c1.2-5.2,3.9-7.5,6.1-7.5c2.2,0,4.9,2.3,6.1,7.5l0.7,3.2l3.2,0.7c5.2,1.2,7.5,3.9,7.5,6.1
			C146.4,145.2,144,147.9,138.8,149.1z"/>
		<polygon class="st0" points="30.1,79.6 40.7,69 26.6,54.8 16,65.4 28.9,66.6 		"/>
	</g>
	<g>
		<path class="st0" d="M222.6,167.8c0-4.7-2.8-10.1-10.6-10.1h-14.2v31.5h3.9v-11.3h7.3l10.2,11.3h5.1l-10.5-11.6
			C220.4,176.9,222.7,172.1,222.6,167.8z M201.8,161.4h10.3c4.1,0,6.7,2.5,6.7,6.4c0,4-2.6,6.3-6.9,6.3h-10.1V161.4z"/>
		<polygon class="st0" points="249.2,175.2 266.9,175.2 266.9,171.5 249.2,171.5 249.2,161.4 267.7,161.4 267.7,157.7 245.3,157.7 
			245.3,189.1 268.1,189.1 268.1,185.4 249.2,185.4 		"/>
		<path class="st0" d="M300.9,157.7l-14.1,31.5h4.1l3.2-7.1h17.2l3.2,7.1h4.1l-14.1-31.5H300.9z M309.8,178.4h-14.1l7-16
			L309.8,178.4z"/>
		<polygon class="st0" points="343.1,157.7 339.2,157.7 339.2,189.1 360.1,189.1 360.1,185.4 343.1,185.4 		"/>
		<polygon class="st0" points="411.1,175.2 428.8,175.2 428.8,171.5 411.1,171.5 411.1,161.4 429.6,161.4 429.6,157.7 407.2,157.7 
			407.2,189.1 430,189.1 430,185.4 411.1,185.4 		"/>
		<path class="st0" d="M462.7,171.1c-4.7-0.8-8.4-1.7-8.4-5c0-4.7,5.7-5.2,8.2-5.2c1.9,0,6.4,0.4,8.5,3.7l0.2,0.3l3.3-1.8l-0.2-0.4
			c-2.4-3.7-6.3-5.5-11.8-5.5c-2,0-6.9,0.3-9.9,3.3c-1.5,1.5-2.2,3.3-2.1,5.5c0,6.6,6.8,7.8,11.8,8.6c5,0.9,9.1,1.9,9,5.6
			c0,5-6.1,5.5-8.7,5.5c-2.1,0-7.3-0.5-9.7-5.1l-0.2-0.4l-3.4,1.8l0.2,0.4c2.2,4.5,6.9,7,13.1,7c7.9,0,12.6-3.4,12.7-9.2
			C475.2,173.2,468,172,462.7,171.1z"/>
		<polygon class="st0" points="493.6,161.4 504.4,161.4 504.4,189.1 508.3,189.1 508.3,161.4 519.1,161.4 519.1,157.7 493.6,157.7 
					"/>
		<path class="st0" d="M547.3,157.7l-13.8,30.9l-0.3,0.6h4.1l3.1-7.1h17.2l3.2,7.1h4.1l-14.1-31.5H547.3z M556.1,178.4H542l7-16
			L556.1,178.4z"/>
		<polygon class="st0" points="579.1,161.4 589.9,161.4 589.9,189.1 593.8,189.1 593.8,161.4 604.6,161.4 604.6,157.7 579.1,157.7 
					"/>
		<polygon class="st0" points="629,175.2 646.7,175.2 646.7,171.5 629,171.5 629,161.4 647.5,161.4 647.5,157.7 625.1,157.7 
			625.1,189.1 647.9,189.1 647.9,185.4 629,185.4 		"/>
		<polygon class="st0" points="701.9,157.7 698,157.7 698,189.1 718.9,189.1 718.9,185.4 701.9,185.4 		"/>
		<polygon class="st0" points="743.3,157.7 739.5,157.7 739.5,189.1 760.4,189.1 760.4,185.4 743.3,185.4 		"/>
		<path class="st0" d="M803.2,182l-0.3,0.3c-2.3,2.3-5.6,3.6-8.9,3.6c-7.7,0-12.5-4.8-12.5-12.4c0-6.3,3.9-12.7,12.5-12.7
			c3.3,0,6.3,1.3,8.7,3.6l0.3,0.3l2.4-2.4l-0.2-0.3c-2.6-3-6.6-4.7-11.2-4.7c-4.8,0-8.9,1.5-11.8,4.5c-2.9,3-4.6,7.2-4.5,11.9
			c0.1,9.7,6.5,16,16.3,16c4.4,0,8.3-1.6,11.4-4.8l0.3-0.3L803.2,182z"/>
	</g>
</g>
</svg>
