<?xml version="1.0" encoding="utf-8"?>
<!-- Generator: Adobe Illustrator 16.0.0, SVG Export Plug-In . SVG Version: 6.00 Build 0)  -->
<!DOCTYPE svg PUBLIC "-//W3C//DTD SVG 1.1//EN" "http://www.w3.org/Graphics/SVG/1.1/DTD/svg11.dtd">
<svg version="1.1" id="Layer_1" xmlns="http://www.w3.org/2000/svg" xmlns:xlink="http://www.w3.org/1999/xlink" x="0px" y="0px"
	 width="1773.858px" height="469.011px" viewBox="0 0 1773.858 469.011" enable-background="new 0 0 1773.858 469.011"
	 xml:space="preserve">
<rect x="1.26" width="1772.599" height="469.011"/>
<path fill-rule="evenodd" clip-rule="evenodd" fill="#FFFFFF" d="M277.336,430.582V197.609l14.559,6.241l-0.036,187.161l8-9
	l0.355-113.679l14.559,4.16l0.086,94.519l133-134l-209-208l-209,207l135,138l0.165-93.358l14.559-8.32l0.276,115.679l8,9
	l0.044-187.082l14.559-8.32v235.051L4.875,232.972L237.819,0l235.023,232.972L277.336,430.582z M224.858,430.011l9,10l-0.2-352.647
	l12.479-4.16l-0.279,353.807l8-8l0.6-316.687l14.559,6.241v320.335l-30.158,30.11l-28-28l-0.079-318.285l14.56-10.401
	L224.858,430.011z"/>
<path fill-rule="evenodd" clip-rule="evenodd" fill="#FFFFFF" d="M1773.43,183.49v20.396h-76.75V99.654h76.75v20.396h-54.645v20.687
	h52.107v20.033h-52.107v22.72H1773.43z M1652.471,203.885h-22.105V120.05h-29.715V99.654h81.535v20.396h-29.715V203.885z
	 M1582.527,183.344h-40.222l-8.191,20.541h-22.828l40.657-104.231h21.018l40.73,104.231h-22.9L1582.527,183.344z M1562.453,129.704
	l-12.9,34.043h25.799L1562.453,129.704z M1490.435,203.885h-22.104V120.05h-29.715V99.654h81.533v20.396h-29.715V203.885z
	 M1393.216,141.076c23.318,3.692,35.02,14.526,35.109,32.501c0,9.518-3.828,17.239-11.48,23.164
	c-7.605,5.877-17.609,8.814-30.01,8.814c-8.891,0-17.102-1.815-24.639-5.447c-7.537-3.63-13.721-8.516-18.553-14.657l15.148-15.278
	c7.727,9.991,17.508,14.986,29.344,14.986c5.545,0,9.945-1.048,13.201-3.144c3.256-2.097,4.883-4.808,4.883-8.133
	c0-5.445-4.852-9.084-14.557-10.915l-12.766-2.197c-10.389-1.742-18.457-5.264-24.207-10.565c-5.75-5.299-8.625-12.184-8.625-20.655
	c0-9.579,3.771-17.198,11.32-22.858c7.496-5.757,16.564-8.635,27.205-8.635c16.314,0,29.701,5.501,40.158,16.502l-14.955,15.725
	c-7.869-8.129-16.682-12.194-26.432-12.194c-4.631,0-8.32,0.955-11.066,2.865c-2.752,1.909-4.125,4.432-4.125,7.565
	c0,5.498,4.908,9.137,14.723,10.921L1393.216,141.076z M1255.327,99.654h76.75v20.396h-54.646v20.687h52.111v20.033h-52.111v22.72
	h54.646v20.396h-76.75V99.654z M1152.882,97.331h22.105v83.835h47.543v20.396h-69.648V97.331z M1109.339,181.022h-40.223
	l-8.189,20.541h-22.83l40.658-104.232h21.018l40.73,104.232h-22.902L1109.339,181.022z M1089.263,127.38l-12.898,34.043h25.799
	L1089.263,127.38z M950.681,97.331h76.75v20.395h-54.645v20.688h52.109v20.033h-52.109v22.719h54.645v20.396h-76.75V97.331z
	 M910.882,201.563l-20.511-33.606h-17.683v33.606h-22.105V97.331h43.125c11.664,0,21.176,3.024,28.531,9.074
	c7.551,6.096,11.326,14.42,11.326,24.968c0,7.234-1.848,13.706-5.543,19.421c-3.697,5.713-8.73,10.064-15.104,13.055l23.049,37.715
	H910.882z M906.171,121.356c-3.527-2.419-8.986-3.63-16.379-3.63h-17.104v30.197h17.104c14.445,0,21.67-5.105,21.67-15.316
	C911.462,127.526,909.696,123.777,906.171,121.356z M802.195,205.7l-11.274-11.104c-8.986,5.759-19.037,8.637-30.149,8.637
	c-15.075,0-27.734-5.056-37.977-15.17c-10.292-10.308-15.437-23.202-15.437-38.688c0-15.389,5.145-28.163,15.437-38.325
	c10.194-10.209,22.854-15.315,37.977-15.315c15.199,0,27.961,5.106,38.287,15.315c10.373,10.114,15.562,22.889,15.562,38.325
	c0,11.663-3.155,22.065-9.463,31.21l11.088,11.18L802.195,205.7z M783.529,126.219c-4.74-5.216-10.496-8.318-17.268-9.306
	c-1.711-0.316-3.467-0.489-5.261-0.489c-2.382,0-4.698,0.299-6.924,0.847c-6.173,1.251-11.361,4.181-15.554,8.803
	c-5.653,6.388-8.479,14.155-8.479,23.3c0,9.29,2.826,17.13,8.479,23.517c5.604,6.341,13.214,9.509,22.829,9.509
	c5.556,0,10.315-1.04,14.278-3.12l0.244-0.099c5.844-3.222,9.822-7.521,12.749-13.828l0.488-0.808
	c2.077-4.502,3.116-9.557,3.116-15.171C792.226,140.326,789.327,132.606,783.529,126.219z M663.034,138.753
	c23.318,3.693,35.021,14.525,35.108,32.5c0,9.52-3.828,17.24-11.48,23.165c-7.605,5.877-17.609,8.814-30.01,8.814
	c-8.89,0-17.102-1.814-24.638-5.446c-7.538-3.631-13.721-8.516-18.553-14.657l15.147-15.278c7.728,9.99,17.51,14.986,29.344,14.986
	c5.545,0,9.946-1.049,13.202-3.145c3.254-2.096,4.882-4.807,4.882-8.133c0-5.445-4.852-9.083-14.557-10.915l-12.766-2.196
	c-10.389-1.742-18.457-5.264-24.207-10.565c-5.75-5.3-8.624-12.185-8.624-20.655c0-9.579,3.771-17.197,11.318-22.857
	c7.496-5.757,16.564-8.635,27.206-8.635c16.314,0,29.701,5.501,40.158,16.502l-14.954,15.724
	c-7.87-8.129-16.681-12.193-26.433-12.193c-4.63,0-8.32,0.955-11.067,2.865c-2.75,1.91-4.123,4.433-4.123,7.565
	c0,5.497,4.907,9.137,14.723,10.921L663.034,138.753z M587.172,189.513c-11.5,8.034-24.666,12.05-39.499,12.05h-34.28V97.331h34.28
	c14.978,0,28.096,3.823,39.354,11.467c5.846,3.92,10.424,9.353,13.734,16.296c3.309,6.944,4.964,14.844,4.964,23.699
	c0,8.953-1.644,16.926-4.929,23.917C597.511,179.704,592.97,185.304,587.172,189.513z M544.268,117.726h-8.77v63.44h8.915
	c25.945,0,38.919-10.79,38.919-32.373C583.332,128.083,570.309,117.726,544.268,117.726z"/>
<g>
	<g>
		<path fill="#FFFFFF" d="M757.079,291.891l-13.041,29.28l-13.04-29.28h-10.24l18.561,38.16v21.041h9.44v-21.041l18.561-38.16
			H757.079z M786.199,306.292c-14.64,0-23.201,11.36-23.201,22.96v0.08c0,11.681,8.561,22.961,23.201,22.961
			s23.201-11.28,23.201-22.961C809.399,317.652,800.839,306.292,786.199,306.292z M786.199,344.532c-8.32,0-14.88-6.479-14.88-15.12
			v-0.08c0-8.72,6.56-15.2,14.88-15.2s14.88,6.48,14.88,15.2C801.079,338.052,794.519,344.532,786.199,344.532z M849.639,331.892
			c0,7.439-3.76,12.64-11.92,12.72c-8.561,0-11.601-5.6-11.601-13.44v-23.601h-8.32v25.521c0,9.041,3.6,19.201,17.6,19.28
			c7.76,0.081,12.641-3.52,14.721-8v6.721h7.84v-43.521h-8.32V331.892z M876.678,313.971v-6.4h-7.84v43.521h8.32v-23.521
			c0-8.641,4.08-12.96,11.92-12.96h0.56v-8.32C883.718,306.372,879.158,308.851,876.678,313.971z M931.237,300.211h13.601v50.881
			h9.439v-50.881h13.601v-8.32h-36.641V300.211z M977.958,313.971v-6.4h-7.84v43.521h8.32v-23.521c0-8.641,4.08-12.96,11.92-12.96
			h0.561v-8.32C984.998,306.372,980.438,308.851,977.958,313.971z M1029.238,331.892c0,7.439-3.76,12.64-11.92,12.72
			c-8.561,0-11.601-5.6-11.601-13.44v-23.601h-8.32v25.521c0,9.041,3.601,19.201,17.601,19.28c7.761,0.081,12.641-3.52,14.721-8
			v6.721h7.84v-43.521h-8.32V331.892z M1062.998,325.011c-4.641-1.279-7.761-2.88-7.921-6.319c-0.08-2.881,2.16-5.601,6.24-5.601
			c4.24-0.08,6.32,2.479,6.32,5.84h8.24c-0.64-9.68-8.48-12.64-14.48-12.64c-7.92,0-14.641,4.96-14.641,13.2
			c0.08,6.56,4.881,9.439,10.961,11.28c7.76,2.56,11.04,4,11.12,8.32c0,3.68-3.12,6.479-7.12,6.479c-3.12,0-7.36-1.76-7.681-7.04
			h-8.24c0.4,9.92,8.961,13.84,15.841,13.84c8.64,0,15.681-5.76,15.521-14.24C1076.918,328.772,1069.638,326.852,1062.998,325.011z
			 M1097.156,291.891h-8.32v15.68h-7.84v6.48h7.84v37.041h8.32v-37.041h8.4v-6.48h-8.4V291.891z M1129.557,306.292
			c-13.2,0-22.961,10.64-22.961,23.12c0,11.521,8.801,22.96,23.041,22.96c4.399,0,8.72-1.199,12.4-3.68c3.68-2.4,6.72-6,8.8-10.8
			h-8.64c-2.4,4.56-6.721,7.36-12.561,7.36c-6.561,0-14.24-4.48-14.641-13.281h37.201c0.72-7.279-1.44-14.08-6.561-19.28
			C1141.477,308.611,1135.797,306.292,1129.557,306.292z M1115.156,325.492c0.4-5.92,5.92-12.08,14.4-12.08
			c8.24-0.16,14,6.319,14.4,12.08H1115.156z M1196.116,307.011v7.68c-1.761-3.439-7.2-8.399-16.081-8.399
			c-12.4,0-22.16,9.439-22.16,22.96c0,12.561,8.641,23.12,22.32,23.12c8.96,0,13.841-4.399,16.24-8.88v7.601h8v-59.201h-8.319
			V307.011z M1192.355,340.052c-2.72,2.8-6.64,4.56-10.88,4.56c-9.601,0-15.2-7.28-15.28-15.28v-0.08c0-8.16,6.08-15.2,15.28-15.2
			c4.24,0,8,1.6,10.72,4.32c2.721,2.64,4.4,6.4,4.4,10.72C1196.756,333.412,1195.156,337.251,1192.355,340.052z M1319.715,295.891
			c-3.52-2.801-7.44-4-16.641-4h-16.88v59.201h9.44v-21.681h8.32c8.16,0,12.16-1.28,16.16-4.4c3.68-2.96,6.16-8.88,6.16-14.56
			C1326.275,304.771,1323.875,299.091,1319.715,295.891z M1312.995,319.091c-2.561,1.601-5.44,2-9.2,2h-8.16v-20.88h7.84
			c3.92,0,6.8,0.319,9.44,1.92c2.479,1.439,4.319,4.479,4.319,8.479C1317.234,314.612,1315.395,317.731,1312.995,319.091z
			 M1367.234,315.251c-2-4.16-7.52-8.96-16.16-8.96c-12.641,0-22.32,9.76-22.32,23.04c0,12.16,8.32,23.04,22.32,23.04
			c6.88,0,13.12-3.039,16.16-8.88v7.601h8.32v-43.521h-8.32V315.251z M1365.795,335.972c-2.16,4.96-6.881,8.64-13.521,8.64
			c-10.561,0-15.12-8.64-15.2-15.12v-0.08c0-8.16,5.92-15.36,15.04-15.36c6.96,0,11.841,3.92,13.921,8.96
			c0.96,2,1.359,4.24,1.279,6.48S1366.755,333.971,1365.795,335.972z M1394.354,313.971v-6.4h-7.84v43.521h8.32v-23.521
			c0-8.641,4.08-12.96,11.92-12.96h0.561v-8.32C1401.394,306.372,1396.834,308.851,1394.354,313.971z M1426.753,291.891h-8.32v15.68
			h-7.841v6.48h7.841v37.041h8.32v-37.041h8.399v-6.48h-8.399V291.891z M1463.952,306.292c-7.761-0.08-12.641,3.52-14.721,8v-6.721
			h-7.84v43.521h8.32v-24.24c0-7.521,3.76-12.641,11.92-12.721c8.48-0.08,11.521,5.521,11.521,13.36v23.601h8.4v-25.521
			C1481.553,316.532,1477.872,306.451,1463.952,306.292z M1512.19,306.292c-13.2,0-22.96,10.64-22.96,23.12
			c0,11.521,8.8,22.96,23.04,22.96c4.4,0,8.721-1.199,12.4-3.68c3.681-2.4,6.721-6,8.8-10.8h-8.64c-2.4,4.56-6.72,7.36-12.561,7.36
			c-6.56,0-14.24-4.48-14.64-13.281h37.2c0.72-7.279-1.439-14.08-6.56-19.28C1524.111,308.611,1518.431,306.292,1512.19,306.292z
			 M1497.79,325.492c0.4-5.92,5.921-12.08,14.4-12.08c8.24-0.16,14.001,6.319,14.4,12.08H1497.79z M1550.829,313.971v-6.4h-7.84
			v43.521h8.32v-23.521c0-8.641,4.08-12.96,11.92-12.96h0.561v-8.32C1557.869,306.372,1553.31,308.851,1550.829,313.971z"/>
	</g>
</g>
<path fill-rule="evenodd" clip-rule="evenodd" fill="#FFFFFF" d="M517.358,317.511h176.5c2.762,0,5,2.238,5,5s-2.238,5-5,5h-176.5
	c-2.762,0-5-2.238-5-5S514.597,317.511,517.358,317.511z"/>
<path fill-rule="evenodd" clip-rule="evenodd" fill="#FFFFFF" d="M1592.358,317.511h176.5c2.762,0,5,2.238,5,5s-2.238,5-5,5h-176.5
	c-2.762,0-5-2.238-5-5S1589.597,317.511,1592.358,317.511z"/>
</svg>
