<?xml version="1.0" encoding="utf-8"?>
<!-- Generator: Adobe Illustrator 23.0.0, SVG Export Plug-In . SVG Version: 6.00 Build 0)  -->
<svg version="1.1" id="Layer_1" xmlns="http://www.w3.org/2000/svg" xmlns:xlink="http://www.w3.org/1999/xlink" x="0px" y="0px"
	 viewBox="0 0 798 168" style="enable-background:new 0 0 798 168;" xml:space="preserve">
<style type="text/css">
	.st0{fill-rule:evenodd;clip-rule:evenodd;fill:#FFFFFF;}
</style>
<path class="st0" d="M95.6,75.5V53.2l7.1,4.2v9.8L95.6,75.5z M102.7,121h-7.1V78.6l7.1-8.3L102.7,121L102.7,121z M88.7,70.7
	c-2.1,1.4-4.1,2.7-6.2,4.1c-1.4,0.9-2.7,1.8-4.1,2.7c-0.2,0.1-0.5,0.3-0.8,0.5c0-0.3-0.1-0.4-0.1-0.6c0-1.4,0-2.8,0-4.2
	c0-0.4,0.1-0.7,0.5-0.9c3.5-2.3,7-4.5,10.4-6.8c0.2-0.1,0.4-0.2,0.7-0.3c0,1.7,0,3.2,0,4.8C89.2,70.3,89,70.5,88.7,70.7z M88.8,60.1
	c-3.6,2.3-7.1,4.7-10.7,7.1c-0.1,0.1-0.2,0.1-0.3,0.1c0,0-0.1,0-0.1-0.1c0,0-0.1,0-0.1-0.1c0-1.7,0-3.5,0-5.2
	c3.8-2.5,7.6-4.9,11.5-7.5c0,0.3,0.1,0.5,0.1,0.6c0,1.3,0,2.7,0,4C89.2,59.6,89.1,59.9,88.8,60.1z M62.1,108.4c0-1.3,0-2.5,0-3.7
	c0.8-0.4,1.6-0.7,2.4-1.1c2.1-1,4.3-1.9,6.5-2.9c0.3-0.2,0.6-0.3,1-0.1c0,1.3,0,2.5,0,3.9c-1.6,0.7-3.2,1.4-4.8,2
	C65.5,107.1,63.9,108,62.1,108.4z M64.9,31.3c-0.6-0.2-1.1,0.5-1.8,0.2c-0.3-0.1-0.4,0.2-0.5,0.5c0.5-0.6,1.2-0.1,1.7-0.2
	c0.3,0,0.5,0.3,0.3,0.6c-0.1,0.2-0.3,0.4-0.5,0.7c-0.3-0.2-0.5-0.3-0.8-0.5c-0.2,0.4-0.3,0.7-0.5,1c0.4,0.4,0.6,0,0.9-0.2
	c0,0.1,0.1,0.2,0.1,0.2c-0.4,0.5-0.7,1.1-0.5,1.8c0,0.1-0.1,0.4-0.3,0.5c-0.7,0.4-0.7,0.8-0.4,1.5c0,0.1,0,0.2,0.1,0.3
	C62.4,38,62,38.4,62.3,39c0.2,0,0.5,0,0.8-0.1c-0.1,0.3-0.2,0.5-0.3,0.8c0.4,0,0.6,0.1,0.9,0.1c0,0.4,0,0.8,0,1.3
	c-0.3-0.3-0.6-0.4-0.8-0.6c-0.5,0.2-0.8,0.6-0.9,1.1c0.8,0.4,1,1.2,1.5,2.1c-0.5-0.2-0.7-0.3-1.1-0.4c0,0.7,0.7,1,0.9,1.6
	c-0.4,0.2-0.8,0.4-1.1,0.6c0,0.6,1,0.6,0.6,1.4c-0.2,0-0.5,0-0.9,0c-0.1,0.2-0.1,0.5-0.2,0.7c-0.3,0-0.7,0.1-1,0.2
	c0.6,0.7,1.1,1.3,1.6,2c0.6,0.8,0.5,1.1-0.6,1.8c-0.3-0.5-0.7-1-1-1.5c0,0-0.1,0-0.1,0.1c0,0.2,0,0.4,0,0.6c0,0,0,0.1-0.1,0.1
	c-0.2,0.2-0.7,0.2-0.6,0.6c0.1,0.4,0.5,0.2,0.8,0.2c0.4,0.1,0.7,0.2,1.2,0.3c-0.3,0.2-0.4,0.4-0.6,0.5c-0.8,0.6-1.7,1.1-2.5,1.7
	c-0.6,0.4-0.6,0.3-1.3,0.1c0.1,0.7-0.3,1.2-0.8,1.6c-0.4,0.4-0.8,0.8-1.4,1.1c-0.7,0.3-1.4,0.9-1.5,1.8c0,0.4-0.1,0.8-0.4,1
	c-0.6,0.6-0.9,1.3-1,2.1c-0.1,0.5-0.2,0.9-0.4,1.5c-0.9-1-0.9-1-1.7-1c0.1-0.2,0.2-0.4,0.2-0.6c0-0.2-0.2-0.4-0.3-0.6
	c-0.3-0.4-0.7-0.8-1-1.2c-0.2-0.2-0.3-0.5-0.5-0.8c0.4-0.2,0.7-0.4,1.1-0.6c-1.1-0.5-1.6-1.4-1.9-2.4c-0.2-0.7-0.1-1.3,0.4-1.8
	c0.6-0.5,0.7-1.2,0.9-1.9c0.2-0.5-0.2-0.6-0.7-0.6c0.2,0.6,0.1,1-0.5,1.4c-0.3-0.4-0.5-0.8-0.7-1.2c0.3-0.1,0.6-0.2,0.9-0.3
	c-0.3-0.2-0.5-0.3-0.7-0.5c0.3-0.3,0.3-0.3,1.5,0.2c0.2-0.7-0.3-1.2-0.3-2c-0.5,0.2-1,0.4-1.5,0.6c0-0.1-0.2-0.3-0.1-0.4
	c0.2-0.5,0.4-0.9,0.6-1.4c0-0.1,0-0.1-0.1-0.2c-0.6-0.5-0.7-1.2-0.9-1.8c-0.3-0.6-0.6-1.2-0.6-1.9c0-0.2-0.1-0.4-0.2-0.6
	c-0.4-0.4-0.8-0.7-1.2-1c-0.6-0.4-1.1-0.6-1.8-0.1c-0.5,0.3-1.1,0.3-1.7,0c-0.3-0.1-0.5-0.3-0.7-0.6c-0.3-0.5-0.5-1-0.8-1.6
	c0.2,0,0.4-0.1,0.5-0.2c0.2-0.1,0.3-0.2,0.7-0.4c-0.4,0-0.6,0-0.8-0.1c0.1-0.6-0.1-1.1-0.5-1.5c-0.7-0.7-0.7-0.9,0.2-1.5
	c0.3-0.2,0.6-0.5,1-0.7c0.1-0.1,0.2-0.1,0.3-0.1c0.9,0,1.4-0.5,1.8-1.3c-0.1-0.2-0.2-0.4-0.4-0.7c0.2-0.1,0.3-0.3,0.5-0.4
	c-0.1-0.1-0.1-0.2-0.2-0.2c-0.3,0-0.5,0-0.8,0c-0.4,0.1-0.7,0.1-0.9-0.4c-0.1-0.3,0-0.9,0.3-1c0.6-0.2,0.7-0.7,1.1-1
	c0.3-0.3,0.6-0.6,0.9-0.9c0.3,0.1,0.6,0.1,0.9,0.2c-0.1-0.6-0.1-1.1-0.2-1.6c0.2-0.2,0.5-0.4,0.8-0.5c0.2,0.1,0.3,0.2,0.6,0.4
	c-0.1-0.2-0.1-0.4-0.2-0.6c0.7-0.5,1.3-0.9,2-1.4c0.2,0.1,0.3,0.2,0.6,0.4c0.1-0.1,0.1-0.3,0.2-0.4c0.8,0.4,0.2,1.5,1.3,1.6
	c0-0.2,0-0.3,0-0.5c0-0.1-0.1-0.2-0.2-0.3c-0.1-0.4-0.3-0.8-0.3-1.2c0-0.7,0.7-0.2,1-0.5c0.1,0.2,0.3,0.4,0.4,0.5
	c-0.1,0.2-0.2,0.3-0.3,0.5c0.5,0.5,0.9,1.1,1.4,1.6c0.2-0.1,0.4-0.1,0.3-0.4c-0.2-0.5-0.2-0.5,0-1.1c0.3,0.1,0.6,0.2,1.1,0.3
	c-0.7-0.8-1.3-1.4-2-2.2c1.3-0.1,2.2,0.2,2.8,1.4c-0.1-1.1-0.5-1.5-1.8-1.7c-0.1-0.3-0.2-0.5,0.3-0.6c0.2,0,0.4-0.2,0.6-0.3
	c0.4,0.5,0.9,1,1.6,1.3c0-0.4,0-0.7,0-1.1c0.2,0,0.4-0.1,0.6-0.1c-0.1-0.4-0.7-0.4-0.4-0.9c0.3-0.1,0.6-0.1,0.9-0.2
	c0.2-0.3,0.3-0.5,0.5-0.7c0.1-0.1,0.3-0.2,0.5-0.2c1.4,0.1,2.8,0.3,4.1,1c-0.2,0.7-0.7,0.8-1.2,0.7c-1.3-0.3-2.2,0.7-3.2,1.1
	c0.6,0,1.2-0.1,1.7-0.4c0.4-0.2,0.9-0.3,1.3-0.2c0.6,0.2,1,0.1,1.5-0.3c0.1-0.1,0.2-0.1,0.3-0.1c0,0.4,0,0.8,0,1.1
	c0.4,0.1,0.7,0,1,0.2c1,0.5,1,1.1,0,1.7c-0.7,0.4-1.4,0.7-2.4,0.6c-1-0.1-1.9,0.5-2.4,1.5c0.2-0.1,0.4-0.1,0.6-0.2
	c0.4-0.2,0.8-0.4,1.2-0.6c0.5-0.3,0.9-0.3,1.4-0.3c0.5,0.1,0.7,0.4,0.4,0.8c-0.1,0.2-0.3,0.4-0.5,0.7c0.7,0,0.9-0.5,1-0.9
	c0.2-0.5,0.6-0.8,1.1-1c0.5,1.7-0.2,3-1,4.3c0.5,0.1,0.8-0.1,0.9-0.5c0.1-0.4,0.2-0.9,0.4-1.3c0.2-0.4,0.5-0.7,0.8-1
	c0.1,0.1,0.1,0.1,0.2,0.2c0.4,0.4,0.6,0.4,1,0c0.1-0.2,0.2-0.5,0.3-0.7c0.3-0.6,0.8-0.7,1.3-0.3c0.4,0.4,0.7,0.8,1.1,1.3
	c-0.6,0.7-1.1,1.3-1.6,2C65.1,31.3,65,31.3,64.9,31.3z M39.6,33c-0.9,0.5-0.9,0.5-0.4,1.6c-0.4-0.2-0.7-0.4-1-0.6
	c0.1,0.3,0.1,0.5,0.2,0.7c-0.2,0.2-0.5,0.4-0.8,0.7c-0.3-0.2-0.5-0.4-0.8-0.7c1.5-1.3,2.9-2.6,4.3-3.8c0,0,0,0,0.1,0.1
	c-0.4,0.6-0.8,1.1-1.2,1.7C39.9,32.8,39.8,32.9,39.6,33z M37.9,36.8c-0.1,0.2-0.3,0.4-0.5,0.5c0.1,0.2,0.1,0.3,0.2,0.6
	C37.4,38,37.2,38,37,38c0,0.1,0,0.3,0.1,0.4c-0.2,0.1-0.5,0.1-0.8,0.2c0.4,0.4,0.4,0.8-0.1,1c-0.4,0.1-0.8,0-1.3,0
	c0,0-0.1,0.2-0.2,0.3c0.7,0.3,1.4,0.5,2.1,0.8c-0.3,0.5-0.6,0.9-0.8,1.3c-0.1-0.1-0.3-0.1-0.4-0.1c-0.8-0.5-1.2-0.5-2.2-0.2
	c-0.2,0.1-0.5-0.2-0.8-0.3c-0.7,0.5-0.8,0.5-1.3-0.3c0.2-0.2,0.4-0.6,0.7-0.7c0.4-0.2,0.5-0.5,0.6-0.9c0.4,0.2,0.7,0.4,1.1,0.6
	c0.3-0.4,0.5-0.7,0.8-1.1c0,0-0.1-0.1-0.1-0.1c-0.3,0.1-0.6,0.2-0.8,0.3c-0.3-0.2-0.3-0.4-0.1-0.7c1.1-1.1,2.1-2.3,3.2-3.4
	c0.1,0,0.1,0.1,0.2,0.1c-0.1,0.3-0.2,0.7-0.3,1.1C37,36.3,37.6,36,37.9,36.8z M31.9,43.4c0.1-0.1,0.3,0,0.4,0.1c0.7,0.1,1,0,1.3-0.5
	c0.5,0,0.8-0.1,1.4-0.1c0.2,0.2,0.4,0.6,0.7,1c-0.1,0.1-0.2,0.3-0.3,0.5c0.1,0.1,0.3,0.3,0.4,0.4c-0.1,0.1-0.1,0.2-0.2,0.2
	c-0.3,0.3-0.7,0.3-1.1,0.2c-0.5-0.2-1-0.1-1.5,0.1c-0.1,0-0.3,0.1-0.4,0.1c-0.7-0.1-1.4-0.4-2.2-0.4c-0.2,0-0.4-0.3-0.5-0.5
	c-0.3-0.8,0.2-1.5,0.4-2.2c0.4,0.5,0.6,0.8,0.9,1C31.4,43.5,31.6,43.6,31.9,43.4z M28.3,45.1c0.3-0.5,0.5-0.8,0.8-1.1
	c0.1,0,0.2,0,0.3,0c0.1,0.3,0.3,0.6,0.2,0.8C29.4,45.2,28.9,45.1,28.3,45.1z M27.1,50.3c-0.3-0.5-0.7-1-1-1.7
	c0.4-0.7,0.9-1.5,1.4-2.3c0.1,0,0.1,0.1,0.2,0.1c-0.1,0.4-0.2,0.9-0.3,1.3c0.2,0.4,0.9,0.6,0.7,1.3C27.8,49.6,27.7,50.1,27.1,50.3z
	 M25.3,53.3c-0.7,0.2-0.8,0.2-1.6-0.4c0.3-0.7,0.7-1.3,1.1-2c0.4,0.5,0.8,0.9,1.2,1.3c-0.4,0.1-0.7,0.2-1.1,0.3
	C25.1,52.8,25.2,53.1,25.3,53.3z M37.6,55.3c-0.3,0.1-0.6,0-0.7-0.3c-0.1-0.3,0.1-0.5,0.8-0.7C38,54.7,38.1,55.1,37.6,55.3z
	 M33.7,60.8c0.3-0.4,0.4-0.8,1.1-0.5C34.5,60.6,34.3,61,33.7,60.8z M35.7,61.2c0-0.1,0-0.3,0.1-0.4c0.1,0,0.1,0,0.2,0
	c0,0.1-0.1,0.2-0.1,0.4C35.8,61.2,35.7,61.2,35.7,61.2z M36.7,88c-0.8-0.6-1.5-0.9-2.5-0.7c-0.1,0-0.2-0.1-0.3-0.1
	c0.5-0.7,0.7-0.8,1.5-0.6c0.6,0.2,1.2,0.3,1.8,0.5c0.4,0.2,0.7,0.5,1.1,0.8C37.6,88.3,37.1,88.3,36.7,88z M38.3,88.8
	c1.4-0.8,1.8-0.8,2.6,0C39.7,89.3,39.2,89.3,38.3,88.8z M26.8,54.8c0.2-0.3,0.4-0.6,0.6-0.9c-0.2-0.1-0.4-0.2-0.6-0.4
	c-0.4-0.3-0.4-0.5,0-0.8c0.3-0.2,0.6-0.4,0.9-0.7c0.7,0.7,0.7,1.1,0.1,1.8c0,0.3,0.1,0.6,0.1,0.9c0,0.4,0.1,0.6,0.5,0.6
	c-0.2-0.4,0-0.7,0.3-1c0.6-0.5,0.5-1.7-0.1-2.2c-0.4-0.3-0.7-0.5-0.5-1.1c0.1-0.2-0.1-0.5-0.2-0.8c0.1-0.2,0.3-0.4,0.4-0.6
	c0.1-0.2,0.3-0.5,0.3-0.7c0-0.4-0.1-0.8-0.1-1.2c0-0.4,0-0.8,0-1.2c0.6-0.6,0.9-0.6,2.5-0.5c-0.3,0.4-0.5,0.7-0.7,1
	c-0.2,0.4-0.2,0.8-0.4,1.2c-0.4-0.3-0.8-0.6-1.3-0.1c0.2,0.2,0.5,0.3,0.6,0.4c0,0.2,0,0.2,0,0.3c-0.7,1-0.7,1.1,0.1,2.1
	c0.4,0.5,0.3,0.9,0.2,1.4c0.1,0.1,0.2,0.2,0.2,0.2c0.7,0.1,0.9,0.5,0.7,1.2c0,0.2,0.1,0.4,0.3,0.5c0.1-0.2,0.2-0.3,0.2-0.5
	c0.1-0.2,0.1-0.4,0.1-0.6c0.8,0.3,0.9,0.3,0.6,1c-0.2,0.5,0,0.9,0.4,1.2c0.8-0.4,0.3-1.5,1.2-1.8c-0.1-0.2-0.3-0.3-0.3-0.5
	c0.2-0.9-0.5-1.2-1.1-1.6c-0.2-0.2-0.5-0.3-0.8-0.5c0.3-0.1,0.6-0.2,0.8-0.3c0-0.1-0.1-0.1-0.1-0.1c-1-0.4-1.3-0.8-1.1-1.8
	c0.1-0.6,0.4-1.2,0.7-1.7c0.4-0.5,1-0.5,1.8-0.5c-0.2,0.3-0.3,0.6-0.5,0.8c-0.4,0.4-0.6,0.9-0.5,1.5c0.2,0.6,0.4,1.2,0.6,1.7
	c0,0.1,0.2,0.1,0.5,0.3c-0.1-1,0.2-1.8-0.4-2.6c0.3-0.7,0.9-1,1.6-1.5c0.2,0.9,0.8,1.7,0.5,2.7c0.1-0.1,0.3-0.2,0.5-0.3
	c0.1,0.1,0.3,0.2,0.5,0.4c0.2-0.5,0.4-0.9,0.6-1.3c-0.4-0.3-0.9-0.6-1.4-0.9c0-0.1,0-0.2,0.1-0.2c0.3,0,0.7,0,1,0
	c0.4,0,0.7,0.4,0.6,0.7c-0.1,0.5,0.1,0.6,0.3,0.9c0.1,0.2,0.3,0.5,0.3,0.7c0,0.6,0.3,0.9,0.8,1.1c0.2-0.3,0.3-0.5,0.5-0.9
	c0.2,0.3,0.3,0.6,0.5,0.8c-0.2,0.2-0.4,0.3-0.6,0.5c0.1,0.1,0.1,0.2,0.2,0.2c0.2,0.1,0.4,0.1,0.6,0.1c0.3,0.1,0.6,0.1,0.9,0.2
	c-0.2,0.3-0.4,0.4-0.5,0.6c0.1,0,0.2,0.1,0.3,0.1c0.3-0.1,0.6-0.4,1-0.1c0,0.1,0,0.2,0,0.2c-0.8,0.6-0.8,1-0.1,1.6
	c0.7,0.6,1.5,1.2,2.3,1.8c0.2,0.2,0.4,0.3,0.5,0.4c-0.3,0.8-0.5,1.5-0.8,2.3c-0.2-0.3-0.6-0.5-0.6-0.8c-0.1-0.7-0.6-0.9-1.2-1.2
	c-0.1,0.7,0.1,1.3,0.4,1.8c0.4,0.5,0.8,0.9,1.3,1.4c-0.2,0.2-0.4,0.3-0.6,0.5c0,0.2,0.1,0.4,0.2,0.7c-0.1,0-0.2,0-0.3,0
	c-0.5-0.4-1-0.8-1.6-1.3c0,0-0.1,0.1-0.1,0.1c0.3,0.4,0.7,0.8,1.1,1.3c-0.6,0.1-1-0.2-1.5-0.2c-0.6-0.1-0.9-0.4-1.1-0.9
	c0-0.1-0.1-0.2-0.2-0.3c-0.4-0.4-0.7-0.9-1.1-1c-0.4-0.1-1,0.3-1.5,0.5c0-0.6,0.3-1,0.5-1.5c0-0.1,0.4-0.1,0.6-0.1
	c0.3,0,0.6,0,0.9,0.1c0-0.4-0.1-0.6-0.1-0.9c0-0.4,0.3-0.5,0.6-0.4c0.3,0.2,0.6,0.4,1,0.7c0.1-0.1,0.3-0.3,0.5-0.5
	c-0.1-0.1-0.2-0.2-0.2-0.2c-1,0-1.4-0.6-1.8-1.5c-0.4-1-1.2-1.9-1.8-2.8c-0.1-0.1-0.2-0.2-0.4-0.4c-0.2,0.3-0.4,0.6-0.7,0.9
	c-0.2-0.2-0.4-0.4-0.6-0.7c-0.5,0-1.1,0.2-1.6,0.5c0.4,0.3,0.7,0.5,1.1,0.7c0.3,0.2,0.5,0.5,0.3,0.8c-0.2,0.5-0.1,0.9-0.1,1.4
	c0,0.9-0.4,1.7-1,2.5c0.5,0.5,1.4,0.8,1.7,1.7C35,59.4,35,59.4,34,59c-0.1,0.2-0.2,0.4-0.3,0.5c-0.1,0.2-0.2,0.3-0.3,0.5
	c-0.4-0.2-0.7-0.4-1.1-0.6c0.1-0.4,0.2-0.7,0.3-1.1c-0.5,0.4-0.9,0.7-1.4,1c-0.1,0.1-0.3,0.2-0.3,0.3c-0.3,0.9-1.1,1.4-1.6,2.1
	c-0.9,1.1-0.8,3.2,0.2,4.3c0.3-0.4,0.6-0.9,0.8-1.3c0.2-0.3,0.2-0.8,0.7-0.8c0.6,0,1.1,0.1,1.5,0.7c0.2,0.4,0.5,0.8,0.7,1.2
	c0.3,0.5,0.6,1,1.1,1.3c0.3,0.2,0.5,0.5,0.3,1c-0.3,0.8,0.3,1.7,1.2,2c0.3-0.3,0.3-0.7,0.2-1.1c0-0.3-0.1-0.5-0.1-0.8
	c-0.1-0.4,0-0.7,0.4-1c0.3-0.2,0.5-0.5,0.7-0.8c0.4-0.6,0.3-1.2-0.2-1.8c-0.2-0.3-0.4-0.5-0.7-0.9c0.4-0.3,0.6-0.6,0.4-1.2
	c-0.1-0.5,0.1-1.1,0.1-1.8c0.3,0,0.6,0,0.8,0c0.1,0,0.3,0.1,0.4,0.1c0.8-0.1,0.8-0.1,1.2,0.5c0.2,0.3,0.4,0.7,0.8,0.8
	c0.6,0.1,0.8,0.6,0.7,1.1c-0.1,0.7,0.2,1.1,0.8,1.4c0.8-0.3,0.9-1.2,1.4-1.8c0.1,0.2,0.3,0.3,0.4,0.5c0.3,0.9,0.9,1.6,1,2.6
	c0,0.4,0.4,0.9,0.7,1.2c0.4,0.4,0.9,0.7,1.4,1.1c0.6,0.4,0.6,0.4,0.5,1.1c0,0.1-0.1,0.2,0,0.3c0.3,0.5,0.2,1-0.3,1.5
	c0.3,0.2,0.6,0.4,0.8,0.5c0.2,0.2,0.5,0.3,0.7,0.5c0.4,0.3,0.5,0.7,0.3,1.1c-0.2,0.5-0.6,0.2-0.9,0.1c-0.2,0.2-0.3,0.4-0.5,0.5
	c-0.2-0.1-0.4-0.3-0.6-0.4c0.1-0.1,0.2-0.2,0.4-0.4c-0.5-0.1-0.9-0.2-1.4-0.3c0.3-0.8,0.5-1.5,0.8-2.2c0,0-0.1-0.1-0.1-0.1
	c-0.2,0.1-0.4,0.2-0.6,0.4c-0.5,0.5-0.9,0.9-1.8,0.4c0.3,0.4,0.4,0.5,0.6,0.8c-0.1,0-0.2,0.1-0.2,0.1c-0.1-0.1-0.3-0.1-0.4-0.2
	c-0.6-0.5-0.8-0.5-1.8,0c0.5,0.1,0.9,0.2,1.3,0.2c0.4,0.6-0.4,0.9-0.4,1.4c0.4,0.2,0.8,0.3,1.3,0.5c0.2-0.2,0.5-0.4,0.8-0.7
	c0.1,0.3,0.3,0.6,0.4,0.9c-1,0.5-1.9,1.1-3,1.7c0-0.4,0-0.7,0.1-1.1c-0.9,0.3-1.7,0.9-2.2,1.9c0.1,0.1,0.3,0.2,0.4,0.3
	c-0.6,0.5-1.6,0.4-1.9,1.3c-0.3,0.7-0.9,1.3-0.6,2.2c-0.7,0.5-1.3,0.9-1.9,1.4c-0.8,0.7-0.9,1.2-0.5,2.2c0.4,0.8,0.4,1.2,0.1,2
	c-0.6-0.2-0.8-0.7-0.9-1.2c-0.3-0.9-0.3-1-1.2-1.1c-0.3,0-0.5-0.1-0.7-0.2c-0.4-0.2-0.8-0.3-1.1,0.1c-0.3,0.3-0.6,0.3-1,0.2
	c-0.8-0.4-1.6-0.1-2.3,0.3c-0.4,0.2-0.5,0.5-0.4,1c0.1,0.3,0,0.5-0.1,0.8c-0.3,0.8-0.2,1.7,0.1,2.5c0.3,0.7,1.7,1.1,2.3,0.7
	c0.2-0.1,0.3-0.4,0.4-0.6c0.4-1,0.9-1.2,2.1-0.8c-0.2,0.6-0.5,1.2-0.7,1.9c0.3,1.1,1.5,1,2.3,1.5c0,0.4,0,0.8-0.1,1.2
	c-0.1,0.5,0.1,0.7,0.5,0.9c0.4,0.2,0.8,0.6,1.3,0.2c0.1-0.1,0.4,0.1,0.7,0.1c0.6,0.2,0.8,0.2,1-0.3c0.3-0.5,0.6-0.9,1.2-0.8
	c0.3,0,0.5-0.2,0.7-0.4c0.2,0.1,0.4,0.2,0.6,0.2c0.7-0.1,1.4-0.3,2,0.3c0.1,0.1,0.2,0.1,0.2,0.1c0.5-0.2,0.8,0,1.2,0.2
	c0.3,0.1,0.7-0.1,1.1-0.1c-0.1,0.3-0.2,0.5-0.3,0.8c0.3,0.3,0.6,0.6,1,0.8c0.4,0.3,0.7,0.7,0.6,1.3c-0.1,0.5,0.1,1,0.5,1.5
	c0.2-0.2,0.4-0.3,0.5-0.4c0.2,0.1,0.5,0.2,0.8,0.3c0.2-0.4,0.4-0.7,0.7-1.2c0.3,0.5,0.6,1,0.9,1.6c-0.2,0.3-0.5,0.6-0.7,0.9
	c0,0,0.1,0.1,0.1,0.1c0.4-0.1,0.8-0.2,1.3-0.4c-0.1,0.3-0.2,0.6-0.2,0.8c0,0,0.1,0.1,0.1,0.1c0.2-0.2,0.4-0.3,0.5-0.5
	c0.5-0.5,0.9-0.5,1.2,0c0.4,0.7,1,0.7,1.6,0.7c0.7,0,1.3,0.1,1.8,0.7c0.2,0.3,0.6,0.4,0.9,0.5c0.6,0.3,0.7,1.3,0.3,1.8
	c-0.4,0.5-0.9,1-1.4,1.4c-0.3,0.2-0.3,0.5-0.3,0.8c0,0.6-0.1,1.3-0.1,1.9c0,0.5-0.1,1-0.5,1.3c-0.4,0.3-0.1,1-0.7,1.2
	c-0.5,0.1-0.9,0.3-1.4,0.3c-0.7,0-1,0.5-1.4,0.9c-0.2,0.1-0.2,0.5-0.2,0.7c0,0.5,0,1-0.5,1.4c-0.5,0.5-0.8,1.1-1.1,1.7
	c-0.4,0.8-1,1.3-1.8,1.3c-0.1,0-0.3,0.1-0.5,0.2c0.1,0.3,0.3,0.5,0.3,0.6c-0.2,1.5-1.4,1.3-2.4,1.5c-0.1,0.4-0.2,0.7-0.3,1.1
	c-0.3,0.1-0.7,0.2-1.3,0.4c0.4,0.2,0.7,0.3,1,0.5c-0.5,0.6-1.4,0.8-1.1,1.6c-0.1,0.1-0.1,0.1-0.2,0.1c-0.9,0.4-0.9,0.4-0.3,1.2
	c0.4,0.5,0.3,0.7-0.1,1.1c-0.2,0.2-0.3,0.4-0.4,0.7c-0.1,0.4-0.4,0.7-0.7,1.1c0.3,0.4,0.5,0.9,0.5,1.5c0,0.6,0.6,0.9,1.1,1.1
	c0.2,0.1,0.5,0.1,0.9,0.2c-0.5,0.1-0.8,0.1-1,0.3c-0.3,0.2-0.4,0.5-0.7,0.8c-0.3-0.2-0.5-0.4-0.8-0.4c-1-0.1-1.5-0.8-2-1.5
	c-0.2-0.3-0.4-0.6-0.6-0.9c-0.5-0.6-0.4-1.3-0.3-2.1c0-0.1,0.1-0.2,0.1-0.3c0-0.5,0-1,0.1-1.6c-0.1,0.1-0.3,0.2-0.6,0.5
	c0.2-0.6,0.4-0.9,0.5-1.3c0.1-0.4,0.1-0.8,0.1-1.4c0.4-0.3,0.4-0.8,0.4-1.4c0-0.4,0.1-0.7,0.2-1.1c0-0.1,0.1-0.2,0.1-0.3
	c-0.3-0.8,0-1.4,0.3-2.1c0.3-0.6,0.5-1.3,0.3-2c-0.1-0.2,0.1-0.5,0.2-0.7c0.2-0.4,0.2-0.8-0.2-1.1c0.2-0.3,0.3-0.6,0.4-0.9
	c0.1-0.7,0.3-1.3,0.3-2c0.1-0.7,0-1.4,0-2c0-0.2-0.2-0.4-0.4-0.5c-0.4-0.2-0.8-0.4-1.3-0.6c-0.9-0.4-1.5-1.2-1.7-2.1
	c-0.2-0.9-0.6-1.7-1.3-2.4c-0.5-0.5-0.5-0.7-0.1-1.2c0.2-0.3,0.3-0.6,0.2-0.9c-0.2-0.6,0-1,0.4-1.5c0.4-0.4,0.7-0.8,1-1.2
	c0.4-0.4,0.3-1,0-1.5c-0.2-0.3-0.8-0.4-1.3-0.1c-0.4,0.2-0.7,0.1-1.1-0.1c-0.8-0.6-1.8-1.2-2.2-2.3c-0.1-0.3-0.3-0.4-0.6-0.4
	c-0.3,0-0.7-0.2-1-0.4c-0.6-0.4-1.2-0.8-1.8-1.2c-0.3,0.2-0.5,0.4-0.9,0.6c-1.3-1-3.1-1-4.3-2.4c0.3-0.5,0.2-0.9-0.2-1.3
	c-0.2-0.2-0.4-0.5-0.7-0.7c-0.7-0.7-1.4-1.4-2.1-2.2c-0.1-0.1-0.1-0.3-0.2-0.5c-0.1-0.3-0.3-0.6-0.5-1c-0.2,0.3-0.4,0.4-0.3,0.6
	c0,0.2,0.2,0.4,0.3,0.6c0.6,0.9,1.3,1.8,1.9,2.7c0.1,0.1,0.1,0.3,0.2,0.6c-0.5-0.4-0.9-0.6-1.4-0.9c-0.1-0.6-0.4-1.2-1.2-1.4
	c0.1-0.5,0.2-1-0.4-1.2c-0.2-0.1-0.2-0.4-0.3-0.6c-0.2-0.3-0.3-0.7-0.4-1.1c-0.2-0.4-0.5-0.6-0.9-0.8c-1-0.3-1.1-0.5-1-1.5
	c0.5-8,2.2-15.6,5.4-22.9c0.1-0.3,0.2-0.5,0.4-0.8c0.2,0.2,0.3,0.4,0.5,0.6c0.6-0.5,0.4-0.9,0-1.4c0.2-0.3,0.4-0.6,0.7-0.9
	C24.6,54.5,25.6,55.1,26.8,54.8z M71.5,118.8c-3.1,1.3-6.2,2.6-9.4,3.9c0-1.3,0-2.5,0-3.7c3.1-1.4,6.2-2.8,9.4-4.2
	C71.5,116.2,71.5,117.5,71.5,118.8z M62.1,115.5c0-1.3,0-2.5,0-3.7c3.1-1.4,6.1-2.8,9.4-4.2c0.1,1.4,0,2.7,0,4.1
	C68.4,112.9,65.3,114.1,62.1,115.5z M78,82.6c1.4-1,2.9-1.9,4.4-2.8c2-1.3,3.9-2.5,5.9-3.8c0.3-0.2,0.5-0.3,0.9-0.5
	c0,1.8,0,3.5,0,5.3c-3.8,2.5-7.6,5-11.6,7.7c0-1.9,0-3.5,0-5.2C77.6,83,77.8,82.8,78,82.6z"/>
<path class="st0" d="M781.8,63.7c4.4,1.2,8.3-0.9,10-5.5c0.5-1.3,0.8-2.6,1.2-4.1c0.9,1.5,1,5.4,0.5,10.6c-1.4,0-1.2-1.5-2.1-2.1
	c-3.5,2.6-7.6,3-11.9,1.9c-3.2-0.8-5.8-2.7-7.8-5.3c-4-5.3-3.7-13.6,0.5-18.7c4.4-5.3,11.2-6.2,19-2.5c0.5-0.6,0.9-1.2,1.3-1.7
	c0.9,0.1,0.4,7.3-0.7,9.8c-0.4-1.5-0.8-2.7-1.1-3.9c-0.8-2.8-2.5-4.7-5.4-5.3c-3.2-0.7-5.8,0.2-7.7,2.9c-0.5,0.7-0.9,1.4-1.2,2.2
	c-2,5.4-2.1,10.8-0.1,16.1C777.1,60.8,778.9,62.9,781.8,63.7z M763.4,90c-4.4,1.5-8.6,3.5-13.4,5.5c2.1,1.7,3.8,2.9,5.3,4.3
	c2.2,2,4.5,4.1,6.5,6.3c2.8,3.3,2.8,6,0.3,9.8c-7.5,0-15,0-22.7,0c-0.2-2.6-0.4-5.3-0.6-7.9c-0.4-5.9-0.8-11.7-1.3-17.6
	c-0.2-2.2,0.2-3.9,2.3-5.5c0.2,1,0.4,1.8,0.5,2.6c0.6,6.6,1.2,13.2,1.8,19.7c0.4,4.3,0.7,4.6,5,4.6c4.1,0,8.3,0,12.4,0
	c0.8,0,1.6-0.1,2.4-0.2c-1-3-4.3-6.2-9.1-8.9c-0.4,0.2-0.7,0.5-1.1,0.8c-2.8-1.1-4.2-4-3.4-6.9c0.1-0.3,0.2-0.5,0.3-0.8
	c0.5-2.5,1.9-4.1,4.3-5.1c3.7-1.5,7.3-3.3,11-5c1-0.4,2-0.7,3.4-1.2C766.7,87.4,766.1,89.1,763.4,90z M758.9,65.1
	c-1.8,0-3.3-1.5-3.3-3.4c0-2,1.6-3.6,3.5-3.5c1.8,0.1,3.2,1.7,3.2,3.5C762.2,63.7,760.7,65.1,758.9,65.1z M726.6,64
	c0.9-0.3,1.9-0.6,2.7-0.9c0.6-3.7,0.4-23.9-0.3-26.2c-0.8-0.2-1.6-0.4-2.7-0.7c2.2-0.8,8.8-0.8,11.5,0.2c-0.9,0.2-1.7,0.4-2.5,0.6
	c-0.6,2.2-0.8,22.6-0.2,26.3c3.3,0.3,6.7,0.2,10-0.4c2-0.3,3-1.7,3.4-3.5c0.2-1,0.1-2.1,1-3c0.9,1.9,1,4.3,0.4,8.5
	C742.1,64.3,734.3,64.9,726.6,64z M728.2,107.3c-1.5-3.3-1.5-3.3,0.6-6.3c3.4,4.3,3.8,8.9,1.6,15c-0.5,0.1-1.2,0.2-1.8,0.2
	c-5.7,0-11.4-0.1-17,0.1c-2.5,0.1-4.6-1.9-7.4-0.6c-2.2,1-5,0.5-7.6,0.5c-2.5,0-2.5-0.1-4.8-1.8c-1.4,1.6-3.2,1.9-5.1,1.7
	c-1.5-0.1-2.9-0.1-4.4,0c-1.8,0.1-3.3-0.3-4.7-2.6c-0.2,0.5-0.4,1-0.7,1.5c-0.5,1-1.3,1.1-2.3,1.1c-2.7,0-5.3,0-7.5,0
	c-1.6,3-2.8,5.7-4.4,8.2c-2.2,3.4-5.2,4.8-9.2,3.4c-2.2-0.8-4.5-1.4-6.7-2.2c0-0.2,0.1-0.4,0.1-0.6c0.4-0.1,0.9-0.2,1.3-0.2
	c0.5,0,1.1,0.2,1.6,0.4c5.9,1.5,13-2.7,14.7-8.9c-1.3-0.1-2.6-0.1-3.8-0.2c-3.4-0.4-5-2.3-4.2-5.7c0.6-2.3,1.7-4.6,3-6.7
	c1.4-2.1,3.3-2.1,4.6,0.1c1,1.7,1.5,3.7,2.2,5.6c0.3,0.8,0.3,1.6,0.4,2.6c3.9,0,7.7,0,11.5,0c0.3-2,0.2-4,0.9-5.7
	c0.4-1.3,1.7-2.3,3-3.8c0.4,3.6-0.9,6.4-0.7,9.7c3.2,0.2,6.2,0.3,9.3-0.1c1-0.1,1.9-0.7,1.7-1.8c-0.5-2.8,1.7-3.7,3.1-5.2
	c0.2,0.1,0.4,0.1,0.6,0.2c-0.5,2.1-0.9,4.2-1.4,6.5c3.6,1.1,7.3,0.5,11.3,0.2c0-2.7,0.5-5,3.6-6.4c-0.4,2.1-0.8,3.9-1.2,5.8
	c1.9,1,3.7,1,6,0.8c-0.7-2.8-1.6-5.6,2-7.2c0.7,2.2,0,4.5,0.3,6.8c2.1,0.6,9.9,0.7,12.6,0.1C729.5,110.1,728.8,108.7,728.2,107.3z
	 M662.5,107.3c-0.6-0.4-1.9-0.7-2.4-0.3c-0.9,0.6-1.6,1.7-2,2.7c-0.1,0.4,1,1.5,1.7,1.7c1.3,0.4,2.8,0.4,4.4,0.6
	C664.4,109.7,663.8,108.2,662.5,107.3z M716.6,65.1c-1.8,0.1-3.3-1.3-3.4-3.2c-0.1-2,1.4-3.6,3.3-3.6c1.8,0,3.3,1.5,3.3,3.4
	C719.8,63.5,718.4,65,716.6,65.1z M684.5,64.6c0-0.2-0.1-0.4-0.1-0.6c0.9-0.3,1.9-0.6,2.8-0.9c0-8.7,0-17.3,0-26
	c-1-0.3-1.9-0.5-3.1-0.8c2.1-0.7,8.4-0.9,11.6,0c-0.9,0.3-1.7,0.5-2.9,0.9c-0.2,8.6-0.1,17.2-0.1,26.2c3.7,0.2,7.2,0.3,10.6-0.5
	c1.6-0.4,2.5-1.4,2.9-3c0.3-1.1,0.5-2.2,0.8-3.5c1.3,1.7,1.5,4.3,0.7,8.3C700,64.6,692.2,64.6,684.5,64.6z M146.8,50.7
	c-0.6,0-1-0.2-1.3-0.8c-4.1-7.6-9.5-14.3-16.1-19.9c-9.3-7.9-20-13-31.9-15.4c-5.8-1.2-11.7-1.5-17.7-1.2c-25.8,1.6-48,17-58.8,39.6
	c-3.3,6.9-5.4,14.1-6.4,21.7C10.3,109.4,32.3,142.1,66,151c6.9,1.8,13.8,2.6,20.9,2.3c24.1-1,45.4-14.1,57.3-34.2
	c0.1-0.2,0.3-0.5,0.5-0.9c-2.6,0-5,0-7.4,0c-2.5,0-5,0-7.5,0c-2.5,0-4.9,0-7.4,0c-2.5,0-4.9,0-7.5,0c0-0.4,0-0.7,0-1.1
	c0-11.7,0-23.4,0-35.1c0-0.8-0.2-1.3-0.7-1.9c-2.5-2.9-4.9-5.9-7.4-8.9c-0.2-0.2-0.3-0.4-0.7-0.7c0,9.2,0,18.2,0,27.2c0,9,0,18,0,27
	c-4.7,0-9.3,0-14,0c0-0.2-0.1-0.4-0.1-0.6c0-14.6,0-29.3,0-43.9c0-0.4,0.1-0.8,0.4-1.1c0.8-0.9,1.6-1.9,2.4-2.8
	c0.3-0.3,0.5-0.7,0.6-1v0.1l7.1-8.3v-9.3c0,0.1,0,0.3,0,0.4c0,2.7,0,5.3,0,8c0,0.2,0,0.4,0,0.8c0.7-0.7,1.2-1.2,1.2-2.1
	c-0.1-2.9,0-5.9,0-8.8c0-0.4-0.1-0.8-0.5-1.1c-4.4-3.1-8.7-6.2-13.1-9.3c-0.1,0-0.2-0.1-0.3-0.1c-0.2,0.1-0.3,0.2-0.5,0.3
	c-4.2,2.7-8.4,5.3-12.6,7.9c-0.5,0.3-0.7,0.6-0.7,1.2c0,12.3,0,24.7,0,37c0,0.2,0,0.5,0,0.8l-0.1,0.1h10.1v45H74V95.8
	c-4.6,2.1-9,4.1-13.5,6.2c0,14.5,0,29,0,43.6c-0.8,0-1.5,0-2.3,0c0-0.3,0-0.6,0-0.9c0-14.4,0-28.9,0-43.3c0-0.7,0.2-1,0.8-1.3
	c4.7-2.1,9.4-4.3,14.1-6.5c0.3-0.1,0.6-0.3,0.9-0.4v-0.3h0c0-13.3,0-26.6,0-39.9c5.2-3.3,10.4-6.6,15.6-9.8c0.5-0.3,0.9-0.2,1.3,0.1
	c4.2,3,8.5,6,12.7,9c0.6,0.4,1.2,0.9,1.8,1.3c0.6,0.4,0.8,0.8,0.8,1.5c0,3.6,0,7.2,0,10.8c0,0.6,0.1,1.1,0.6,1.6
	c3.3,4,6.6,8,9.9,11.9c0.4,0.5,0.5,0.9,0.5,1.5c0,11.2,0,22.5,0,33.7c0,0.4,0,0.7,0,1.2c0.4,0,0.8,0,1.1,0c10.9,0,21.8,0,32.7,0
	c1.6,0,3.2,0.1,4.8,0.1c0.1,0,0.2,0,0.3,0.1c-11.4,26.8-41.7,49.4-78.5,46.4c-39.9-3.2-70.6-35-73-74.2C2.3,48.2,29.9,12.8,69.4,5.4
	c38.7-7.2,73.5,14.7,86.9,45.3c-0.3,0-0.6,0-0.9,0C152.5,50.7,149.7,50.7,146.8,50.7z M76.4,135.4H84V95h-7.6V135.4z M104.1,69.4
	l-1.3,1.6v-0.2l-7.1,8.4v0.1l-1.1,1.3v41.9h9.5L104.1,69.4L104.1,69.4z M240.9,36.6c5.8,1.8,5.5,8.8,2,11.5
	c-2.2,1.7-4.7,2.4-7.5,2.4c-1,0-2,0-3.2,0c0,3.9,0,7.7,0,11.4c0,1.1,0.6,1.7,1.7,1.8c0.5,0,1.1,0.1,1.8,0.1
	c-2.1,1-23.7,1.1-26.3,0.2c1.6-0.3,3-0.5,4.8-0.8c-0.9-2.6-1.7-5-2.6-7.5c-3.1,0-6.1,0-9.2,0c-0.9,2.5-2.2,4.8-2.5,7.8
	c1.2,0.2,2.2,0.3,3.6,0.5c-1.6,1.3-3.2,0.4-4.7,0.5c-1.6,0.1-3.2,0-5.2,0c0.5-0.4,0.7-0.6,0.8-0.6c2.4,0.2,3.4-1.2,4.1-3.2
	c2.3-6,4.7-12,7-17.9c0.9-2.3,1.7-4.6,2.6-6.9c0.2,0,0.4,0,0.7,0c0.4,0.9,0.8,1.8,1.1,2.7c2.9,7.3,5.9,14.6,8.8,22
	c1.3,3.3,1.7,3.5,5.4,3.1c0.8-0.1,1.6-0.2,2.8-0.4c0-1.1,0-2.1,0-3c0-6.4,0-12.9,0-19.3c0-3.6,0-3.6-3.7-4.5
	c0.8-0.3,1.2-0.6,1.7-0.6c4.1,0,8.3,0,12.4,0.2C238.6,35.9,239.8,36.3,240.9,36.6z M207.4,44.2c-0.2,0-0.4,0-0.5,0.1
	c-1.3,3.3-2.5,6.6-3.8,10c2.8,0,5.3,0,8.2,0C209.9,50.7,208.6,47.5,207.4,44.2z M233.3,36.9c-0.5,0.2-1,0.9-1,1.4
	c-0.1,3.6,0,7.3,0,11.1c2.8,0.2,5.2-0.4,6.7-2.7c1.5-2.3,1.4-4.9,0.3-7.4C238.3,37.3,235.4,36.1,233.3,36.9z M192.2,64.8
	c-1.6,0.1-1.2-1.7-2.2-2.1c-7,3.8-14.2,2.9-18.9-2.5c-4.4-5-4.8-13.5-0.9-19c4.2-5.9,10.8-7,19.6-3.3c0.4-0.6,0.9-1.2,1.5-1.9
	c0.5,2.7,0,8.2-0.9,10.1c-0.5-1.6-0.8-2.9-1.2-4.1c-1.2-3.5-3.8-5.3-7.5-5.2c-2.6,0.1-4.5,1.4-5.9,3.5c-1.4,2.2-2,4.7-2.3,7.3
	c-0.4,3.8-0.2,7.5,1.4,11.1c1.5,3.4,4,5.4,7.9,5.4c3.5,0,6.2-2.1,7.5-5.8c0.5-1.3,0.8-2.6,1.5-3.8c1.1,1.7,0.4,3.4,0.4,5.1
	C192.2,61.2,192.2,63,192.2,64.8z M200.3,111.6c3.1-1.7,5.1-2,9-1.2c-1.6-4.1-4.1-4.9-9.1-3.1c0.7-0.8,1.4-1.7,2.1-2.4
	c3.2-3,5.2-2.9,8,0.4c0.8,1,1.6,2,2.5,3c0.8,1,1.7,1.9,2.7,3.1c-0.4,1.1-0.8,2.3-1.2,3.6c-5.3-0.6-10.5-2.5-15.7,0.7
	c0.7,3,1.3,5.8,2,8.6c0.9,3.7,0.9,7.4-0.8,11.5c-0.8-4.5-1.6-8.4-2.3-12.4c-0.3-1.4-0.5-2.9-0.7-4.3
	C196.2,116,197.6,113.1,200.3,111.6z M223.9,112.3c-0.9,1.4-1.7,2.5-2.5,3.7c-1.5-1-2.9-2-4.7-3.2c1-1.3,1.7-2.3,2.7-3.6
	C220.9,110.3,222.4,111.3,223.9,112.3z M236.3,111.6c2.8-1.5,5.8-2.1,9.1-0.9c-2.8-4.7-4.5-5.2-9-3c0.5-2.4,4-5.3,6.2-4.9
	c1,0.2,1.9,1,2.7,1.7c1.1,1,1.9,2.2,2.9,3.3c1,1.1,1.9,2.2,3.1,3.5c-0.4,1.1-0.8,2.4-1.2,3.6c-5.4-0.6-10.6-2.4-15.6,0.6
	c0.8,3.8,1.5,7.3,2.3,10.8c0.8,3.1-0.1,6-1.2,8.9c-0.5-2.9-1.1-5.7-1.6-8.6c-0.5-2.5-0.9-5.1-1.3-7.6
	C232,115.9,233.5,113,236.3,111.6z M259.8,112.3c-0.9,1.3-1.6,2.4-2.5,3.8c-1.6-1.1-3-2.1-4.6-3.2c0.9-1.3,1.7-2.3,2.7-3.6
	C256.9,110.3,258.3,111.3,259.8,112.3z M253.9,64.4c-1-0.4-2-0.8-3.3-1.4c-0.5,0.7-0.8,1.3-1.2,1.9c-0.9-0.4-0.9-6,0-9.6
	c0.4,0.6,0.7,1,0.9,1.4c0.4,1,0.5,2.1,1,3.1c1.5,3.6,5.7,5.2,9.2,3.8c3.1-1.3,3.8-6.4,1.1-8.9c-1.1-1-2.5-1.8-3.9-2.6
	c-1.7-1-3.6-1.9-5.3-3c-4-2.7-4.3-8.1-0.6-11.3c2.4-2,5.2-2.6,8.3-2c1.2,0.2,2.3,0.7,4,1.2c0.2-0.4,0.4-1.1,0.7-1.8
	c0.2,0.1,0.5,0.3,0.7,0.4c0,2.6,0,5.3,0,7.9c-0.1,0.1-0.3,0.1-0.4,0.2c-0.3-0.7-0.7-1.3-0.9-2c-0.5-1.6-1.4-3-2.8-4
	c-2.3-1.6-5.6-1.3-7,0.6c-1.4,2-1,5.6,1,7.3c0.8,0.6,1.7,1.1,2.6,1.5c2,1.1,4.1,2.1,6.1,3.2c6.1,3.6,4.7,10.3-0.5,13.2
	C260.4,65.3,257.2,65.6,253.9,64.4z M294.5,35.8c0.2,2.7,0.4,5.4,0.7,8.7c-0.9-0.8-1.2-1-1.5-1.4c-0.2-0.2-0.1-0.5-0.2-0.8
	c-1-4.6-2.3-5.6-6.9-5.5c-0.4,0-0.7,0.1-1.4,0.1c0,8.8,0,17.4,0,26.2c1,0.3,2,0.6,3.1,0.9c-2.2,0.8-9.4,0.8-12,0
	c0.8-0.1,1.3-0.3,1.7-0.3c1.3,0,1.8-0.8,1.8-1.9c0-8.2-0.1-16.3-0.1-24.5c0-0.1-0.1-0.2-0.2-0.4c-2.1-0.3-4.6-0.6-6.1,1.1
	c-1.4,1.5-1.8,3.8-2.7,5.7c-0.8-1.6-0.8-3.9,0.1-8C278.6,35.8,286.5,35.8,294.5,35.8z M272.5,91c0.7-1.2,1.2-2.1,1.9-3.2
	c1.6,0.9,2.9,1.8,4.5,2.7c-0.6,1.1-1.2,2-1.9,3.3C275.4,92.8,274.1,92,272.5,91z M285.2,112.1c0.5-1.4,0.1-2.7-0.6-3.7
	c-1.1-1.7-2.3-3.3-3.7-4.7c-1-1-1.6-1.9-1.1-3.3c0.2-0.8,0.3-1.6,0.5-2.4c5.4,1.6,8.4,10.6,6.1,18.1c-4.8,1.5-9.7,1.5-15,1
	c0.4-1.5,0.7-2.8,1.1-4.2C276.7,112.7,281,113.2,285.2,112.1z M313.1,35.7c7.5,0.6,12.8,6.9,12.8,14.9c0,7.2-4.8,13.3-11.3,14.3
	c-10,1.5-18.2-6.8-16.8-16.8C299.1,40.1,305.3,35.1,313.1,35.7z M304.8,58.1c0.2,0.7,0.5,1.4,0.9,2c1.6,2.8,4,4.2,7.3,3.9
	c3.1-0.3,5-2.2,5.8-5c0.7-2.5,1-5.2,1.2-6.5c-0.1-5.2-0.5-9-2.6-12.4c-2.8-4.4-8.5-4.4-11.4-0.1c-0.4,0.7-0.9,1.4-1.1,2.2
	C303.3,47.4,303.2,52.8,304.8,58.1z M309.6,89.5c-0.6,0.9-1.1,1.6-1.6,2.4c-1.5-0.9-2.8-1.7-4.5-2.7c0.6-1,1.1-1.9,1.8-3.1
	c1.5,0.8,2.9,1.6,4.4,2.4c0.6-0.7,1.1-1.3,1.7-2.2c1.5,0.8,2.9,1.7,4.5,2.6c-0.6,1.1-1.2,2-1.9,3.1
	C312.6,91.2,311.2,90.4,309.6,89.5z M313.9,99.8c-0.6-2.6,0.6-4.2,2.6-6c0.4,3.1,0.7,5.8,1,8.5c0.3,2.6,0.6,5.1,0.8,7.7
	c0.1,1.1,0.5,2,1.7,2.1c4.4,0,8.8,0,13.3,0c0.1-2.9-1.4-5.1-2.6-7.6c0.6-1.1,1.2-2.3,2-3.8c3.5,5,3.6,10,1.7,15.4c-5,0-10,0.1-15,0
	c-2,0-3.1-1.3-3.5-3.3c-0.2-0.9-0.2-1.8-0.4-2.8c-1.7,0.3-1.8,2-3.1,2.8c-2.9-0.6-6-1.1-9-2.7C304.6,104,308,100.6,313.9,99.8z
	 M315.4,108.2c-0.4-2.4-0.8-4.6-1.1-6.7c-0.2,0-0.4-0.1-0.6-0.1c-0.8,1.8-2.3,2.5-4,3c-1.1,0.4-2.2,1-3.7,1.8
	C309.3,108.1,312.1,109,315.4,108.2z M328.4,123.8c0.6-0.7,1-1.4,1.4-1.9c2.8,1,5.6,1.8,8.3,2.8c2.4,0.9,4.7,0.7,6.8-0.7
	c2.9-1.9,5.4-4.2,7.2-7.1c1.7-2.8,1.5-4.3-0.8-6.6c-1-1-2.2-2-3.5-3.1c0.3-1.3,0.6-2.7,0.9-4.4c0.6,0.3,1.1,0.5,1.5,0.8
	c4.3,3.6,5.1,8.4,4,13.5c-0.7,3.4-2.6,6.2-5.1,8.7c-1.9,1.9-4.2,2.7-6.8,1.9c-2.6-0.8-5.1-1.8-7.9-2.8c-0.5,0.7-1.1,1.5-1.9,2.5
	c-1.5-0.8-2.8-1.6-4.3-2.4c-0.6,0.8-1.1,1.5-1.7,2.3c-1.5-0.9-2.9-1.7-4.5-2.6c0.6-1.1,1.2-2,1.8-3.2
	C325.5,122.2,326.9,123,328.4,123.8z M352.9,64.8c-1.7,0-2.2-1.1-2.8-1.9c-2.5-3.4-5-6.8-7.5-10.2c-2.1-2.9-4.2-5.8-6.2-8.7
	c-0.5-0.7-1.1-1.4-1.7-2.2c-0.8,3.6-0.6,20.2,0.3,22.5c-1.1,0-2.2,0-3.2,0c0.2-0.7,0.7-1.3,0.7-2c0-7.3,0-14.7-0.1-22
	c0-2.5-0.7-3-3.3-3.4c-0.4-0.1-0.8-0.2-1.2-0.3c0-0.3,0-0.5,0.1-0.8c2.5,0,5-0.1,7.5,0.1c0.7,0.1,1.5,0.9,2,1.6
	c3.9,5.3,7.7,10.7,11.6,16.1c0.5,0.7,1.1,1.4,2,2.5c0-6.6,0-12.8,0-19c-1.3-0.2-2.4-0.3-4-0.5c2.8-1,7-1,9.5-0.1
	c-0.8,0.2-1.2,0.3-1.7,0.4c-0.5,0.1-1.1,0.1-1.9,0.2C352.9,46.2,352.9,55.5,352.9,64.8z M359,36.4c0.7-0.4,1-0.7,1.4-0.7
	c6.8,0,13.6,0,20.4,0c0.2,0,0.3,0.1,0.7,0.3c0.2,2.6,0.4,5.2,0.7,7.9c-0.2,0.1-0.4,0.1-0.6,0.1c-0.2-0.4-0.5-0.8-0.7-1.3
	c-0.2-0.7-0.4-1.4-0.6-2.1c-0.7-2.4-2.2-3.8-4.8-3.8c-2.5-0.1-4.9,0-7.6,0c0,4,0,7.8,0,12c0.9,0,1.8,0,2.7,0c3.1,0,4.6-0.4,4.9-4.1
	c0-0.6,0.4-1.2,0.7-1.9c0.3,0.3,0.7,0.5,0.7,0.7c0,3.8,0,7.7,0,11.5c0,0.2-0.3,0.4-0.8,1.1c-0.3-1.4-0.6-2.4-0.8-3.4
	c-0.5-2.1-1-2.7-3.1-2.8c-1.4-0.1-2.7,0-4.3,0c0,4.4,0,8.7,0,13.3c1.3,0,2.6,0.1,3.9,0.1c1.6,0,3.3-0.1,4.9-0.2
	c2.8-0.2,3.9-1.1,4.5-3.9c0.2-1,0.4-2.1,0.7-3.4c1.7,1.5,0.6,3,0.7,4.4c0.1,1.4,0,2.7,0,4.3c-7.8,0-15.5,0-23.3,0
	c0-0.2-0.1-0.5-0.1-0.7c0.9-0.3,1.8-0.5,3.1-0.9c0.2-8.6,0.2-17.2,0-25.9C361.3,36.9,360.4,36.7,359,36.4z M382.8,92.9
	c-0.5,0.7-1,1.4-1.7,2.2c-1.5-0.9-3-1.7-4.7-2.7c0.7-1.2,1.2-2.2,2-3.5c1.6,1,3.2,1.9,4.9,2.9c0.5-0.7,1-1.4,1.7-2.4
	c1.3,0.8,2.7,1.7,4.2,2.6c-0.6,1.1-1.2,2.1-1.8,3.3C385.7,94.5,384.3,93.7,382.8,92.9z M417.7,55.5c0.4,1.5,0.5,3.1,0.8,4.6
	c0.3,1.4,0.2,3,2.1,3.8c0.5-1,0.5-2.4,1.9-1.9c0.4,0.1,0.8,0.8,0.8,1.2c0,1.1-0.9,1.5-1.8,1.7c-4,0.9-7.8-1.6-8.6-5.7
	c-0.2-1.4-0.4-2.7-0.6-4.1c-0.6-4-2.1-5.2-6.5-5c0,4.3,0,8.6,0,13.1c1.1,0.2,2.2,0.5,3.3,0.7c-1.7,0.9-9.7,1-12.3-0.1
	c1.2-0.3,2.3-0.5,3.5-0.8c0-8.7,0-17.4,0-26.1c-1.1-0.2-2-0.4-3-0.6c0-0.1,0-0.3,0-0.4c0.4-0.1,0.9-0.3,1.3-0.3
	c3.8,0,7.5-0.1,11.3,0c1.7,0.1,3.5,0.4,5.1,1c2.2,0.8,3.7,2.3,3.9,4.8c0.2,2.6-0.9,4.5-3.1,5.7c-1.6,0.8-3.3,1.4-5.2,2.1
	c0.6,0.2,1.2,0.5,1.8,0.7C415.3,50.9,417,52.7,417.7,55.5z M413.3,40.2c-0.7-2.3-2.8-3.6-5.6-3.5c-1.2,0-1.9,0.4-2,1.7
	c0,3.4,0,6.7,0,10.8c2-0.5,3.5-0.7,4.9-1.4C413.2,46.6,414.2,43.4,413.3,40.2z M362.8,85c0.2,1.2,0.3,2.1,0.4,3
	c0.6,6.7,1.2,13.3,1.8,20c0,0.5,0.1,0.9,0.2,1.4c0.4,2.1,0.8,2.5,2.9,2.6c2.7,0.1,5.5,0,8.4,0c0.6-4.9,4-7.5,7.7-9.8
	c3.6-2.3,5.5-1.3,6.2,3c0.2,1.4,0.1,2.7-0.7,4c-0.5,0.8-0.9,1.7-1.5,2.9c4.9-0.3,9.3,0.7,13.4-1.2c-0.3-2.8-2.6-1.7-3.9-2.4
	c-0.6-1.6,0.6-2.6,1.3-3.7c2.2-3.9,4.3-4.3,7.8-1.6c0.6,0.4,1.1,1,1.6,1.5c0.8,0.7,1,1.5,0.5,2.5c-0.7,1.3-1.3,2.6-2.2,4.2
	c2,1.3,4.4,0.6,6.6,0.7c2.3,0.1,4.6,0,7.2,0c0-1.3,0.1-2.4,0-3.4c-0.7-4.9-1.4-9.8-2.1-14.7c0-0.1,0-0.2,0-0.3
	c-2.3-3.2,0.3-5.3,1.8-8c0.6,1.1-0.1,2.5,1.3,2.9c0.9,0.3,1.7,1,2.7,1.5c-0.5,1-0.8,2.1-1.4,2.8c-1.4,1.7-1.3,3.7-1.1,5.7
	c0.3,2.5,0.6,5.1,0.9,7.7c0.4,3.3-0.2,6.4-1.2,9.6c-0.8,0.1-1.5,0.2-2.2,0.2c-2.9,0-5.9-0.1-8.8,0c-2.6,0.1-4.9-0.4-6.8-2.4
	c-3.2,1.9-6.6,2.3-10.1,2.3c-9.8,0-19.6,0-29.5,0c-0.5,0-0.9-0.1-1.6-0.1c-0.2-2.6-0.4-5.2-0.6-7.9c-0.4-5.9-0.8-11.7-1.3-17.6
	C360.2,88.3,360.7,86.6,362.8,85z M379.9,109.2c0.2,1.3,2.5,2.7,4.1,2.7c1.6,0,3.2-1,3.5-2.2c0.2-1.2-0.9-3.5-2.1-3.9
	c-1.8-0.6-3.5,0-4.8,1.3C380.1,107.5,379.8,108.5,379.9,109.2z M427.4,63.1c0.6-2.1,0.7-23.2,0-26c-0.9-0.2-1.8-0.4-2.9-0.7
	c1.9-0.9,16-1.2,22.3-0.5c0.2,2.8,0.4,5.5,0.6,8.1c-0.3,0.1-0.5,0.1-0.8,0.2c-0.3-0.9-0.5-1.8-0.8-2.7c-1-3.5-2.2-4.5-5.9-4.6
	c-2.2-0.1-4.4,0-6.7,0c0,4,0,7.8,0,11.8c1.6,0.5,3.3,0.3,5,0.1c1.2-0.2,1.9-0.9,2.2-2.2c0.2-1.1,0.5-2.2,0.9-3.6
	c0.8,1.7,1,10,0.4,13c-1.1-0.3-0.8-1.3-1-2c-0.7-3.4-1.1-3.7-4.6-3.8c-0.9,0-1.8,0-2.9,0c0,4.5,0,8.9,0,13.6
	c3.5-0.2,6.9-0.2,10.2-0.5c1.7-0.1,2.4-1.5,2.8-3c0.3-1.2,0.6-2.5,0.9-4c1.5,1.4,0.6,2.9,0.7,4.2c0.1,1.4,0,2.7,0,4.3
	c-7.8,0-15.6,0-23.7,0C425.2,63.1,426.6,63.8,427.4,63.1z M434.3,102.9c0.1,2.4,0.2,4.8,0.2,7.1c0.1,2.2-0.5,4.3-1.8,6.9
	c-0.4-3.6-0.7-6.6-1-9.6c-0.5-4.6-0.7-9.1-1.4-13.6c-0.5-3.3,0.8-5.8,3-8.3C433.7,91.2,434,97.1,434.3,102.9z M449.3,63.9
	c2.4,0.1,3.5-1.3,4.3-3.4c2.7-7.3,5.6-14.5,8.4-21.8c0.4-1,0.8-2,1.4-3.5c0.6,1.2,1,1.9,1.3,2.6c3,7.3,5.9,14.6,8.8,21.9
	c1.7,4.3,3.6,5.1,8.3,3.2c-0.1-8.6,0.2-17.2-0.1-25.9c-1.2-0.3-2-0.5-3.1-0.7c2-0.8,8-0.9,11.6-0.4c-0.5,1.2-1.9,0.5-3,1.5
	c-0.2,8.2,0,16.9-0.1,25.9c3.7,0.3,7.1,0.3,10.5-0.5c1.9-0.4,2.7-1.7,3.1-3.5c0.2-1,0.5-2,1-3c1.2,2.8,0.7,5.6,0.6,8.2
	c-11.8,0-23.2,0-34.7,0c-1,0-2.1-0.1-3.1-0.7c1.5-0.2,2.9-0.5,4.6-0.8c-0.9-2.7-1.8-5.1-2.6-7.5c-3.1,0-6,0-9.2,0
	c-0.9,2.4-1.8,4.9-2.8,7.7c1.5,0.2,2.6,0.4,3.7,0.6c-0.1,0-0.2,0.1-0.3,0.1c-0.9,0.4-2.2,0.6-4.1,0.5c-1.3,0-2.9-0.1-4.8-0.3
	C449.2,64.1,449.2,63.9,449.3,63.9z M466,54.2c-1.3-3.5-2.5-6.7-3.7-9.9c-0.2,0-0.4,0-0.6,0.1c-1.2,3.2-2.5,6.4-3.8,9.8
	C460.7,54.2,463.2,54.2,466,54.2z M467.9,101.3c-1.5-0.8-2.9-1.6-4.6-2.5c0.6-1.1,1.2-2.1,1.8-3.3c1.6,0.9,2.9,1.7,4.3,2.5
	c0.6-0.7,1.1-1.3,1.8-2.2c1.4,0.8,2.8,1.7,4.5,2.7c-0.6,1.1-1.2,1.9-1.8,3c-1.6-0.8-3-1.6-4.5-2.4C469,99.8,468.5,100.4,467.9,101.3
	z M456.3,102c-0.3,0.9-0.7,1.8-1,2.7c-1.2,3.6,0.8,6.7,4.5,7.2c0.8,0.1,1.6,0.1,2.5,0.1c6.5,0,13,0,19.5,0c0.8,0,1.6,0,2.6,0
	c0.4-3.1-1.6-5.2-2.6-7.8c0.7-1.2,1.3-2.4,2.1-3.8c3.4,5.1,3.7,10.2,1.7,15.5c-0.5,0-1.1,0.1-1.6,0.1c-7.3,0-14.7,0-22,0
	c-2.4,0-4.7-0.4-6.8-1.9c-2.5-1.8-3.2-4.1-2.2-7C453.7,105.3,454.3,103.3,456.3,102z M495,85.1c0.2,1,0.4,1.8,0.5,2.6
	c0.6,6.5,1.2,13,1.7,19.4c0,0.1,0,0.2,0,0.3c0.4,3.7,0.2,4.9,5,4.5c1.6-0.2,3.3-0.1,4.9,0c1.5,0,2.5-0.6,3.2-2c1-2,2.1-3.9,3.5-5.5
	c1.8-2.2,4.3-3.4,7.4-3.3c1,3.1,2.2,6.2,2.9,9.4c0.4,1.8-0.5,3.5-1.8,5.2c-1.7-0.6-3.3-1.1-4.9-1.7c-1.3-0.4-2.6-0.9-3.9-1.4
	c-1.4-0.6-2.5-0.6-3.3,0.8c-1.3,2.2-3.4,2.8-5.9,2.6c-3.1-0.2-6.2,0-9.6,0c-0.2-2.8-0.4-5.3-0.6-7.8c-0.4-5.8-0.8-11.7-1.3-17.5
	C492.5,88.4,492.9,86.7,495,85.1z M521,111c0.1-3-1.2-5.4-2.8-5.8c-1.5-0.4-3.3,0.8-4.5,3.3C516,109.3,518.4,110.1,521,111z
	 M528.9,63.4c1.7,0,3.3-0.1,4.9-0.2c2.8-0.2,3.9-1.1,4.5-3.9c0.2-1,0.4-2.1,0.7-3.4c1.7,1.5,0.6,3,0.7,4.4c0.1,1.4,0,2.7,0,4.3
	c-7.8,0-15.5,0-23.3,0c0-0.2-0.1-0.4-0.1-0.6c0.9-0.3,1.9-0.6,2.8-0.9c0.7-2.4,0.7-23.5,0-26.1c-0.8-0.2-1.7-0.3-3.1-0.6
	c0.8-0.4,1.1-0.7,1.4-0.7c6.8,0,13.6,0,20.4,0c0.2,0,0.3,0.1,0.7,0.3c0.2,2.6,0.4,5.2,0.7,7.9c-0.2,0-0.4,0.1-0.6,0.1
	c-0.2-0.4-0.5-0.8-0.7-1.3c-0.2-0.7-0.4-1.4-0.6-2.1c-0.7-2.4-2.2-3.8-4.8-3.8c-2.5-0.1-4.9,0-7.6,0c0,4,0,7.8,0,12c1,0,1.8,0,2.7,0
	c2.8,0,4.6-0.2,4.8-4.1c0-0.6,0.4-1.2,0.7-1.8c0.3,0.3,0.7,0.5,0.7,0.7c0,3.8,0,7.7,0,11.5c0,0.2-0.3,0.4-0.8,1.1
	c-0.3-1.4-0.6-2.4-0.8-3.4c-0.5-2.1-1-2.6-3.1-2.8c-1.4-0.1-2.7,0-4.3,0c0,4.4,0,8.7,0,13.3C526.3,63.4,527.6,63.4,528.9,63.4z
	 M588.7,35.8c0.8,3,1,6.8,0.2,8.4c-0.3-0.5-0.7-0.9-0.8-1.3c-1.3-5.6-2.5-6.4-8.5-5.9c-0.1,0.9-0.2,1.9-0.2,2.8c0,6.7,0,13.4,0,20.1
	c0,3.4,0,3.4,3.2,4.1c-1.8,0.8-8.8,0.9-11.9,0c0.9-0.2,1.3-0.3,1.7-0.3c1.3,0,1.8-0.7,1.8-1.9c0-8.1,0-16.2-0.1-24.2
	c0-0.2-0.1-0.3-0.3-0.7c-2.1-0.2-4.6-0.5-6.1,1.2c-1.4,1.5-1.8,3.8-2.7,5.8c-0.9-1.4-0.9-2.1,0-8C573.2,35.8,581,35.8,588.7,35.8z
	 M564,94.6c-1.6-0.9-3-1.8-4.6-2.7c0.8-1.2,1.3-2,2-3.2c1.5,0.9,2.8,1.7,4.4,2.7C565.3,92.5,564.7,93.5,564,94.6z M549.7,45.7
	c0.8,0.7,1.9,1.1,2.8,1.6c2,1.1,4.1,2.1,6,3.3c5.7,3.6,4.3,9.8-0.1,12.6c-3.2,2.1-6.7,2.4-10.3,1.1c-1-0.4-2-0.8-3.2-1.4
	c-0.5,0.8-0.9,1.3-1.2,1.9c-0.9-0.4-0.8-6.3,0.1-9.6c0.4,0.6,0.7,1,0.8,1.4c0.4,1.2,0.6,2.5,1.2,3.6c1.6,3.2,6.1,4.6,9.3,3.1
	c2.9-1.4,3.4-6.4,0.7-8.8c-1.1-1-2.5-1.8-3.9-2.6c-1.7-1-3.6-1.9-5.3-3c-3.9-2.6-4.3-7.9-0.7-11.1c2.4-2.2,5.3-2.8,8.5-2.1
	c1.2,0.2,2.3,0.7,3.5,1c0.5-0.5,1-0.9,1.8-1.7c0,3.1,0,5.7,0,8.4c-0.1,0.1-0.3,0.1-0.4,0.2c-0.3-0.7-0.5-1.4-0.9-2
	c-0.9-1.4-1.7-2.9-2.9-3.9c-2.1-1.7-5.3-1.4-6.7,0.4C547.2,40.2,547.6,44,549.7,45.7z M530.3,109.2c0.8,3.4,1,3.6,4.5,3.5
	c2.1-0.1,4.2-0.2,6.3-0.6c2.5-0.5,3.2-1.9,2.6-4.5c-0.4-1.8-0.7-3.6-1.4-5.3c-0.9-2.4,0.3-3.9,2-6.1c0.5,2.6,1,4.6,1.4,6.6
	c0.5,2.2,1,4.5,1.5,6.7c0.4,1.6,1.4,2.5,3.2,2.5c3.3,0,6.6,0.1,9.9-0.1c3.5-0.2,6.4-1.8,9.3-4.3c-3.2-1.1-6.2-1.7-9.2-2
	c-1.3-0.1-2.7,0.9-4,1.4c0.5-4,3-6.2,6.7-5.8c1.6,0.2,3.2,0.6,4.8,1.1c4.2,1.1,8.3,2.4,12.8,2.1c0,1.6-0.8,2.7-1.3,3.8
	c-2.7,0.4-5.3,0.7-7.9,1.1c0.4,2.4,0.6,2.6,2.6,2.6c4.8,0,9.5,0,14.3,0c0.8,0,1.6-0.1,2.7-0.1c-0.3-3-0.6-5.8-1-8.6
	c-0.4-3.5-0.8-6.9-1.4-10.4c-0.6-3.1,0.2-5.3,3.1-7.4c0.4,4.5,0.7,8.8,1,13.2c0.3,4.3,0.7,8.6,1,13.3c3.6,0.1,7.1,0.1,11,0
	c-0.3-2.9-0.4-5.6-0.8-8.2c-0.4-3.2-1-6.3-1.5-9.5c0-0.3,0-0.6-0.1-0.8c-2-2.3-0.3-4.2,0.8-6.1c0.3-0.5,0.6-0.9,1.3-2
	c-0.4,3.4,2.2,3.5,3.8,4.8c-0.5,1.1-0.8,2.1-1.5,3c-1.1,1.5-1.3,3.1-1,4.9c0.4,2.6,0.6,5.3,0.9,7.9c0.4,3.4-0.1,6.7-1.4,10.1
	c-4.2,0-8.3,0.1-12.4-0.1c-0.6,0-1.2-0.8-2-1.2c-0.7,1.1-2,1.3-3.5,1.3c-4.5-0.1-9,0-13.5,0c-3.2,0-3.5-0.2-4.1-3.5
	c-0.1-0.4-0.2-0.9-0.3-1.5c-1.8,0.4-3.1,1.5-4.4,2.6c-2,1.8-4.2,2.5-6.8,2.4c-2.3-0.1-4.6-0.1-6.9,0c-3,0.2-5.5-0.3-6.5-4.3
	c-0.5,0.7-0.8,0.9-0.9,1.1c-0.9,2.9-3.2,3.5-5.8,3.7c-2.2,0.1-4.4,0.4-6.6,0.3c-2.4-0.1-3-0.9-2.7-3.4
	C529.3,112.1,529.8,110.7,530.3,109.2z M609.7,63.2c-0.3-2.8-1.5-5.1-2.4-7.6c-3,0-6,0-9.1,0c-0.9,2.5-1.8,4.9-2.8,7.8
	c1.5,0.2,2.6,0.4,3.9,0.5c-1.6,0.7-7,0.8-9.4,0.1c3.1,0.2,3.9-2.1,4.8-4.3c2.8-7.2,5.5-14.4,8.3-21.5c0.3-0.8,0.7-1.6,1.3-3
	c0.6,1.4,1,2.3,1.4,3.2c2.9,7.2,5.9,14.4,8.7,21.7c0.9,2.3,1.9,4.2,4.9,4c-2.3,0.9-11.6,0.9-14.2,0.1
	C606.8,63.7,608.1,63.4,609.7,63.2z M602.8,43.8c-1.5,3.8-2.9,7-4,10.5c2.8,0,5.3,0,8,0C605.5,50.7,604.4,47.4,602.8,43.8z
	 M619.2,36.1c1.9-0.6,17.9-0.8,23.9-0.3c0,2.7,0.7,5.3,0.5,8.1c-0.2,0.1-0.5,0.1-0.7,0.2c-0.3-0.5-0.6-0.9-0.7-1.4
	c-1.1-5.3-2.9-6.5-8.6-5.6c0,0.8,0,1.7,0,2.6c0,6.8,0,13.6,0,20.4c0,3.2,0,3.2,3.2,3.9c-1.7,0.9-9.4,0.9-11.5,0
	c3.1-0.7,3.1-0.7,3.1-4.1c0-6.8,0-13.6,0-20.4c0-0.8,0-1.6,0-2.6c-2.4-0.3-4.9-0.6-6.4,1c-1.4,1.5-1.8,3.8-2.7,5.7
	C618.3,42.5,618.3,42.4,619.2,36.1z M632.9,94.4c1.5,0.8,2.9,1.5,4.5,2.3c-0.6,1.1-1.1,2.1-1.8,3.3c-1.5-0.8-2.9-1.6-4.5-2.5
	C631.8,96.5,632.3,95.5,632.9,94.4z M675.2,93.7c0.6-0.7,1.2-1.4,1.9-2.2c1.5,0.9,2.8,1.7,4.5,2.6c-0.7,1.1-1.2,2.1-1.9,3.1
	c-1.6-0.9-2.9-1.6-4.4-2.4c-0.6,0.7-1.2,1.3-1.9,2.1c-1.4-0.8-2.8-1.7-4.4-2.6c0.7-1.1,1.3-2.1,1.9-3.2
	C672.4,92.1,673.8,92.8,675.2,93.7z M661.6,64.7c-2.6,0-5.1,0.1-7.7,0c-2.6,0-5.2,0.4-7.7-0.1c0-0.2,0-0.5-0.1-0.7
	c1-0.3,1.9-0.6,3.1-0.9c0-8.6,0-17.1,0-25.9c-1-0.2-2-0.4-3.3-0.7c0.7-0.4,1-0.7,1.4-0.7c6.8,0,13.6,0,20.4,0c0.2,0,0.3,0.1,0.7,0.3
	c0.2,2.6,0.4,5.2,0.7,7.9c-0.2,0.1-0.3,0.1-0.5,0.2c-0.2-0.4-0.6-0.8-0.7-1.2c-0.3-0.9-0.5-1.8-0.8-2.6c-0.7-2.2-2.2-3.4-4.5-3.4
	c-2.5-0.1-4.9,0-7.7,0c0,4,0,7.9,0,11.8c0.8,0.1,1.5,0.2,2.2,0.2c4.3,0,4.6-0.2,5.5-4.4c0.1-0.4,0.2-0.7,0.3-1
	c0.1-0.1,0.3-0.1,0.7-0.3c0,4.3,0,8.4,0,12.9c-1.2-0.8-1-1.8-1.2-2.6c-0.7-2.8-1.1-3.3-4.1-3.4c-1,0-2,0-3,0
	c-0.6,1.9-0.8,9.3-0.3,13.5c3.4,0,6.9,0,10.3-0.4c1.6-0.2,2.4-1.6,2.8-3.1c0.3-1.2,0.6-2.4,0.9-3.9c0.9,1.7,1,3.2,0.6,8.6
	C666.9,64.7,664.2,64.7,661.6,64.7z M626.8,108.1c0.2-0.5,0.7-0.8,1.4-1.1c-0.1,0.5-0.2,1.1-0.4,1.6c-0.5,1.5-1.2,2.9-1.6,4.4
	c-1,4,1,7.6,5,8.4c4.7,1,9.1-0.2,13.2-2.6c1.4-0.8,2.1-2.2,1.6-3.8c-0.5-1.9-0.9-4-2-5.7c-1.3-2.2-1-3.9,0.3-5.8
	c0.2-0.3,0.4-0.6,0.8-1.2c3,4.4,3.8,8.9,2.8,13.6c-0.6,3.1-2.3,5.6-5.1,7.2c-4.1,2.3-8.4,3.1-13,2.2c-4.1-0.8-6.5-3.9-5.9-8
	C624.5,114.3,625.8,111.2,626.8,108.1z M727.8,124.1c-0.6,1-1.2,2-1.9,3.2c-1.5-0.9-2.9-1.8-4.4-2.7c0.6-1.1,1.2-2,1.9-3.1
	C724.8,122.4,726.2,123.2,727.8,124.1z"/>
</svg>
