<svg width="18" height="19" viewBox="0 0 99 100" fill="none" xmlns="http://www.w3.org/2000/svg">
                            <path d="M96.352 52.661H21.79V12.697C21.79 8.09698 25.532 4.35498 30.132 4.35498C34.325 4.35498 37.797 7.46398 38.383 11.495C32.144 12.225 27.3 17.151 27.3 23.113C27.3 23.942 27.971 24.613 28.8 24.613H51.162C51.99 24.613 52.662 23.942 52.662 23.113C52.662 17.097 47.731 12.131 41.41 11.472C40.797 5.79198 35.974 1.35498 30.132 1.35498C23.878 1.35498 18.79 6.44298 18.79 12.697V52.661H3.38202C2.55302 52.661 1.88202 53.333 1.88202 54.161C1.88202 54.989 2.55302 55.661 3.38202 55.661H10.667L18.835 88.33C19.002 88.997 19.602 89.466 20.29 89.466H27.238V96.419C27.238 97.247 27.909 97.919 28.738 97.919C29.567 97.919 30.238 97.247 30.238 96.419V89.466H69.495V96.419C69.495 97.247 70.167 97.919 70.995 97.919C71.823 97.919 72.495 97.247 72.495 96.419V89.466H79.445C80.133 89.466 80.733 88.997 80.9 88.33L89.07 55.661H96.351C97.179 55.661 97.851 54.989 97.851 54.161C97.851 53.333 97.18 52.661 96.352 52.661ZM49.519 21.613H30.443C31.235 17.516 35.21 14.392 39.98 14.392C44.751 14.392 48.727 17.516 49.519 21.613ZM78.274 86.466H21.461L13.759 55.661H85.978L78.274 86.466Z" fill="black" stroke="black" stroke-width="2.2"></path>
                            </svg>