<?xml version="1.0" encoding="utf-8"?>
<!-- Generator: Adobe Illustrator 15.0.0, SVG Export Plug-In . SVG Version: 6.00 Build 0)  -->
<!DOCTYPE svg PUBLIC "-//W3C//DTD SVG 1.1//EN" "http://www.w3.org/Graphics/SVG/1.1/DTD/svg11.dtd">
<svg version="1.1" id="Layer_1" xmlns="http://www.w3.org/2000/svg" xmlns:xlink="http://www.w3.org/1999/xlink" x="0px" y="0px"
	 width="400.206px" height="241.625px" viewBox="0 0 400.206 241.625" enable-background="new 0 0 400.206 241.625"
	 xml:space="preserve" fill="#ffffff">
<g>
	<defs>
		<rect id="SVGID_1_" width="400.206" height="241.625"/>
	</defs>
	<clipPath id="SVGID_2_">
		<use xlink:href="#SVGID_1_"  overflow="visible"/>
	</clipPath>
	<path clip-path="url(#SVGID_2_)" d="M362.418,77.077c-5.328,0-9.644-4.31-9.644-9.643V19.293H49.337v48.141
		c0,5.333-4.311,9.643-9.649,9.643c-5.334,0-9.65-4.31-9.65-9.643V9.644C30.038,4.31,34.354,0,39.688,0h322.724
		c5.334,0,9.655,4.316,9.655,9.644v57.79C372.073,72.767,367.752,77.077,362.418,77.077"/>
	<path clip-path="url(#SVGID_2_)" d="M387.699,201.908H14.417c-5.333,0-9.655-4.305-9.655-9.637v-60.535
		c0-5.34,4.316-9.649,9.655-9.649h373.282c5.322,0,9.638,4.31,9.638,9.649v60.535C397.337,197.61,393.021,201.908,387.699,201.908
		 M24.067,182.627h353.971v-41.253H24.067V182.627z"/>
	<path clip-path="url(#SVGID_2_)" d="M204.657,133.986c-5.34,0-9.655-4.304-9.655-9.638V9.645c0-5.334,4.315-9.644,9.655-9.644
		c5.334,0,9.644,4.316,9.644,9.644v114.704C214.307,129.688,209.991,133.986,204.657,133.986"/>
	<path clip-path="url(#SVGID_2_)" d="M39.693,241.625c-5.334,0-9.649-4.304-9.649-9.644v-36.021c0-5.334,4.315-9.638,9.649-9.638
		c5.333,0,9.649,4.304,9.649,9.638v36.021C49.337,237.327,45.026,241.625,39.693,241.625"/>
	<path clip-path="url(#SVGID_2_)" d="M362.418,241.625c-5.328,0-9.644-4.304-9.644-9.644v-36.021c0-5.334,4.322-9.638,9.644-9.638
		c5.334,0,9.655,4.304,9.655,9.638v36.021C372.073,237.327,367.752,241.625,362.418,241.625"/>
	<path clip-path="url(#SVGID_2_)" d="M37.788,136.761C16.947,136.761,0,119.819,0,98.984C0,78.15,16.941,61.208,37.788,61.208
		c20.829,0,37.771,16.942,37.771,37.776C75.559,119.819,58.611,136.761,37.788,136.761 M37.788,80.513
		c-10.197,0-18.489,8.292-18.489,18.478c0,10.19,8.292,18.483,18.489,18.483c10.18,0,18.472-8.299,18.472-18.483
		C56.254,88.799,47.968,80.513,37.788,80.513"/>
	<path clip-path="url(#SVGID_2_)" d="M362.418,136.761c-20.841,0-37.788-16.942-37.788-37.777c0-20.834,16.947-37.776,37.788-37.776
		c20.854,0,37.788,16.942,37.788,37.776C400.206,119.819,383.271,136.761,362.418,136.761 M362.418,80.513
		c-10.197,0-18.483,8.292-18.483,18.478c0,10.19,8.292,18.483,18.483,18.483c10.203,0,18.483-8.299,18.483-18.483
		C380.901,88.799,372.621,80.513,362.418,80.513"/>
</g>
</svg>
