<?xml version="1.0" encoding="utf-8"?>
<!-- Generator: Adobe Illustrator 25.1.0, SVG Export Plug-In . SVG Version: 6.00 Build 0)  -->
<svg version="1.1" id="Layer_1" xmlns="http://www.w3.org/2000/svg" xmlns:xlink="http://www.w3.org/1999/xlink" x="0px" y="0px"
	 viewBox="0 0 400.2 241.6" style="enable-background:new 0 0 400.2 241.6;" xml:space="preserve">
<style type="text/css">
	.st0{clip-path:url(#SVGID_2_);fill:#1C355E;}
	.st1{clip-path:url(#SVGID_4_);fill:#1C355E;}
	.st2{clip-path:url(#SVGID_6_);fill:#1C355E;}
	.st3{clip-path:url(#SVGID_8_);fill:#1C355E;}
	.st4{clip-path:url(#SVGID_10_);fill:#1C355E;}
	.st5{clip-path:url(#SVGID_12_);fill:#1C355E;}
	.st6{clip-path:url(#SVGID_14_);fill:#1C355E;}
</style>
<g>
	<g>
		<g>
			<defs>
				<rect id="SVGID_1_" y="0" width="400.2" height="241.6"/>
			</defs>
			<clipPath id="SVGID_2_">
				<use xlink:href="#SVGID_1_"  style="overflow:visible;"/>
			</clipPath>
			<path class="st0" d="M362.4,77.1c-5.3,0-9.6-4.3-9.6-9.6V19.3H49.3v48.1c0,5.3-4.3,9.6-9.6,9.6s-9.6-4.3-9.6-9.6V9.6
				C30,4.3,34.4,0,39.7,0h322.7c5.3,0,9.7,4.3,9.7,9.6v57.8C372.1,72.8,367.8,77.1,362.4,77.1"/>
		</g>
	</g>
	<g>
		<g>
			<defs>
				<rect id="SVGID_3_" y="0" width="400.2" height="241.6"/>
			</defs>
			<clipPath id="SVGID_4_">
				<use xlink:href="#SVGID_3_"  style="overflow:visible;"/>
			</clipPath>
			<path class="st1" d="M387.7,201.9H14.4c-5.3,0-9.7-4.3-9.7-9.6v-60.5c0-5.3,4.3-9.6,9.7-9.6h373.3c5.3,0,9.6,4.3,9.6,9.6v60.5
				C397.3,197.6,393,201.9,387.7,201.9 M24.1,182.6h354v-41.3h-354C24.1,141.3,24.1,182.6,24.1,182.6z"/>
		</g>
	</g>
	<g>
		<g>
			<defs>
				<rect id="SVGID_5_" y="0" width="400.2" height="241.6"/>
			</defs>
			<clipPath id="SVGID_6_">
				<use xlink:href="#SVGID_5_"  style="overflow:visible;"/>
			</clipPath>
			<path class="st2" d="M204.7,134c-5.3,0-9.7-4.3-9.7-9.6V9.6c0-5.3,4.3-9.6,9.7-9.6c5.3,0,9.6,4.3,9.6,9.6v114.7
				C214.3,129.7,210,134,204.7,134"/>
		</g>
	</g>
	<g>
		<g>
			<defs>
				<rect id="SVGID_7_" y="0" width="400.2" height="241.6"/>
			</defs>
			<clipPath id="SVGID_8_">
				<use xlink:href="#SVGID_7_"  style="overflow:visible;"/>
			</clipPath>
			<path class="st3" d="M39.7,241.6c-5.3,0-9.6-4.3-9.6-9.6v-36c0-5.3,4.3-9.6,9.6-9.6s9.6,4.3,9.6,9.6v36
				C49.3,237.3,45,241.6,39.7,241.6"/>
		</g>
	</g>
	<g>
		<g>
			<defs>
				<rect id="SVGID_9_" y="0" width="400.2" height="241.6"/>
			</defs>
			<clipPath id="SVGID_10_">
				<use xlink:href="#SVGID_9_"  style="overflow:visible;"/>
			</clipPath>
			<path class="st4" d="M362.4,241.6c-5.3,0-9.6-4.3-9.6-9.6v-36c0-5.3,4.3-9.6,9.6-9.6c5.3,0,9.7,4.3,9.7,9.6v36
				C372.1,237.3,367.8,241.6,362.4,241.6"/>
		</g>
	</g>
	<g>
		<g>
			<defs>
				<rect id="SVGID_11_" y="0" width="400.2" height="241.6"/>
			</defs>
			<clipPath id="SVGID_12_">
				<use xlink:href="#SVGID_11_"  style="overflow:visible;"/>
			</clipPath>
			<path class="st5" d="M37.8,136.8C16.9,136.8,0,119.8,0,99s16.9-37.8,37.8-37.8c20.8,0,37.8,16.9,37.8,37.8
				C75.6,119.8,58.6,136.8,37.8,136.8 M37.8,80.5c-10.2,0-18.5,8.3-18.5,18.5s8.3,18.5,18.5,18.5s18.5-8.3,18.5-18.5
				S48,80.5,37.8,80.5"/>
		</g>
	</g>
	<g>
		<g>
			<defs>
				<rect id="SVGID_13_" y="0" width="400.2" height="241.6"/>
			</defs>
			<clipPath id="SVGID_14_">
				<use xlink:href="#SVGID_13_"  style="overflow:visible;"/>
			</clipPath>
			<path class="st6" d="M362.4,136.8c-20.8,0-37.8-16.9-37.8-37.8c0-20.8,16.9-37.8,37.8-37.8s37.8,16.9,37.8,37.8
				C400.2,119.8,383.3,136.8,362.4,136.8 M362.4,80.5c-10.2,0-18.5,8.3-18.5,18.5s8.3,18.5,18.5,18.5s18.5-8.3,18.5-18.5
				S372.6,80.5,362.4,80.5"/>
		</g>
	</g>
</g>
</svg>
