<?xml version="1.0" encoding="utf-8"?>
<!-- Generator: Adobe Illustrator 15.0.0, SVG Export Plug-In . SVG Version: 6.00 Build 0)  -->
<!DOCTYPE svg PUBLIC "-//W3C//DTD SVG 1.1//EN" "http://www.w3.org/Graphics/SVG/1.1/DTD/svg11.dtd">
<svg version="1.1" id="Layer_1" xmlns="http://www.w3.org/2000/svg" xmlns:xlink="http://www.w3.org/1999/xlink" x="0px" y="0px"
	 width="529.549px" height="390.23px" viewBox="0 0 529.549 390.23" enable-background="new 0 0 529.549 390.23"
	 xml:space="preserve" fill="#ffffff">
<g>
	<defs>
		<rect id="SVGID_1_" width="529.549" height="390.23"/>
	</defs>
	<clipPath id="SVGID_2_">
		<use xlink:href="#SVGID_1_"  overflow="visible"/>
	</clipPath>
	<path clip-path="url(#SVGID_2_)" d="M520.399,18.311H9.155C4.095,18.311,0,14.216,0,9.156S4.095,0,9.155,0h511.244
		c5.061,0,9.149,4.096,9.149,9.156S525.453,18.311,520.399,18.311"/>
	<path clip-path="url(#SVGID_2_)" d="M264.774,356.001c-103.662,0-179.263-4.185-207.961-58.433
		c-8.232-15.501-11.007-53.165-11.007-67.945c0-5.06,4.096-9.15,9.156-9.15h222.611c5.06,0,9.155,4.097,9.155,9.15
		c0,5.065-4.096,9.155-9.155,9.155H64.343c0.911,18.918,4.369,42.182,8.638,50.229c23.93,45.2,94.584,48.688,191.787,48.688
		c7.995-0.411,17.263,0,25.687-0.09h0.101c5.019,0,9.103,4.042,9.155,9.061c0.048,5.048-4.012,9.191-9.06,9.251
		C282.156,356.001,273.537,356.001,264.774,356.001"/>
	<path clip-path="url(#SVGID_2_)" d="M128.801,380.681c-1.768,0-3.56-0.523-5.132-1.577c-4.184-2.846-5.273-8.536-2.44-12.715
		l18.311-27.002c2.857-4.179,8.56-5.221,12.721-2.441c4.185,2.84,5.274,8.531,2.44,12.71l-18.31,27.002
		C134.623,379.265,131.736,380.681,128.801,380.681"/>
	<path clip-path="url(#SVGID_2_)" d="M290.163,238.779H31.919c-5.066,0-9.155-4.096-9.155-9.156c0-5.059,4.095-9.148,9.155-9.148
		h258.244c5.065,0,9.155,4.096,9.155,9.148C299.318,234.689,295.229,238.779,290.163,238.779"/>
	<path clip-path="url(#SVGID_2_)" d="M78.458,236.921c-5.06,0-9.155-4.096-9.155-9.155V83.578c0-18.918,17.453-34.312,38.907-34.312
		s38.913,15.394,38.913,34.312v13.733c0,5.06-4.095,9.155-9.155,9.155c-5.06,0-9.156-4.095-9.156-9.155V83.578
		c0-8.816-9.244-16.001-20.596-16.001s-20.597,7.185-20.597,16.001v144.188C87.613,232.82,83.518,236.921,78.458,236.921"/>
	<path clip-path="url(#SVGID_2_)" d="M481.271,390.23H295.884c-5.06,0-9.149-4.096-9.149-9.149V16.025
		c0-5.06,4.096-9.155,9.149-9.155s9.161,4.095,9.161,9.155v355.895H472.11V16.025c0-5.06,4.096-9.155,9.155-9.155
		c5.066,0,9.156,4.095,9.156,9.155v365.056C490.428,386.134,486.332,390.23,481.271,390.23"/>
	<path clip-path="url(#SVGID_2_)" d="M434.924,390.23c-5.061,0-9.156-4.096-9.156-9.149V16.025c0-5.06,4.096-9.155,9.156-9.155
		c5.06,0,9.149,4.095,9.149,9.155v365.056C444.079,386.134,439.983,390.23,434.924,390.23"/>
	<path clip-path="url(#SVGID_2_)" d="M388.575,390.23c-5.061,0-9.155-4.096-9.155-9.149V16.025c0-5.06,4.095-9.155,9.155-9.155
		c5.06,0,9.155,4.095,9.155,9.155v365.056C397.73,386.134,393.635,390.23,388.575,390.23"/>
	<path clip-path="url(#SVGID_2_)" d="M342.232,390.23c-5.061,0-9.155-4.096-9.155-9.149V16.025c0-5.06,4.095-9.155,9.155-9.155
		c5.06,0,9.155,4.095,9.155,9.155v365.056C351.388,386.134,347.292,390.23,342.232,390.23"/>
	<path clip-path="url(#SVGID_2_)" d="M168.488,117.169H108.21c-5.06,0-9.156-4.096-9.156-9.155c0-5.06,4.096-9.156,9.156-9.156
		h60.272c5.066,0,9.155,4.096,9.155,9.156C177.637,113.073,173.548,117.169,168.488,117.169"/>
</g>
</svg>
