<?xml version="1.0" encoding="utf-8"?>
<!-- Generator: Adobe Illustrator 25.1.0, SVG Export Plug-In . SVG Version: 6.00 Build 0)  -->
<svg version="1.1" id="Layer_1" xmlns="http://www.w3.org/2000/svg" xmlns:xlink="http://www.w3.org/1999/xlink" x="0px" y="0px"
	 viewBox="0 0 529.5 390.2" style="enable-background:new 0 0 529.5 390.2;" xml:space="preserve">
<style type="text/css">
	.st0{clip-path:url(#SVGID_2_);fill:#1C355E;}
	.st1{clip-path:url(#SVGID_4_);fill:#1C355E;}
	.st2{clip-path:url(#SVGID_6_);fill:#1C355E;}
	.st3{clip-path:url(#SVGID_8_);fill:#1C355E;}
	.st4{clip-path:url(#SVGID_10_);fill:#1C355E;}
	.st5{clip-path:url(#SVGID_12_);fill:#1C355E;}
	.st6{clip-path:url(#SVGID_14_);fill:#1C355E;}
	.st7{clip-path:url(#SVGID_16_);fill:#1C355E;}
	.st8{clip-path:url(#SVGID_18_);fill:#1C355E;}
	.st9{clip-path:url(#SVGID_20_);fill:#1C355E;}
</style>
<g>
	<g>
		<defs>
			<rect id="SVGID_1_" y="0" width="529.5" height="390.2"/>
		</defs>
		<clipPath id="SVGID_2_">
			<use xlink:href="#SVGID_1_"  style="overflow:visible;"/>
		</clipPath>
		<path class="st0" d="M520.4,18.3H9.2C4.1,18.3,0,14.2,0,9.2S4.1,0,9.2,0h511.2c5.1,0,9.1,4.1,9.1,9.2S525.5,18.3,520.4,18.3"/>
	</g>
</g>
<g>
	<g>
		<defs>
			<rect id="SVGID_3_" y="0" width="529.5" height="390.2"/>
		</defs>
		<clipPath id="SVGID_4_">
			<use xlink:href="#SVGID_3_"  style="overflow:visible;"/>
		</clipPath>
		<path class="st1" d="M264.8,356c-103.7,0-179.3-4.2-208-58.4c-8.2-15.5-11-53.2-11-67.9c0-5.1,4.1-9.1,9.2-9.1h222.6
			c5.1,0,9.2,4.1,9.2,9.1c0,5.1-4.1,9.2-9.2,9.2H64.3c0.9,18.9,4.4,42.2,8.6,50.2c23.9,45.2,94.6,48.7,191.8,48.7
			c8-0.4,17.3,0,25.7-0.1h0.1c5,0,9.1,4,9.2,9.1c0,5-4,9.2-9.1,9.3C282.2,356,273.5,356,264.8,356"/>
	</g>
</g>
<g>
	<g>
		<defs>
			<rect id="SVGID_5_" y="0" width="529.5" height="390.2"/>
		</defs>
		<clipPath id="SVGID_6_">
			<use xlink:href="#SVGID_5_"  style="overflow:visible;"/>
		</clipPath>
		<path class="st2" d="M128.8,380.7c-1.8,0-3.6-0.5-5.1-1.6c-4.2-2.8-5.3-8.5-2.4-12.7l18.3-27c2.9-4.2,8.6-5.2,12.7-2.4
			c4.2,2.8,5.3,8.5,2.4,12.7l-18.3,27C134.6,379.3,131.7,380.7,128.8,380.7"/>
	</g>
</g>
<g>
	<g>
		<defs>
			<rect id="SVGID_7_" y="0" width="529.5" height="390.2"/>
		</defs>
		<clipPath id="SVGID_8_">
			<use xlink:href="#SVGID_7_"  style="overflow:visible;"/>
		</clipPath>
		<path class="st3" d="M290.2,238.8H31.9c-5.1,0-9.2-4.1-9.2-9.2c0-5.1,4.1-9.1,9.2-9.1h258.2c5.1,0,9.2,4.1,9.2,9.1
			C299.3,234.7,295.2,238.8,290.2,238.8"/>
	</g>
</g>
<g>
	<g>
		<defs>
			<rect id="SVGID_9_" y="0" width="529.5" height="390.2"/>
		</defs>
		<clipPath id="SVGID_10_">
			<use xlink:href="#SVGID_9_"  style="overflow:visible;"/>
		</clipPath>
		<path class="st4" d="M78.5,236.9c-5.1,0-9.2-4.1-9.2-9.2V83.6c0-18.9,17.5-34.3,38.9-34.3s38.9,15.4,38.9,34.3v13.7
			c0,5.1-4.1,9.2-9.2,9.2s-9.2-4.1-9.2-9.2V83.6c0-8.8-9.2-16-20.6-16s-20.6,7.2-20.6,16v144.2C87.6,232.8,83.5,236.9,78.5,236.9"/>
	</g>
</g>
<g>
	<g>
		<defs>
			<rect id="SVGID_11_" y="0" width="529.5" height="390.2"/>
		</defs>
		<clipPath id="SVGID_12_">
			<use xlink:href="#SVGID_11_"  style="overflow:visible;"/>
		</clipPath>
		<path class="st5" d="M481.3,390.2H295.9c-5.1,0-9.1-4.1-9.1-9.1V16c0-5.1,4.1-9.2,9.1-9.2S305,11,305,16v355.9h167.1V16
			c0-5.1,4.1-9.2,9.2-9.2s9.2,4.1,9.2,9.2v365.1C490.4,386.1,486.3,390.2,481.3,390.2"/>
	</g>
</g>
<g>
	<g>
		<defs>
			<rect id="SVGID_13_" y="0" width="529.5" height="390.2"/>
		</defs>
		<clipPath id="SVGID_14_">
			<use xlink:href="#SVGID_13_"  style="overflow:visible;"/>
		</clipPath>
		<path class="st6" d="M434.9,390.2c-5.1,0-9.2-4.1-9.2-9.1V16c0-5.1,4.1-9.2,9.2-9.2s9.1,4.1,9.1,9.2v365.1
			C444.1,386.1,440,390.2,434.9,390.2"/>
	</g>
</g>
<g>
	<g>
		<defs>
			<rect id="SVGID_15_" y="0" width="529.5" height="390.2"/>
		</defs>
		<clipPath id="SVGID_16_">
			<use xlink:href="#SVGID_15_"  style="overflow:visible;"/>
		</clipPath>
		<path class="st7" d="M388.6,390.2c-5.1,0-9.2-4.1-9.2-9.1V16c0-5.1,4.1-9.2,9.2-9.2s9.2,4.1,9.2,9.2v365.1
			C397.7,386.1,393.6,390.2,388.6,390.2"/>
	</g>
</g>
<g>
	<g>
		<defs>
			<rect id="SVGID_17_" y="0" width="529.5" height="390.2"/>
		</defs>
		<clipPath id="SVGID_18_">
			<use xlink:href="#SVGID_17_"  style="overflow:visible;"/>
		</clipPath>
		<path class="st8" d="M342.2,390.2c-5.1,0-9.2-4.1-9.2-9.1V16c0-5.1,4.1-9.2,9.2-9.2s9.2,4.1,9.2,9.2v365.1
			C351.4,386.1,347.3,390.2,342.2,390.2"/>
	</g>
</g>
<g>
	<g>
		<defs>
			<rect id="SVGID_19_" y="0" width="529.5" height="390.2"/>
		</defs>
		<clipPath id="SVGID_20_">
			<use xlink:href="#SVGID_19_"  style="overflow:visible;"/>
		</clipPath>
		<path class="st9" d="M168.5,117.2h-60.3c-5.1,0-9.2-4.1-9.2-9.2s4.1-9.2,9.2-9.2h60.3c5.1,0,9.2,4.1,9.2,9.2
			C177.6,113.1,173.5,117.2,168.5,117.2"/>
	</g>
</g>
</svg>
