<svg width="18" height="18" viewBox="0 0 64 64" fill="none" xmlns="http://www.w3.org/2000/svg">
                            <path d="M4 40.2201H38.9C39.2264 40.2202 39.5399 40.0926 39.7734 39.8646C40.007 39.6366 40.1422 39.3264 40.15 39.0001V4.07007C40.15 3.73855 40.0183 3.42061 39.7839 3.18618C39.5495 2.95176 39.2315 2.82007 38.9 2.82007H4C3.66848 2.82007 3.35054 2.95176 3.11612 3.18618C2.8817 3.42061 2.75 3.73855 2.75 4.07007V39.0001C2.75783 39.3264 2.89298 39.6366 3.12656 39.8646C3.36013 40.0926 3.67361 40.2202 4 40.2201V40.2201ZM5.25 5.32007H37.65V37.7201H5.25V5.32007Z" fill="black"></path>
                            <path d="M39.05 43.8C38.7185 43.8 38.4005 43.9317 38.1661 44.1661C37.9317 44.4005 37.8 44.7184 37.8 45.05V51.75L30.8 47.12C30.5631 46.9717 30.2837 46.9063 30.0056 46.9342C29.7275 46.9621 29.4666 47.0816 29.2639 47.274C29.0612 47.4664 28.9283 47.7207 28.8859 47.997C28.8436 48.2732 28.8943 48.5557 29.03 48.8L31.42 52.8H11.72L14.1 49C14.2409 48.759 14.2978 48.478 14.2617 48.2011C14.2256 47.9243 14.0986 47.6673 13.9007 47.4704C13.7027 47.2736 13.4449 47.1481 13.1679 47.1136C12.8908 47.0791 12.6102 47.1377 12.37 47.28L5.25 51.8V45.05C5.25 44.7184 5.1183 44.4005 4.88388 44.1661C4.64946 43.9317 4.33152 43.8 4 43.8C3.66848 43.8 3.35054 43.9317 3.11612 44.1661C2.8817 44.4005 2.75 44.7184 2.75 45.05V54.05C2.76218 54.248 2.81885 54.4408 2.9158 54.6139C3.01276 54.787 3.1475 54.9361 3.31 55.05L12.21 61C12.4141 61.1368 12.6543 61.2099 12.9 61.21C13.1176 61.2086 13.3311 61.1509 13.5198 61.0425C13.7084 60.9341 13.8658 60.7787 13.9766 60.5914C14.0873 60.4041 14.1477 60.1913 14.1518 59.9738C14.1559 59.7562 14.1036 59.5413 14 59.35L11.61 55.35H31.34L29 59.13C28.8524 59.3695 28.7899 59.6518 28.8226 59.9312C28.8553 60.2106 28.9813 60.4708 29.1802 60.6698C29.3791 60.8687 29.6394 60.9947 29.9188 61.0274C30.1982 61.0601 30.4805 60.9976 30.72 60.85L39.72 55.14C39.9452 54.9996 40.1175 54.7886 40.21 54.54C40.2727 54.391 40.3066 54.2315 40.31 54.07V45.07C40.3127 44.9033 40.282 44.7378 40.2197 44.5831C40.1575 44.4285 40.0649 44.2879 39.9475 44.1695C39.8301 44.0512 39.6902 43.9575 39.5361 43.8941C39.382 43.8306 39.2167 43.7986 39.05 43.8V43.8Z" fill="black"></path>
                            <path d="M60.9101 29.3C60.7125 29.097 60.4531 28.9652 60.1726 28.9254C59.8921 28.8856 59.6063 28.94 59.3601 29.08L55.3601 31.48V11.79L59.1601 14.17C59.3995 14.3176 59.6818 14.3802 59.9613 14.3475C60.2407 14.3148 60.5009 14.1887 60.6999 13.9898C60.8988 13.7909 61.0248 13.5306 61.0575 13.2512C61.0902 12.9718 61.0277 12.6895 60.8801 12.45L55.2701 3.55001C55.1768 3.31814 55.0168 3.11922 54.8102 2.97855C54.6037 2.83788 54.36 2.76181 54.1101 2.76001H45.1101C44.7785 2.76001 44.4606 2.89171 44.2262 3.12613C43.9918 3.36055 43.8601 3.67849 43.8601 4.01001C43.8601 4.34153 43.9918 4.65947 44.2262 4.89389C44.4606 5.12831 44.7785 5.26001 45.1101 5.26001H51.8001L47.1301 12.26C46.9862 12.4961 46.9247 12.7732 46.9552 13.048C46.9856 13.3228 47.1063 13.5797 47.2983 13.7786C47.4903 13.9775 47.7429 14.1071 48.0164 14.1472C48.29 14.1872 48.5691 14.1355 48.8101 14L52.8101 11.61V31.31L49.0001 29C48.7599 28.8577 48.4792 28.7992 48.2022 28.8337C47.9251 28.8681 47.6674 28.9936 47.4694 29.1905C47.2714 29.3873 47.1444 29.6443 47.1083 29.9212C47.0723 30.198 47.1291 30.479 47.2701 30.72L51.7701 37.85H45.0601C44.7285 37.85 44.4106 37.9817 44.1762 38.2161C43.9418 38.4505 43.8101 38.7685 43.8101 39.1C43.8101 39.4315 43.9418 39.7495 44.1762 39.9839C44.4106 40.2183 44.7285 40.35 45.0601 40.35H54.0601C54.2108 40.3452 54.3596 40.3147 54.5001 40.26C54.7528 40.1759 54.9708 40.0107 55.1201 39.79L61.0001 30.85C61.162 30.6193 61.2412 30.3407 61.2249 30.0593C61.2085 29.778 61.0976 29.5104 60.9101 29.3V29.3Z" fill="black"></path>
                            </svg>