
 <svg id="key_svg" xmlns="http://www.w3.org/2000/svg" version="1.1" xmlns:xlink="http://www.w3.org/1999/xlink" x="0" y="0" viewBox="0 0 512.018 512.018" style="enable-background:new 0 0 512 512" xml:space="preserve" class="">
        <g>
            <path fill-rule="evenodd" d="M286.47 313.968 176.663 461.219a8.533 8.533 0 0 0 1.707 11.947 8.533 8.533 0 0 0 11.947-1.707L300.15 324.165a8.535 8.535 0 0 0-5.806-13.592 8.531 8.531 0 0 0-7.847 3.352z" clip-rule="evenodd" fill="#000000" opacity="1" data-original="#000000" class=""></path>
            <path d="m18.625 354.467 45.551 15.215a14.14 14.14 0 0 0 4.77.853 14.805 14.805 0 0 0 7.509-2.082l155.819-93.354a120.421 120.421 0 0 0 7.142 16.333l-27.306 36.607a14.704 14.704 0 0 0-2.722 10.786l2.253 15.804-16.939 5.018a14.593 14.593 0 0 0-10.522 14.199c.165 3.57.607 7.122 1.323 10.624l.666 4.267-17.067 5.043a14.668 14.668 0 0 0-10.257 16.111l1.852 13.065-16.401 4.881c-13.345 3.907-21.352 17.516-18.287 31.078l9.387 41.609a14.505 14.505 0 0 0 14.063 11.494c.384 0 .777 0 1.169-.051l47.872-3.277a14.38 14.38 0 0 0 10.965-5.845l112.077-150.272c42.36 8.55 86.032-6.482 114.155-39.292 28.124-32.811 36.299-78.268 21.371-118.822 36.159-24.736 53.487-69.086 43.676-111.783S455.982 7.642 412.653 1.172s-86.202 14.246-108.059 52.214a119.073 119.073 0 0 0-119.945 130.876l-39.356 23.535a14.713 14.713 0 0 0-6.443 8.883l-3.9 15.445-17.562-1.809a14.617 14.617 0 0 0-15.206 9.114 70.318 70.318 0 0 0-2.816 10.522l-.973 4.087-17.553-1.775a14.6 14.6 0 0 0-15.863 10.914l-3.217 12.8-16.998-1.707a25.81 25.81 0 0 0-16.213 3.55 26.129 26.129 0 0 0-12.595 18.287l-7.125 41.975c-1.395 7.161 2.828 14.223 9.796 16.384zm414.515-66.833c-22.945 39.156-69.052 58.377-113.015 47.113a8.533 8.533 0 0 0-8.943 3.166L196.486 491.734l-44.877 3.072-8.977-39.578a9.486 9.486 0 0 1 1.613-7.68 9.385 9.385 0 0 1 4.847-3.337l18.449-5.487a14.507 14.507 0 0 0 10.3-16.102l-1.852-13.065 17.067-5.043a14.507 14.507 0 0 0 10.291-16.137l-1.015-6.588c-.393-2.492-.768-4.787-.973-6.332l17.22-5.094a14.508 14.508 0 0 0 10.24-16.094l-2.406-16.896 29.978-40.201a8.533 8.533 0 0 0 .503-9.455c-26.073-43.87-15.865-100.241 23.937-132.181s97.046-29.698 134.228 5.256a100.755 100.755 0 0 1 20.335 26.615 88.479 88.479 0 0 1-31.283 8.397c-2.654-15.951-16.168-27.831-32.328-28.417s-30.499 10.283-34.302 26 3.983 31.939 18.624 38.804 32.091 2.477 41.742-10.497a33.26 33.26 0 0 0 4.531-8.713 105.804 105.804 0 0 0 39.714-9.873 102.227 102.227 0 0 1-8.952 84.526zm-73.386-99.558a16.94 16.94 0 0 1 8.252-3.678 17.58 17.58 0 0 1 2.5-.179 17.065 17.065 0 0 1 16.034 11.358 87.987 87.987 0 0 1-26.778-7.501zm23.56 24.337a16.964 16.964 0 0 1-29.637-8.312 105.222 105.222 0 0 0 29.645 8.311zm13.611-195.328c38.697-.056 73.044 24.774 85.123 61.538s-.848 77.126-32.037 100.032a117.415 117.415 0 0 0-23.322-30.345c-2.56-2.364-5.188-4.506-7.868-6.622a116.736 116.736 0 0 0-6.554-18.551A118.373 118.373 0 0 0 339 58.634a120.224 120.224 0 0 0-15.36-3.541 89.146 89.146 0 0 1 73.285-38.008zM32.859 298.949a9.192 9.192 0 0 1 4.471-6.485 8.958 8.958 0 0 1 5.683-1.254l19.191 1.963a14.327 14.327 0 0 0 15.573-10.948l3.226-12.8 17.741 1.826a14.728 14.728 0 0 0 15.667-11.093l1.502-6.306c.597-2.5 1.126-4.83 1.527-6.374l17.869 1.835a14.454 14.454 0 0 0 15.607-10.931l4.215-16.64 42.999-25.702a8.532 8.532 0 0 0 4.07-8.533c-7.303-49.73 22.599-97.4 70.55-112.472s99.748 6.919 122.209 51.885a117.897 117.897 0 0 0-60.681-10.402 119.467 119.467 0 0 0-106.667 141.466L68.69 353.196l-42.624-14.234z" fill="#000000" opacity="1" data-original="#000000" class=""></path>
            <path fill-rule="evenodd" d="M207.238 250.292a8.534 8.534 0 0 0-8.763-14.643L62 317.458a8.535 8.535 0 0 0 .172 14.85 8.533 8.533 0 0 0 8.592-.206z" clip-rule="evenodd" fill="#000000" opacity="1" data-original="#000000" class=""></path>
        </g>
    </svg>