
<svg id="pric_svg" xmlns="http://www.w3.org/2000/svg" version="1.1" xmlns:xlink="http://www.w3.org/1999/xlink" x="0" y="0" viewBox="0 0 512 512" style="enable-background:new 0 0 512 512" xml:space="preserve" class="">
        <g>
            <circle cx="394.604" cy="361.071" r="10" fill="#000000" opacity="1" data-original="#000000"></circle>
            <path d="m452.865 113.446-25.39-81.975a29.99 29.99 0 0 0-36.385-20.17L243.97 50.142l-14.14-23.197C221.586 13.424 204.157 8.616 190.147 16L5.348 113.407C1.558 115.405 0 119.203 0 123.291v368.398c0 5.534 4.486 10.02 10.02 10.02H448.4c35.069 0 63.601-28.531 63.601-63.6V176.872c-.001-33.567-26.145-61.124-59.136-63.426zm-56.661-82.77a9.997 9.997 0 0 1 12.128 6.723l23.499 75.872H83.356zm-196.713 3.051c4.67-2.459 10.479-.859 13.227 3.649l11.035 18.103L92.462 90.141zM448.399 481.67H20.039V133.311h428.36c24.02 0 43.562 19.542 43.562 43.561v67.018H306.573c-35.069 0-63.601 28.531-63.601 63.601s28.531 63.6 63.601 63.6h43.117c5.533 0 10.02-4.486 10.02-10.02s-4.486-10.02-10.02-10.02h-43.117c-24.02 0-43.562-19.542-43.562-43.561 0-24.02 19.542-43.562 43.562-43.562H491.96v87.123h-52.443c-5.533 0-10.02 4.486-10.02 10.02s4.486 10.02 10.02 10.02h52.443v67.018c.001 24.019-19.541 43.561-43.561 43.561z" fill="#000000" opacity="1" data-original="#000000"></path>
            <path d="M320.953 277.432c-16.574 0-30.059 13.484-30.059 30.059 0 16.574 13.484 30.059 30.059 30.059s30.059-13.484 30.059-30.059-13.485-30.059-30.059-30.059zm0 40.078c-5.524 0-10.02-4.495-10.02-10.02s4.495-10.02 10.02-10.02 10.02 4.495 10.02 10.02-4.495 10.02-10.02 10.02z" fill="#000000" opacity="1" data-original="#000000"></path>
        </g>
    </svg>