<svg xmlns="http://www.w3.org/2000/svg" version="1.1" xmlns:xlink="http://www.w3.org/1999/xlink" width="512" height="512" x="0" y="0" viewBox="0 0 512 512" style="enable-background:new 0 0 512 512" xml:space="preserve" class=""><g><path d="M0 400.6v32.134c0 8.284 6.716 15 15 15s15-6.716 15-15V415.6h452v17.134c0 8.284 6.716 15 15 15s15-6.716 15-15V351.333H0zM456.834 224.933H55.166C24.748 224.933 0 249.681 0 280.1v41.233h512V280.1c0-30.419-24.748-55.167-55.166-55.167zM199.768 158.533c-13.878 0-25.168 11.289-25.168 25.166v11.233h162.8v-11.233c0-13.877-11.289-25.166-25.166-25.166z" fill="#eb212e" opacity="1" data-original="#eb212e" class=""></path><path d="M144.6 183.699c0-30.419 24.748-55.166 55.168-55.166h112.467c30.419 0 55.166 24.747 55.166 55.166v11.233h80.334v-75.5c0-30.419-24.748-55.166-55.168-55.166H119.434c-30.419 0-55.166 24.747-55.166 55.166v75.5H144.6z" fill="#eb212e" opacity="1" data-original="#eb212e" class=""></path></g></svg>