<svg xmlns="http://www.w3.org/2000/svg" version="1.1" xmlns:xlink="http://www.w3.org/1999/xlink" width="512" height="512" x="0" y="0" viewBox="0 0 512 512" style="enable-background:new 0 0 512 512" xml:space="preserve" class=""><g><path d="M287 167h-62v60h62c16.538 0 30-13.462 30-30s-13.462-30-30-30z" fill="#eb212e" opacity="1" data-original="#eb212e" class=""></path><path d="M437 0H75C33.647 0 0 33.647 0 75v362c0 41.353 33.647 75 75 75h362c41.353 0 75-33.647 75-75V75c0-41.353-33.647-75-75-75zM287 287h-62v105c0 8.284-6.716 15-15 15h-30c-8.284 0-15-6.716-15-15V122c0-8.284 6.716-15 15-15h107c49.629 0 90 40.371 90 90s-40.371 90-90 90z" fill="#eb212e" opacity="1" data-original="#eb212e" class=""></path></g></svg>