<svg version="1.1" id="Layer_1" xmlns="http://www.w3.org/2000/svg" xmlns:xlink="http://www.w3.org/1999/xlink" x="0px" y="0px" width="33px" height="12px" viewBox="0 0 49.35 28.35" enable-background="new 0 0 49.35 28.35" xml:space="preserve">
<g>
  <path fill-rule="evenodd" clip-rule="evenodd" fill="silver" d="M22.536,23.932h19.126c0.894,0,1.649-0.281,2.262-0.922
		c0.604-0.633,0.926-1.372,0.926-2.214V19.45c0-0.839-0.322-1.544-0.926-2.144c-0.612-0.604-1.368-0.921-2.262-0.921h-13.49
		c-1.074,0-2.077-0.177-3.009-0.599c-0.926-0.38-1.744-0.902-2.417-1.595c-0.774,0.78-1.664,1.375-2.719,1.764L22.536,23.932z"></path>
  <path fill-rule="evenodd" clip-rule="evenodd" fill="silver" d="M22.707,2.228c0.003,0.001,0.003,0.004,0.006,0.005
		c0.002-0.004,0.005-0.008,0.008-0.011c0.677-0.668,1.505-1.196,2.442-1.625C26.095,0.209,27.098,0,28.172,0H17.248
		c1.05,0,2.059,0.212,2.993,0.601C21.19,1.022,21.99,1.554,22.707,2.228z"></path>
  <path fill-rule="evenodd" clip-rule="evenodd" fill="silver" d="M19.488,11.107c0.651-0.6,0.977-1.345,0.977-2.195V7.569
		c0-0.885-0.326-1.629-0.977-2.229c-0.651-0.6-1.372-0.92-2.24-0.92H0v7.569h17.248C18.116,11.99,18.836,11.708,19.488,11.107z"></path>
  <polyline fill-rule="evenodd" clip-rule="evenodd" fill="silver" points="19.196,28.3 15.407,16.445 4.516,16.445 4.516,28.317 	
		"></polyline>
  <g>
    <path fill-rule="evenodd" clip-rule="evenodd" fill="silver" d="M49.366,20.629v0.167c0,1.054-0.211,2.001-0.604,2.925
			c-0.393,0.917-0.932,1.724-1.654,2.391c-0.71,0.714-1.499,1.236-2.433,1.627c-0.936,0.385-1.94,0.562-3.013,0.562h-0.098v0.018
			h7.804L49.366,20.629L49.366,20.629z"></path>
    <path fill-rule="evenodd" clip-rule="evenodd" fill="silver" d="M49.365,4.408H28.172c-0.896,0-1.644,0.319-2.26,0.916
			c-0.649,0.597-0.932,1.335-0.932,2.188v0.006c0,0.019,0.007,0.034,0.007,0.052v1.343c0,0.007-0.003,0.011-0.003,0.018
			c0.011,0.82,0.292,1.554,0.928,2.137c0.616,0.6,1.363,0.88,2.26,0.88h13.49c1.072,0,2.077,0.214,3.013,0.601
			c0.934,0.387,1.723,0.914,2.433,1.588c0.723,0.703,1.262,1.477,1.654,2.393c0.394,0.92,0.604,1.904,0.604,2.922"></path>
  </g>
</g>
</svg>
